<svg width="45" height="44" viewBox="0 0 45 44" fill="none" xmlns="http://www.w3.org/2000/svg">
<path d="M40.8333 28.7834C40.8333 28.7651 40.815 28.7467 40.7967 28.7284C40.7233 28.6184 40.6317 28.5084 40.54 28.4167C40.5217 28.3984 40.5033 28.3618 40.485 28.3435C39 26.6935 36.8183 25.6667 34.4167 25.6667C32.1067 25.6667 29.9983 26.6201 28.495 28.1601C27.0467 29.6451 26.1667 31.6801 26.1667 33.9167C26.1667 35.4567 26.6067 36.9234 27.3583 38.1701C27.7617 38.8484 28.275 39.4717 28.8617 39.9851C28.8983 40.0034 28.9167 40.0218 28.935 40.0401C29.0267 40.1318 29.1183 40.205 29.2283 40.2967C29.2283 40.2967 29.2283 40.2967 29.2467 40.2967C29.265 40.315 29.2833 40.3334 29.3017 40.3334C30.6767 41.4884 32.455 42.1667 34.4167 42.1667C37.4233 42.1667 40.045 40.5534 41.475 38.1701C41.8967 37.4551 42.2267 36.6667 42.4283 35.8417C42.5933 35.2184 42.6667 34.5767 42.6667 33.9167C42.6667 31.9734 41.9883 30.1768 40.8333 28.7834ZM37.4967 35.255H35.7917V37.0334C35.7917 37.7851 35.1683 38.4084 34.4167 38.4084C33.665 38.4084 33.0417 37.7851 33.0417 37.0334V35.255H31.3367C30.585 35.255 29.9617 34.6317 29.9617 33.88C29.9617 33.1284 30.585 32.505 31.3367 32.505H33.0417V30.8735C33.0417 30.1218 33.665 29.4985 34.4167 29.4985C35.1683 29.4985 35.7917 30.1218 35.7917 30.8735V32.505H37.4967C38.2483 32.505 38.8717 33.1284 38.8717 33.88C38.8717 34.6317 38.2667 35.255 37.4967 35.255Z" fill="#33B0FD"/>
<path opacity="0.4" d="M35.975 10.3767L24.4433 4.16175C23.2333 3.50175 21.7667 3.50175 20.5383 4.16175L9.00666 10.3767C8.16333 10.835 7.64999 11.7334 7.64999 12.7234C7.64999 13.7134 8.16333 14.6117 9.00666 15.07L20.5383 21.285C21.1433 21.615 21.8217 21.7801 22.4817 21.7801C23.1417 21.7801 23.82 21.615 24.425 21.285L35.9567 15.07C36.8 14.6117 37.3133 13.7134 37.3133 12.7234C37.35 11.7334 36.8183 10.835 35.975 10.3767Z" fill="#33B0FD"/>
<path opacity="0.4" d="M18.65 23.4484L7.92501 18.0767C7.10001 17.655 6.14666 17.71 5.35832 18.1867C4.56999 18.6634 4.11167 19.5068 4.11167 20.4234V30.5617C4.11167 32.3217 5.08334 33.8984 6.66 34.6867L17.385 40.0401C17.7517 40.2234 18.155 40.3151 18.5583 40.3151C19.035 40.3151 19.5117 40.1868 19.9333 39.9118C20.7217 39.4351 21.18 38.5917 21.18 37.675V27.5368C21.1983 25.8134 20.2267 24.2367 18.65 23.4484Z" fill="#33B0FD"/>
<path opacity="0.4" d="M40.8883 20.4416V28.8566C40.87 28.8382 40.8517 28.8016 40.8333 28.7833C40.8333 28.7649 40.815 28.7466 40.7967 28.7282C40.7233 28.6182 40.6317 28.5082 40.54 28.4166C40.5217 28.3982 40.5033 28.3616 40.485 28.3433C39 26.6933 36.8183 25.6666 34.4167 25.6666C32.1067 25.6666 29.9983 26.6199 28.495 28.1599C27.0467 29.6449 26.1667 31.6799 26.1667 33.9166C26.1667 35.4566 26.6067 36.9233 27.3583 38.1699C27.67 38.7016 28.055 39.1782 28.4767 39.6182L27.615 40.0582C27.2483 40.2415 26.845 40.3333 26.4417 40.3333C25.965 40.3333 25.4883 40.205 25.0483 39.93C24.2783 39.4533 23.8017 38.6099 23.8017 37.6932V27.5732C23.8017 25.8132 24.7733 24.2365 26.35 23.4482L37.075 18.0949C37.9 17.6732 38.8533 17.7099 39.6417 18.2049C40.4117 18.6816 40.8883 19.525 40.8883 20.4416Z" fill="#33B0FD"/>
</svg>
