<svg width="44" height="44" viewBox="0 0 44 44" fill="none" xmlns="http://www.w3.org/2000/svg">
<g id="vuesax/bulk/box">
<g id="Group">
<path id="Vector" opacity="0.4" d="M38.5745 13.1817L22.0011 22.7701L5.42781 13.1817C6.16114 11.8251 7.22448 10.6334 8.41614 9.97341L18.2061 4.54675C20.2961 3.37341 23.7061 3.37341 25.7961 4.54675L35.5861 9.97341C36.7778 10.6334 37.8411 11.8251 38.5745 13.1817Z" fill="#33B0FD"/>
<path id="Vector_2" opacity="0.6" d="M22.0011 22.77V40.3333C20.6261 40.3333 19.2511 40.04 18.2061 39.4533L8.41615 34.0266C6.19781 32.7983 4.38281 29.7183 4.38281 27.1883V16.8116C4.38281 15.6383 4.78615 14.355 5.42781 13.1816L22.0011 22.77Z" fill="#33B0FD"/>
<path id="Vector_3" d="M39.6195 16.8116V27.1883C39.6195 29.7183 37.8045 32.7983 35.5861 34.0266L25.7961 39.4533C24.7511 40.04 23.3761 40.3333 22.0011 40.3333V22.77L38.5745 13.1816C39.2161 14.355 39.6195 15.6383 39.6195 16.8116Z" fill="#33B0FD"/>
</g>
</g>
</svg>
