<svg width="44" height="44" viewBox="0 0 44 44" fill="none" xmlns="http://www.w3.org/2000/svg">
<g id="vuesax/bulk/category">
<g id="Group">
<path id="Vector" d="M13.2733 3.66675H9.79C5.775 3.66675 3.66666 5.77508 3.66666 9.77175V13.2551C3.66666 17.2517 5.775 19.3601 9.77166 19.3601H13.255C17.2517 19.3601 19.36 17.2517 19.36 13.2551V9.77175C19.3783 5.77508 17.27 3.66675 13.2733 3.66675Z" fill="#33B0FD"/>
<path id="Vector_2" opacity="0.4" d="M34.2283 3.66675H30.745C26.7483 3.66675 24.64 5.77508 24.64 9.77175V13.2551C24.64 17.2517 26.7483 19.3601 30.745 19.3601H34.2283C38.225 19.3601 40.3333 17.2517 40.3333 13.2551V9.77175C40.3333 5.77508 38.225 3.66675 34.2283 3.66675Z" fill="#33B0FD"/>
<path id="Vector_3" d="M34.2283 24.6216H30.745C26.7483 24.6216 24.64 26.7299 24.64 30.7266V34.2099C24.64 38.2066 26.7483 40.3149 30.745 40.3149H34.2283C38.225 40.3149 40.3333 38.2066 40.3333 34.2099V30.7266C40.3333 26.7299 38.225 24.6216 34.2283 24.6216Z" fill="#33B0FD"/>
<path id="Vector_4" opacity="0.4" d="M13.2733 24.6216H9.79C5.775 24.6216 3.66666 26.7299 3.66666 30.7266V34.2099C3.66666 38.2249 5.775 40.3332 9.77166 40.3332H13.255C17.2517 40.3332 19.36 38.2249 19.36 34.2282V30.7449C19.3783 26.7299 17.27 24.6216 13.2733 24.6216Z" fill="#33B0FD"/>
</g>
</g>
</svg>
