<svg width="16" height="16" viewBox="0 0 16 16" fill="none" xmlns="http://www.w3.org/2000/svg">
<path d="M8 0.5C3.86 0.5 0.5 3.86 0.5 8C0.5 12.14 3.86 15.5 8 15.5C12.14 15.5 15.5 12.14 15.5 8C15.5 3.86 12.14 0.5 8 0.5ZM11.0225 6.65001L7.51999 10.145C7.41499 10.2575 7.27249 10.31 7.12249 10.31C6.97999 10.31 6.83749 10.2575 6.72499 10.145L4.9775 8.39752C4.76 8.18002 4.76 7.81998 4.9775 7.60248C5.195 7.38498 5.555 7.38498 5.7725 7.60248L7.12249 8.95251L10.2275 5.85501C10.445 5.63001 10.805 5.63001 11.0225 5.85501C11.24 6.07251 11.24 6.42501 11.0225 6.65001Z" fill="#4BB543"/>
</svg>
