<svg width="25" height="24" viewBox="0 0 25 24" fill="none" xmlns="http://www.w3.org/2000/svg">
<g id="vuesax/linear/element-4">
<g id="element-4">
<path id="Vector" d="M22.75 10.9V4.1C22.75 2.6 22.11 2 20.52 2H16.48C14.89 2 14.25 2.6 14.25 4.1V10.9C14.25 12.4 14.89 13 16.48 13H20.52C22.11 13 22.75 12.4 22.75 10.9Z" stroke="#9CA3AF" stroke-width="1.5" stroke-linecap="round" stroke-linejoin="round"/>
<path id="Vector_2" d="M22.75 19.9V18.1C22.75 16.6 22.11 16 20.52 16H16.48C14.89 16 14.25 16.6 14.25 18.1V19.9C14.25 21.4 14.89 22 16.48 22H20.52C22.11 22 22.75 21.4 22.75 19.9Z" stroke="#9CA3AF" stroke-width="1.5" stroke-linecap="round" stroke-linejoin="round"/>
<path id="Vector_3" d="M11.25 13.1V19.9C11.25 21.4 10.61 22 9.02 22H4.98C3.39 22 2.75 21.4 2.75 19.9V13.1C2.75 11.6 3.39 11 4.98 11H9.02C10.61 11 11.25 11.6 11.25 13.1Z" stroke="#9CA3AF" stroke-width="1.5" stroke-linecap="round" stroke-linejoin="round"/>
<path id="Vector_4" d="M11.25 4.1V5.9C11.25 7.4 10.61 8 9.02 8H4.98C3.39 8 2.75 7.4 2.75 5.9V4.1C2.75 2.6 3.39 2 4.98 2H9.02C10.61 2 11.25 2.6 11.25 4.1Z" stroke="#9CA3AF" stroke-width="1.5" stroke-linecap="round" stroke-linejoin="round"/>
</g>
</g>
</svg>
