<svg width="88" height="88" viewBox="0 0 88 88" fill="none" xmlns="http://www.w3.org/2000/svg">
<rect width="88" height="88" rx="44" fill="#FFF1F1"/>
<path d="M59.1166 32.7166C56.4333 32.4499 53.75 32.2499 51.05 32.0999V32.0833L50.6833 29.9166C50.4333 28.3833 50.0666 26.0833 46.1666 26.0833H41.8C37.9166 26.0833 37.55 28.2833 37.2833 29.8999L36.9333 32.0333C35.3833 32.1333 33.8333 32.2333 32.2833 32.3833L28.8833 32.7166C28.1833 32.7833 27.6833 33.3999 27.75 34.0833C27.8166 34.7666 28.4166 35.2666 29.1166 35.1999L32.5166 34.8666C41.25 33.9999 50.05 34.3333 58.8833 35.2166C58.9333 35.2166 58.9666 35.2166 59.0166 35.2166C59.65 35.2166 60.2 34.7333 60.2666 34.0833C60.3166 33.3999 59.8166 32.7833 59.1166 32.7166Z" fill="#FF2424"/>
<path d="M56.05 37.5667C55.65 37.1501 55.1 36.9167 54.5334 36.9167H33.4667C32.9 36.9167 32.3334 37.1501 31.95 37.5667C31.5667 37.9834 31.35 38.5501 31.3834 39.1334L32.4167 56.2334C32.6 58.7667 32.8334 61.9334 38.65 61.9334H49.35C55.1667 61.9334 55.4 58.7834 55.5834 56.2334L56.6167 39.1501C56.65 38.5501 56.4334 37.9834 56.05 37.5667ZM46.7667 53.5834H41.2167C40.5334 53.5834 39.9667 53.0167 39.9667 52.3334C39.9667 51.6501 40.5334 51.0834 41.2167 51.0834H46.7667C47.45 51.0834 48.0167 51.6501 48.0167 52.3334C48.0167 53.0167 47.45 53.5834 46.7667 53.5834ZM48.1667 46.9167H39.8334C39.15 46.9167 38.5834 46.3501 38.5834 45.6667C38.5834 44.9834 39.15 44.4167 39.8334 44.4167H48.1667C48.85 44.4167 49.4167 44.9834 49.4167 45.6667C49.4167 46.3501 48.85 46.9167 48.1667 46.9167Z" fill="#FF2424"/>
</svg>
