<svg width="20" height="20" viewBox="0 0 20 20" fill="none" xmlns="http://www.w3.org/2000/svg">
<g id="vuesax/bold/empty-wallet-time">
<g id="Group">
<path id="Vector" d="M4.16666 12.5C3.38333 12.5 2.65833 12.775 2.08333 13.2333C1.31666 13.8417 0.833328 14.7833 0.833328 15.8333C0.833328 17.675 2.32499 19.1667 4.16666 19.1667C5.00833 19.1667 5.77499 18.85 6.36666 18.3333C7.05833 17.725 7.49999 16.8333 7.49999 15.8333C7.49999 13.9917 6.00833 12.5 4.16666 12.5ZM4.99999 16.0417C4.99999 16.2583 4.88333 16.4667 4.69999 16.575L3.65833 17.2C3.55833 17.2667 3.44166 17.2917 3.33333 17.2917C3.12499 17.2917 2.91666 17.1833 2.79999 16.9917C2.62499 16.6917 2.71666 16.3083 3.01666 16.1333L3.75833 15.6917V14.7917C3.74999 14.45 4.03333 14.1667 4.37499 14.1667C4.71666 14.1667 4.99999 14.45 4.99999 14.7917V16.0417Z" fill="#F29E0D"/>
<path id="Vector_2" d="M12.375 3.29165V6.45831H11.125V3.29165C11.125 3.06665 10.925 2.95831 10.7917 2.95831C10.75 2.95831 10.7083 2.96665 10.6667 2.98331L4.05833 5.47498C3.61666 5.64165 3.33333 6.05831 3.33333 6.53331V7.09165C2.57499 7.65831 2.08333 8.56665 2.08333 9.59165V6.53331C2.08333 5.54165 2.69166 4.65831 3.61666 4.30831L10.2333 1.80831C10.4167 1.74165 10.6083 1.70831 10.7917 1.70831C11.625 1.70831 12.375 2.38331 12.375 3.29165Z" fill="#F29E0D"/>
<path id="Vector_3" d="M17.9167 12.0834V12.9167C17.9167 13.1417 17.7417 13.325 17.5083 13.3334H16.2917C15.85 13.3334 15.45 13.0084 15.4167 12.575C15.3917 12.3167 15.4917 12.075 15.6583 11.9084C15.8083 11.75 16.0167 11.6667 16.2417 11.6667H17.5C17.7417 11.675 17.9167 11.8584 17.9167 12.0834Z" fill="#F29E0D"/>
<path id="Vector_4" d="M16.2333 10.7916H17.0833C17.5417 10.7916 17.9167 10.4166 17.9167 9.95831V9.59165C17.9167 7.86665 16.5083 6.45831 14.7833 6.45831H5.21666C4.50833 6.45831 3.85833 6.69165 3.33333 7.09165C2.57499 7.65831 2.08333 8.56665 2.08333 9.59165V11.075C2.08333 11.3916 2.41666 11.5916 2.71666 11.4916C3.18333 11.3333 3.67499 11.25 4.16666 11.25C6.69166 11.25 8.74999 13.3083 8.74999 15.8333C8.74999 16.4333 8.59166 17.0916 8.34166 17.675C8.20833 17.975 8.41666 18.3333 8.74166 18.3333H14.7833C16.5083 18.3333 17.9167 16.925 17.9167 15.2V15.0416C17.9167 14.5833 17.5417 14.2083 17.0833 14.2083H16.3583C15.5583 14.2083 14.7917 13.7166 14.5833 12.9416C14.4167 12.3083 14.6167 11.6916 15.0333 11.2916C15.3417 10.975 15.7667 10.7916 16.2333 10.7916ZM11.6667 10.625H7.49999C7.15833 10.625 6.87499 10.3416 6.87499 9.99998C6.87499 9.65831 7.15833 9.37498 7.49999 9.37498H11.6667C12.0083 9.37498 12.2917 9.65831 12.2917 9.99998C12.2917 10.3416 12.0083 10.625 11.6667 10.625Z" fill="#F29E0D"/>
</g>
</g>
</svg>
