<svg width="20" height="20" viewBox="0 0 20 20" fill="none" xmlns="http://www.w3.org/2000/svg">
<g id="vuesax/bold/export">
<g id="export">
<path id="Vector" d="M6.50833 1.66669H13.4917C16.525 1.66669 18.3333 3.47502 18.3333 6.50835V13.4834C18.3333 16.525 16.525 18.3334 13.4917 18.3334H6.51667C3.48333 18.3334 1.675 16.525 1.675 13.4917V6.50835C1.66667 3.47502 3.475 1.66669 6.50833 1.66669ZM5.625 10.275C5.625 10.6167 5.90833 10.9 6.25 10.9C6.59167 10.9 6.875 10.6167 6.875 10.275V7.75835L13.3083 14.1917C13.4333 14.3167 13.5917 14.375 13.75 14.375C13.9083 14.375 14.0667 14.3167 14.1917 14.1917C14.4333 13.95 14.4333 13.55 14.1917 13.3084L7.75833 6.87502H10.275C10.6167 6.87502 10.9 6.59169 10.9 6.25002C10.9 5.90835 10.6167 5.62502 10.275 5.62502H6.25C5.90833 5.62502 5.625 5.90835 5.625 6.25002V10.275Z" fill="#6A4CDF"/>
</g>
</g>
</svg>
