<svg width="25" height="24" viewBox="0 0 25 24" fill="none" xmlns="http://www.w3.org/2000/svg">
<path d="M11.9111 16.4125L11.8805 16.4431L11.2763 17.0473L9.66008 18.6636C9.40216 18.9215 9.5016 19.3607 9.81669 19.4836C10.8306 19.8719 11.8796 20.07 12.9565 20.07C14.6361 20.07 16.276 19.58 17.7838 18.6546C19.3212 17.6994 20.7186 16.2874 21.8526 14.4748L21.8533 14.4737C22.2637 13.8214 22.4757 12.9109 22.4641 11.9662C22.4524 11.0224 22.2181 10.1058 21.8036 9.44666L11.9111 16.4125ZM11.9111 16.4125C12.5872 16.5818 13.334 16.5883 14.0981 16.395C15.6871 16.0001 16.9667 14.7204 17.3616 13.1314C17.5548 12.3674 17.5483 11.6206 17.379 10.9446L20.1701 8.15356C20.3782 7.94542 20.7289 7.96463 20.9137 8.19928L20.9136 8.19929L20.9161 8.20235C21.2253 8.58889 21.5243 9.00366 21.8035 9.44661L11.9111 16.4125Z" fill="#6B7280" stroke="#6B7280"/>
<path d="M12.9565 9.64C13.4173 9.64 13.8568 9.78115 14.2292 10.0202L10.9767 13.2727C10.7377 12.9003 10.5965 12.4608 10.5965 12C10.5965 10.705 11.6538 9.64 12.9565 9.64Z" fill="#6B7280" stroke="#6B7280"/>
<path d="M18.4497 5.7997C16.775 4.58132 14.8877 3.92999 12.9565 3.92999C11.2789 3.92999 9.63841 4.42889 8.12811 5.34611C6.62014 6.28189 5.25244 7.65482 4.12825 9.4186L18.4497 5.7997ZM18.4497 5.7997L15.7987 8.45067M18.4497 5.7997L15.7987 8.45067M15.7987 8.45067C15.0194 7.82215 14.0305 7.45999 12.9565 7.45999C10.4396 7.45999 8.41653 9.49466 8.41653 12C8.41653 13.0763 8.78742 14.064 9.40941 14.841L6.6824 17.5761C5.74742 16.7586 4.88138 15.7486 4.12806 14.5711C3.69026 13.8836 3.45653 12.9524 3.45653 11.995C3.45653 11.0375 3.6903 10.1063 4.12817 9.41873L15.7987 8.45067Z" fill="#6B7280" stroke="#6B7280"/>
<mask id="path-4-inside-1_105_24" fill="white">
<path d="M15.8165 12C15.8165 13.57 14.5365 14.86 12.9565 14.86C12.8965 14.86 12.8465 14.86 12.7865 14.84L15.7965 11.83C15.8165 11.89 15.8165 11.94 15.8165 12Z"/>
</mask>
<path d="M15.8165 12C15.8165 13.57 14.5365 14.86 12.9565 14.86C12.8965 14.86 12.8465 14.86 12.7865 14.84L15.7965 11.83C15.8165 11.89 15.8165 11.94 15.8165 12Z" fill="#6B7280"/>
<path d="M12.7865 14.84L12.0794 14.1329L10.9353 15.277L12.4703 15.7887L12.7865 14.84ZM15.7965 11.83L16.7452 11.5138L16.2335 9.97877L15.0894 11.1229L15.7965 11.83ZM14.8165 12C14.8165 13.02 13.982 13.86 12.9565 13.86V15.86C15.0911 15.86 16.8165 14.12 16.8165 12H14.8165ZM12.9565 13.86C12.9485 13.86 12.9439 13.86 12.9399 13.86C12.9361 13.86 12.9349 13.8599 12.9353 13.8599C12.9359 13.8599 12.9462 13.8602 12.9621 13.8616C12.9991 13.865 13.0488 13.8733 13.1028 13.8913L12.4703 15.7887C12.7027 15.8662 12.9043 15.86 12.9565 15.86V13.86ZM13.4936 15.5471L16.5036 12.5371L15.0894 11.1229L12.0794 14.1329L13.4936 15.5471ZM14.8478 12.1462C14.8299 12.0923 14.8215 12.0426 14.8181 12.0055C14.8167 11.9897 14.8165 11.9794 14.8165 11.9788C14.8165 11.9784 14.8165 11.9796 14.8165 11.9833C14.8165 11.9874 14.8165 11.992 14.8165 12H16.8165C16.8165 11.9478 16.8227 11.7462 16.7452 11.5138L14.8478 12.1462Z" fill="#6B7280" mask="url(#path-4-inside-1_105_24)"/>
<path d="M22.7265 2.23C22.4265 1.93 21.9365 1.93 21.6365 2.23L3.18653 20.69C2.88653 20.99 2.88653 21.48 3.18653 21.78C3.33653 21.92 3.52653 22 3.72653 22C3.92653 22 4.11653 21.92 4.26653 21.77L22.7265 3.31C23.0365 3.01 23.0365 2.53 22.7265 2.23Z" fill="#6B7280"/>
</svg>
