<svg width="20" height="21" viewBox="0 0 20 21" fill="none" xmlns="http://www.w3.org/2000/svg">
<path d="M2 1H18C18.2652 1 18.5196 1.10536 18.7071 1.29289C18.8946 1.48043 19 1.73478 19 2V3.87899C18.9999 4.14418 18.8946 4.39849 18.707 4.58599L12.293 11C12.1055 11.1875 12.0001 11.4418 12 11.707V18.6775C12 18.8294 11.9653 18.9793 11.8987 19.1158C11.8321 19.2523 11.7352 19.3719 11.6155 19.4653C11.4958 19.5588 11.3564 19.6238 11.2078 19.6554C11.0592 19.687 10.9054 19.6843 10.758 19.6475L8.758 19.1475C8.54157 19.0935 8.3494 18.9687 8.21205 18.793C8.0747 18.6172 8.00006 18.4006 8 18.1775V11.707C7.99994 11.4418 7.89455 11.1875 7.707 11L1.293 4.58599C1.10545 4.39849 1.00006 4.14418 1 3.87899V2C1 1.73478 1.10536 1.48043 1.29289 1.29289C1.48043 1.10536 1.73478 1 2 1Z" stroke="#475569" stroke-width="1.5" stroke-linecap="round" stroke-linejoin="round"/>
</svg>
