<svg width="44" height="44" viewBox="0 0 44 44" fill="none" xmlns="http://www.w3.org/2000/svg">
<path d="M16.5 18.3333C18.525 18.3333 20.1666 16.6917 20.1666 14.6667C20.1666 12.6416 18.525 11 16.5 11C14.4749 11 12.8333 12.6416 12.8333 14.6667C12.8333 16.6917 14.4749 18.3333 16.5 18.3333Z" stroke="#18A1F7" stroke-width="2" stroke-linecap="round" stroke-linejoin="round"/>
<path d="M23.8334 3.66675H16.5C7.33335 3.66675 3.66669 7.33341 3.66669 16.5001V27.5001C3.66669 36.6667 7.33335 40.3334 16.5 40.3334H27.5C36.6667 40.3334 40.3334 36.6667 40.3334 27.5001V18.3334" stroke="#18A1F7" stroke-width="2" stroke-linecap="round" stroke-linejoin="round"/>
<path d="M28.875 9.16675H38.9583" stroke="#18A1F7" stroke-width="2" stroke-linecap="round"/>
<path d="M33.9167 14.2083V4.125" stroke="#18A1F7" stroke-width="2" stroke-linecap="round"/>
<path d="M4.89502 34.7416L13.9334 28.6733C15.3817 27.7016 17.4717 27.8116 18.7734 28.9299L19.3784 29.4616C20.8084 30.6899 23.1184 30.6899 24.5484 29.4616L32.175 22.9166C33.605 21.6883 35.915 21.6883 37.345 22.9166L40.3334 25.4833" stroke="#18A1F7" stroke-width="2" stroke-linecap="round" stroke-linejoin="round"/>
</svg>
