<svg width="20" height="20" viewBox="0 0 20 20" fill="none" xmlns="http://www.w3.org/2000/svg">
<g id="vuesax/bold/import">
<g id="import">
<path id="Vector" d="M6.50833 1.66669H13.4917C16.525 1.66669 18.3333 3.47502 18.3333 6.50835V13.4834C18.3333 16.525 16.525 18.3334 13.4917 18.3334H6.51666C3.48333 18.3334 1.675 16.525 1.675 13.4917V6.50835C1.66666 3.47502 3.47499 1.66669 6.50833 1.66669ZM5.39166 6.27502L11.825 12.7084H9.30833C8.96666 12.7084 8.68333 12.9917 8.68333 13.3334C8.68333 13.675 8.96666 13.9584 9.30833 13.9584H13.3333C13.675 13.9584 13.9583 13.675 13.9583 13.3334V9.30835C13.9583 8.96669 13.675 8.68335 13.3333 8.68335C12.9917 8.68335 12.7083 8.96669 12.7083 9.30835V11.825L6.275 5.39169C6.15 5.26669 5.99166 5.20835 5.83333 5.20835C5.675 5.20835 5.51666 5.26669 5.39166 5.39169C5.14999 5.63335 5.14999 6.03335 5.39166 6.27502Z" fill="#18A1F7"/>
</g>
</g>
</svg>
