<svg width="202" height="150" viewBox="0 0 202 150" fill="none" xmlns="http://www.w3.org/2000/svg">
<path d="M109.317 141.727C148.31 141.727 179.92 110.016 179.92 70.8991C179.92 31.7819 148.31 0.0711975 109.317 0.0711975C70.3233 0.0711975 38.7129 31.7819 38.7129 70.8991C38.7129 110.016 70.3233 141.727 109.317 141.727Z" fill="#E1F2FE"/>
<path d="M14.6355 124.285L7.08483 52.4895L103.944 50.9827L111.454 123.023L14.6355 124.285Z" fill="#1B5071"/>
<path d="M7.0848 52.4895L4.24316 55.4216L12.1186 124.53L14.6354 124.285L7.0848 52.4895Z" fill="#236B97"/>
<path d="M111.454 123.023L108.288 123.756L12.1186 124.53L14.6355 124.285L111.454 123.023Z" fill="#2F8EC9"/>
<path d="M18.492 120.05L10.9413 56.236L100.859 55.5844L107.557 119.317L18.492 120.05Z" fill="#236B97"/>
<path d="M11.0225 56.8876L100.291 56.236L106.745 118.788L18.4919 119.928L11.0225 56.8876Z" fill="#35A0E2"/>
<path d="M48.451 124.204L44.7163 133.733H48.4916L52.1857 124.163L48.451 124.204Z" fill="#2F8EC9"/>
<path d="M52.1857 124.163L66.0285 124.082L62.9839 133.733H48.4916L52.1857 124.163Z" fill="#3BB2FB"/>
<path d="M51.5362 126.118L65.785 124.896L66.0286 124.082L52.1857 124.163L51.5362 126.118Z" fill="#2F8EC9"/>
<path d="M79.1813 136.584V133.733H50.3184V136.217L79.1813 136.584Z" fill="#236B97"/>
<path d="M50.3183 133.733H44.4727V136.258H50.3183V133.733Z" fill="#2F8EC9"/>
<path opacity="0.5" d="M30.2165 23.8493L33.0175 27.6774L55.4258 27.5145L54.1268 23.4828L30.2165 23.8493Z" fill="#E0F3FE"/>
<path d="M11.3473 59.7384L100.534 58.5166L106.745 118.788L18.492 120.05L11.3473 59.7384Z" fill="white"/>
<path d="M11.3473 59.7384L11.9156 64.2587L100.981 62.9963L100.534 58.5166L11.3473 59.7384Z" fill="#2C86BC"/>
<path d="M21.5366 100.218L21.1712 96.1861H36.5567V100.218H21.5366Z" fill="#3BB2FB"/>
<path d="M62.8621 67.6796L17.3959 68.1275L17.2335 66.7022L62.6997 66.2542L62.8621 67.6796Z" fill="#E1F2FE"/>
<path d="M98.5044 69.7563L30.1427 70.4486L29.9397 69.0233L98.342 68.331L98.5044 69.7563Z" fill="#E1F2FE"/>
<path d="M98.7886 72.1997L17.9643 72.9735L17.8019 71.5482L98.6262 70.7744L98.7886 72.1997Z" fill="#E1F2FE"/>
<path d="M99.0727 74.6025L18.2484 75.4169L18.086 73.9916L98.9104 73.1771L99.0727 74.6025Z" fill="#E1F2FE"/>
<path d="M99.3569 77.046L18.5326 77.8605L18.3702 76.4352L99.1945 75.6207L99.3569 77.046Z" fill="#E1F2FE"/>
<path d="M99.6411 79.4893L18.8167 80.2631L18.6544 78.8378L99.4787 78.0233L99.6411 79.4893Z" fill="#E1F2FE"/>
<path d="M99.9252 81.892L19.1009 82.7065L18.9385 81.2812L99.7629 80.4667L99.9252 81.892Z" fill="#E1F2FE"/>
<path d="M100.209 84.3354L19.3851 85.1092L19.2227 83.6839L100.047 82.9101L100.209 84.3354Z" fill="#E1F2FE"/>
<path d="M100.494 86.738L19.6692 87.5525L19.5068 86.1272L100.331 85.3127L100.494 86.738Z" fill="#E1F2FE"/>
<path d="M100.778 89.1815L19.9534 89.9959L19.791 88.5706L100.615 87.7561L100.778 89.1815Z" fill="#E1F2FE"/>
<path d="M101.062 91.625L20.2375 92.3988L20.0751 90.9734L100.899 90.159L101.062 91.625Z" fill="#E1F2FE"/>
<path d="M73.7415 94.3127L20.5217 94.8421L20.3593 93.4168L73.5791 92.8874L73.7415 94.3127Z" fill="#E1F2FE"/>
<path d="M17.2335 66.702L17.5583 69.797H22.8356L22.6326 66.6613L17.2335 66.702Z" fill="#3BB2FB"/>
<path d="M23.0386 117.81L22.6326 113.575L104.309 112.842V116.833L23.0386 117.81Z" fill="#E1F2FE"/>
<path d="M16.1374 62.6705L15.8939 61.2044L47.0301 60.5936L47.2737 62.1818L16.1374 62.6705Z" fill="white"/>
<path d="M42.037 112.028L40.8597 96.1861H56.4482L57.0571 112.028H42.037Z" fill="#E1F2FE"/>
<path d="M58.6403 112.028L57.463 96.1861H73.0514L73.6604 112.028H58.6403Z" fill="#E1F2FE"/>
<path d="M81.6576 112.028L80.4803 96.1861H96.0687L96.6777 112.028H81.6576Z" fill="#E1F2FE"/>
<path d="M17.8277 136.381V141.001L183.229 142.727V135.772L17.8277 136.381Z" fill="#C2E7FE"/>
<path d="M17.4442 136.521H117.866V141.487L17.4442 141.085V136.521Z" fill="#236B97"/>
<path d="M39.9666 121.892H41.5904C41.5904 121.892 58.7214 123.195 66.8404 129.915L66.3532 136.675H65.8255L39.9666 121.892Z" fill="#3BB2FB"/>
<path d="M18.0861 136.838L16.1376 122.991C16.1376 122.991 31.4418 124.458 42.6866 129.67L42.24 136.797L18.0861 136.838Z" fill="#1B5071"/>
<path d="M16.0969 122.992L39.9666 121.892C39.9666 121.892 56.6917 123.032 65.8662 129.915L42.6865 129.629C42.6865 129.629 29.3714 124.661 16.0969 122.992Z" fill="#35A0E2"/>
<path d="M65.8661 129.915V136.675L42.2399 136.756L42.6865 129.629L65.8661 129.915Z" fill="#2F8EC9"/>
<path d="M16.0969 122.991L18.6949 122.869C18.6949 122.869 33.3497 125.516 42.6459 129.629L42.1993 136.756H41.7528L41.9152 129.589C41.9558 129.589 31.2793 124.987 16.0969 122.991Z" fill="#3BB2FB"/>
<path d="M20.7247 122.991L31.6853 124.987L52.2263 124.417C52.2263 124.417 46.5836 122.584 40.2102 122.136L20.7247 122.991Z" fill="#E1F2FE"/>
<path d="M41.8746 126.657H38.3023C38.0181 126.657 37.531 126.575 37.2062 126.453L35.1359 125.72C34.8111 125.598 34.7705 125.517 35.0547 125.517H38.627C38.9112 125.517 39.3983 125.598 39.7231 125.72L41.7934 126.453C42.1182 126.535 42.1588 126.657 41.8746 126.657Z" fill="#2F8EC9"/>
<path d="M48.5727 126.698H45.0004C44.7162 126.698 44.2291 126.616 43.9043 126.494L41.834 125.761C41.5092 125.639 41.4686 125.557 41.7528 125.557H45.3251C45.6093 125.557 46.0964 125.639 46.4212 125.761L48.4915 126.494C48.8163 126.616 48.8569 126.698 48.5727 126.698Z" fill="#2F8EC9"/>
<path d="M54.9461 126.738H51.3738C51.0896 126.738 50.6025 126.657 50.2777 126.535L48.2074 125.802C47.8826 125.679 47.842 125.598 48.1262 125.598H51.6985C51.9827 125.598 52.4698 125.679 52.7946 125.802L54.8649 126.535C55.1897 126.657 55.2303 126.738 54.9461 126.738Z" fill="#2F8EC9"/>
<path d="M45.8529 128.041H42.2806C41.9964 128.041 41.5093 127.96 41.1845 127.838L39.1142 127.105C38.7894 126.983 38.7488 126.901 39.033 126.901H42.6054C42.8895 126.901 43.3767 126.983 43.7014 127.105L45.7718 127.838C46.0965 127.919 46.1371 128.041 45.8529 128.041Z" fill="#2F8EC9"/>
<path d="M52.5511 128.082H48.9788C48.6946 128.082 48.2075 128.001 47.8827 127.879L45.8124 127.146C45.4876 127.023 45.447 126.942 45.7312 126.942H49.3035C49.5877 126.942 50.0748 127.023 50.3996 127.146L52.4699 127.879C52.7947 128.001 52.8353 128.082 52.5511 128.082Z" fill="#2F8EC9"/>
<path d="M58.9244 128.123H55.3521C55.0679 128.123 54.5808 128.042 54.256 127.919L52.1857 127.186C51.8609 127.064 51.8203 126.983 52.1045 126.983H55.6768C55.961 126.983 56.4481 127.064 56.7729 127.186L58.8432 127.919C59.1274 128.042 59.168 128.123 58.9244 128.123Z" fill="#2F8EC9"/>
<path d="M49.8312 129.426H46.2588C45.9747 129.426 45.4875 129.345 45.1628 129.222L43.0924 128.489C42.7677 128.367 42.7271 128.286 43.0112 128.286H46.5836C46.8678 128.286 47.3549 128.367 47.6797 128.489L49.75 129.222C50.0747 129.304 50.1153 129.426 49.8312 129.426Z" fill="#35A0E2"/>
<path d="M56.5294 129.467H52.957C52.6729 129.467 52.1857 129.385 51.861 129.263L49.7906 128.53C49.4659 128.408 49.4253 128.327 49.7094 128.327H53.2818C53.5659 128.327 54.0531 128.408 54.3778 128.53L56.4482 129.263C56.7729 129.385 56.8135 129.467 56.5294 129.467Z" fill="#2F8EC9"/>
<path d="M62.8621 129.508H59.2898C59.0056 129.508 58.5185 129.426 58.1937 129.304L56.1234 128.571C55.7986 128.449 55.758 128.367 56.0422 128.367H59.6145C59.8987 128.367 60.3858 128.449 60.7106 128.571L62.7809 129.304C63.1057 129.426 63.1463 129.508 62.8621 129.508Z" fill="#2F8EC9"/>
<path d="M41.8746 126.616H38.3023C38.0181 126.616 37.531 126.535 37.2062 126.413L35.1359 125.68C34.8111 125.557 34.7705 125.476 35.0547 125.476H38.627C38.9112 125.476 39.3983 125.557 39.7231 125.68L41.7934 126.413C42.1182 126.535 42.1588 126.616 41.8746 126.616Z" fill="#2F8EC9"/>
<path d="M48.5727 126.657H45.0004C44.7162 126.657 44.2291 126.576 43.9043 126.453L41.834 125.72C41.5092 125.598 41.4686 125.517 41.7528 125.517H45.3251C45.6093 125.517 46.0964 125.598 46.4212 125.72L48.4915 126.453C48.8163 126.576 48.8569 126.657 48.5727 126.657Z" fill="#2F8EC9"/>
<path d="M54.9461 126.698H51.3738C51.0896 126.698 50.6025 126.616 50.2777 126.494L48.2074 125.761C47.8826 125.639 47.842 125.557 48.1262 125.557H51.6985C51.9827 125.557 52.4698 125.639 52.7946 125.761L54.8649 126.494C55.1897 126.616 55.2303 126.698 54.9461 126.698Z" fill="#2F8EC9"/>
<path d="M45.8529 128.001H42.2806C41.9964 128.001 41.5093 127.919 41.1845 127.797L39.1142 127.064C38.7894 126.942 38.7488 126.861 39.033 126.861H42.6054C42.8895 126.861 43.3767 126.942 43.7014 127.064L45.7718 127.797C46.0965 127.919 46.1371 128.001 45.8529 128.001Z" fill="#2F8EC9"/>
<path d="M52.5511 128.042H48.9788C48.6946 128.042 48.2075 127.96 47.8827 127.838L45.8124 127.105C45.4876 126.983 45.447 126.901 45.7312 126.901H49.3035C49.5877 126.901 50.0748 126.983 50.3996 127.105L52.4699 127.838C52.7947 127.96 52.8353 128.042 52.5511 128.042Z" fill="#2F8EC9"/>
<path d="M58.9244 128.082H55.3521C55.0679 128.082 54.5808 128.001 54.256 127.879L52.1857 127.146C51.8609 127.024 51.8203 126.942 52.1045 126.942H55.6768C55.961 126.942 56.4481 127.024 56.7729 127.146L58.8432 127.879C59.1274 128.001 59.168 128.082 58.9244 128.082Z" fill="#2F8EC9"/>
<path d="M49.8312 129.385H46.2588C45.9747 129.385 45.4875 129.304 45.1628 129.182L43.0924 128.449C42.7677 128.327 42.7271 128.245 43.0112 128.245H46.5836C46.8678 128.245 47.3549 128.327 47.6797 128.449L49.75 129.182C50.0747 129.304 50.1153 129.385 49.8312 129.385Z" fill="#35A0E2"/>
<path d="M56.5294 129.426H52.957C52.6729 129.426 52.1857 129.345 51.861 129.222L49.7906 128.489C49.4659 128.367 49.4253 128.286 49.7094 128.286H53.2818C53.5659 128.286 54.0531 128.367 54.3778 128.489L56.4482 129.222C56.7729 129.345 56.8135 129.426 56.5294 129.426Z" fill="#2F8EC9"/>
<path d="M62.8621 129.467H59.2898C59.0056 129.467 58.5185 129.385 58.1937 129.263L56.1234 128.53C55.7986 128.408 55.758 128.327 56.0422 128.327H59.6145C59.8987 128.327 60.3858 128.408 60.7106 128.53L62.7809 129.263C63.1057 129.385 63.1463 129.467 62.8621 129.467Z" fill="#2F8EC9"/>
<path d="M41.8746 126.575H38.3023C38.0181 126.575 37.531 126.494 37.2062 126.372L35.1359 125.639C34.8111 125.517 34.7705 125.435 35.0547 125.435H38.627C38.9112 125.435 39.3983 125.517 39.7231 125.639L41.7934 126.372C42.1182 126.494 42.1588 126.575 41.8746 126.575Z" fill="#2F8EC9"/>
<path d="M48.5727 126.616H45.0004C44.7162 126.616 44.2291 126.535 43.9043 126.413L41.834 125.68C41.5092 125.557 41.4686 125.476 41.7528 125.476H45.3251C45.6093 125.476 46.0964 125.557 46.4212 125.68L48.4915 126.413C48.8163 126.535 48.8569 126.616 48.5727 126.616Z" fill="#2F8EC9"/>
<path d="M54.9461 126.657H51.3738C51.0896 126.657 50.6025 126.575 50.2777 126.453L48.2074 125.72C47.8826 125.598 47.842 125.517 48.1262 125.517H51.6985C51.9827 125.517 52.4698 125.598 52.7946 125.72L54.8649 126.453C55.1897 126.575 55.2303 126.657 54.9461 126.657Z" fill="#2F8EC9"/>
<path d="M45.8529 127.96H42.2806C41.9964 127.96 41.5093 127.879 41.1845 127.756L39.1142 127.023C38.7894 126.901 38.7488 126.82 39.033 126.82H42.6054C42.8895 126.82 43.3767 126.901 43.7014 127.023L45.7718 127.756C46.0965 127.879 46.1371 127.96 45.8529 127.96Z" fill="#2F8EC9"/>
<path d="M52.5511 128.001H48.9788C48.6946 128.001 48.2075 127.919 47.8827 127.797L45.8124 127.064C45.4876 126.942 45.447 126.861 45.7312 126.861H49.3035C49.5877 126.861 50.0748 126.942 50.3996 127.064L52.4699 127.797C52.7947 127.919 52.8353 128.001 52.5511 128.001Z" fill="#2F8EC9"/>
<path d="M58.9244 128.042H55.3521C55.0679 128.042 54.5808 127.96 54.256 127.838L52.1857 127.105C51.8609 126.983 51.8203 126.901 52.1045 126.901H55.6768C55.961 126.901 56.4481 126.983 56.7729 127.105L58.8432 127.838C59.1274 127.96 59.168 128.042 58.9244 128.042Z" fill="#2F8EC9"/>
<path d="M49.8312 129.345H46.2588C45.9747 129.345 45.4875 129.263 45.1628 129.141L43.0924 128.408C42.7677 128.286 42.7271 128.204 43.0112 128.204H46.5836C46.8678 128.204 47.3549 128.286 47.6797 128.408L49.75 129.141C50.0747 129.263 50.1153 129.345 49.8312 129.345Z" fill="#35A0E2"/>
<path d="M56.5294 129.385H52.957C52.6729 129.385 52.1857 129.304 51.861 129.182L49.7906 128.449C49.4659 128.326 49.4253 128.245 49.7094 128.245H53.2818C53.5659 128.245 54.0531 128.326 54.3778 128.449L56.4482 129.182C56.7729 129.304 56.8135 129.385 56.5294 129.385Z" fill="#2F8EC9"/>
<path d="M62.8621 129.426H59.2898C59.0056 129.426 58.5185 129.345 58.1937 129.222L56.1234 128.489C55.7986 128.367 55.758 128.286 56.0422 128.286H59.6145C59.8987 128.286 60.3858 128.367 60.7106 128.489L62.7809 129.222C63.1057 129.345 63.1463 129.426 62.8621 129.426Z" fill="#2F8EC9"/>
<path d="M41.8746 126.535H38.3023C38.0181 126.535 37.531 126.453 37.2062 126.331L35.1359 125.598C34.8111 125.476 34.7705 125.394 35.0547 125.394H38.627C38.9112 125.394 39.3983 125.476 39.7231 125.598L41.7934 126.331C42.1182 126.453 42.1588 126.535 41.8746 126.535Z" fill="#2F8EC9"/>
<path d="M48.5727 126.575H45.0004C44.7162 126.575 44.2291 126.494 43.9043 126.372L41.834 125.639C41.5092 125.517 41.4686 125.435 41.7528 125.435H45.3251C45.6093 125.435 46.0964 125.517 46.4212 125.639L48.4915 126.372C48.8163 126.494 48.8569 126.575 48.5727 126.575Z" fill="#2F8EC9"/>
<path d="M54.9461 126.616H51.3738C51.0896 126.616 50.6025 126.535 50.2777 126.413L48.2074 125.68C47.8826 125.557 47.842 125.476 48.1262 125.476H51.6985C51.9827 125.476 52.4698 125.557 52.7946 125.68L54.8649 126.413C55.1897 126.535 55.2303 126.616 54.9461 126.616Z" fill="#2F8EC9"/>
<path d="M45.8529 127.919H42.2806C41.9964 127.919 41.5093 127.838 41.1845 127.716L39.1142 126.983C38.7894 126.861 38.7488 126.779 39.033 126.779H42.6054C42.8895 126.779 43.3767 126.861 43.7014 126.983L45.7718 127.716C46.0965 127.838 46.1371 127.919 45.8529 127.919Z" fill="#2F8EC9"/>
<path d="M52.5511 127.96H48.9788C48.6946 127.96 48.2075 127.879 47.8827 127.756L45.8124 127.023C45.4876 126.901 45.447 126.82 45.7312 126.82H49.3035C49.5877 126.82 50.0748 126.901 50.3996 127.023L52.4699 127.756C52.7947 127.879 52.8353 127.96 52.5511 127.96Z" fill="#2F8EC9"/>
<path d="M58.9244 128.001H55.3521C55.0679 128.001 54.5808 127.919 54.256 127.797L52.1857 127.064C51.8609 126.942 51.8203 126.861 52.1045 126.861H55.6768C55.961 126.861 56.4481 126.942 56.7729 127.064L58.8432 127.797C59.1274 127.919 59.168 128.001 58.9244 128.001Z" fill="#2F8EC9"/>
<path d="M49.8312 129.304H46.2588C45.9747 129.304 45.4875 129.222 45.1628 129.1L43.0924 128.367C42.7677 128.245 42.7271 128.164 43.0112 128.164H46.5836C46.8678 128.164 47.3549 128.245 47.6797 128.367L49.75 129.1C50.0747 129.222 50.1153 129.304 49.8312 129.304Z" fill="#35A0E2"/>
<path d="M56.5294 129.345H52.957C52.6729 129.345 52.1857 129.263 51.861 129.141L49.7906 128.408C49.4659 128.286 49.4253 128.204 49.7094 128.204H53.2818C53.5659 128.204 54.0531 128.286 54.3778 128.408L56.4482 129.141C56.7729 129.263 56.8135 129.345 56.5294 129.345Z" fill="#2F8EC9"/>
<path d="M62.8621 129.385H59.2898C59.0056 129.385 58.5185 129.304 58.1937 129.182L56.1234 128.449C55.7986 128.327 55.758 128.245 56.0422 128.245H59.6145C59.8987 128.245 60.3858 128.327 60.7106 128.449L62.7809 129.182C63.1057 129.304 63.1463 129.385 62.8621 129.385Z" fill="#2F8EC9"/>
<path d="M41.8746 126.494H38.3023C38.0181 126.494 37.531 126.412 37.2062 126.29L35.1359 125.557C34.8111 125.435 34.7705 125.354 35.0547 125.354H38.627C38.9112 125.354 39.3983 125.435 39.7231 125.557L41.7934 126.29C42.1182 126.412 42.1588 126.494 41.8746 126.494Z" fill="#2F8EC9"/>
<path d="M48.5727 126.535H45.0004C44.7162 126.535 44.2291 126.453 43.9043 126.331L41.834 125.598C41.5092 125.476 41.4686 125.394 41.7528 125.394H45.3251C45.6093 125.394 46.0964 125.476 46.4212 125.598L48.4915 126.331C48.8163 126.453 48.8569 126.575 48.5727 126.535Z" fill="#2F8EC9"/>
<path d="M54.9461 126.616H51.3738C51.0896 126.616 50.6025 126.535 50.2777 126.412L48.2074 125.679C47.8826 125.557 47.842 125.476 48.1262 125.476H51.6985C51.9827 125.476 52.4698 125.557 52.7946 125.679L54.8649 126.412C55.1897 126.494 55.2303 126.616 54.9461 126.616Z" fill="#2F8EC9"/>
<path d="M45.8529 127.878H42.2806C41.9964 127.878 41.5093 127.797 41.1845 127.675L39.1142 126.942C38.7894 126.82 38.7488 126.738 39.033 126.738H42.6054C42.8895 126.738 43.3767 126.82 43.7014 126.942L45.7718 127.675C46.0965 127.797 46.1371 127.878 45.8529 127.878Z" fill="#2F8EC9"/>
<path d="M52.5511 127.919H48.9788C48.6946 127.919 48.2075 127.838 47.8827 127.716L45.8124 126.983C45.4876 126.86 45.447 126.779 45.7312 126.779H49.3035C49.5877 126.779 50.0748 126.86 50.3996 126.983L52.4699 127.716C52.7947 127.838 52.8353 127.96 52.5511 127.919Z" fill="#2F8EC9"/>
<path d="M58.9244 128.001H55.3521C55.0679 128.001 54.5808 127.919 54.256 127.797L52.1857 127.064C51.8609 126.942 51.8203 126.861 52.1045 126.861H55.6768C55.961 126.861 56.4481 126.942 56.7729 127.064L58.8432 127.797C59.1274 127.879 59.168 128.001 58.9244 128.001Z" fill="#2F8EC9"/>
<path d="M49.8312 129.263H46.2588C45.9747 129.263 45.4875 129.182 45.1628 129.059L43.0924 128.326C42.7677 128.204 42.7271 128.123 43.0112 128.123H46.5836C46.8678 128.123 47.3549 128.204 47.6797 128.326L49.75 129.059C50.0747 129.182 50.1153 129.263 49.8312 129.263Z" fill="#35A0E2"/>
<path d="M56.5294 129.304H52.957C52.6729 129.304 52.1857 129.222 51.861 129.1L49.7906 128.367C49.4659 128.245 49.4253 128.164 49.7094 128.164H53.2818C53.5659 128.164 54.0531 128.245 54.3778 128.367L56.4482 129.1C56.7729 129.222 56.8135 129.345 56.5294 129.304Z" fill="#2F8EC9"/>
<path d="M62.8621 129.385H59.2898C59.0056 129.385 58.5185 129.304 58.1937 129.182L56.1234 128.449C55.7986 128.326 55.758 128.245 56.0422 128.245H59.6145C59.8987 128.245 60.3858 128.326 60.7106 128.449L62.7809 129.182C63.1057 129.263 63.1463 129.385 62.8621 129.385Z" fill="#2F8EC9"/>
<path d="M41.8746 126.453H38.3023C38.0181 126.453 37.531 126.372 37.2062 126.25L35.1359 125.517C34.8111 125.394 34.7705 125.313 35.0547 125.313H38.627C38.9112 125.313 39.3983 125.394 39.7231 125.517L41.7934 126.25C42.1182 126.372 42.1588 126.453 41.8746 126.453Z" fill="#2F8EC9"/>
<path d="M48.5727 126.535H45.0004C44.7162 126.535 44.2291 126.453 43.9043 126.331L41.834 125.598C41.5092 125.476 41.4686 125.394 41.7528 125.394H45.3251C45.6093 125.394 46.0964 125.476 46.4212 125.598L48.4915 126.331C48.8163 126.412 48.8569 126.535 48.5727 126.535Z" fill="#2F8EC9"/>
<path d="M54.9461 126.575H51.3738C51.0896 126.575 50.6025 126.494 50.2777 126.372L48.2074 125.639C47.8826 125.516 47.842 125.435 48.1262 125.435H51.6985C51.9827 125.435 52.4698 125.516 52.7946 125.639L54.8649 126.372C55.1897 126.494 55.2303 126.575 54.9461 126.575Z" fill="#2F8EC9"/>
<path d="M45.8529 127.838H42.2806C41.9964 127.838 41.5093 127.756 41.1845 127.634L39.1142 126.901C38.7894 126.779 38.7488 126.697 39.033 126.697H42.6054C42.8895 126.697 43.3767 126.779 43.7014 126.901L45.7718 127.634C46.0965 127.756 46.1371 127.838 45.8529 127.838Z" fill="#2F8EC9"/>
<path d="M52.5511 127.919H48.9788C48.6946 127.919 48.2075 127.838 47.8827 127.716L45.8124 126.983C45.4876 126.861 45.447 126.779 45.7312 126.779H49.3035C49.5877 126.779 50.0748 126.861 50.3996 126.983L52.4699 127.716C52.7947 127.797 52.8353 127.919 52.5511 127.919Z" fill="#2F8EC9"/>
<path d="M58.9244 127.96H55.3521C55.0679 127.96 54.5808 127.879 54.256 127.756L52.1857 127.023C51.8609 126.901 51.8203 126.82 52.1045 126.82H55.6768C55.961 126.82 56.4481 126.901 56.7729 127.023L58.8432 127.756C59.1274 127.879 59.168 127.96 58.9244 127.96Z" fill="#2F8EC9"/>
<path d="M49.8312 129.222H46.2588C45.9747 129.222 45.4875 129.141 45.1628 129.019L43.0924 128.286C42.7677 128.164 42.7271 128.082 43.0112 128.082H46.5836C46.8678 128.082 47.3549 128.164 47.6797 128.286L49.75 129.019C50.0747 129.141 50.1153 129.222 49.8312 129.222Z" fill="#35A0E2"/>
<path d="M56.5294 129.304H52.957C52.6729 129.304 52.1857 129.222 51.861 129.1L49.7906 128.367C49.4659 128.245 49.4253 128.164 49.7094 128.164H53.2818C53.5659 128.164 54.0531 128.245 54.3778 128.367L56.4482 129.1C56.7729 129.182 56.8135 129.304 56.5294 129.304Z" fill="#2F8EC9"/>
<path d="M62.8621 129.345H59.2898C59.0056 129.345 58.5185 129.263 58.1937 129.141L56.1234 128.408C55.7986 128.286 55.758 128.204 56.0422 128.204H59.6145C59.8987 128.204 60.3858 128.286 60.7106 128.408L62.7809 129.141C63.1057 129.222 63.1463 129.345 62.8621 129.345Z" fill="#2F8EC9"/>
<path d="M41.8746 126.453H38.3023C38.0181 126.453 37.531 126.372 37.2062 126.25L35.1359 125.517C34.8111 125.394 34.7705 125.313 35.0547 125.313H38.627C38.9112 125.313 39.3983 125.394 39.7231 125.517L41.7934 126.25C42.1182 126.331 42.1588 126.453 41.8746 126.453Z" fill="#2F8EC9"/>
<path d="M48.5727 126.494H45.0004C44.7162 126.494 44.2291 126.412 43.9043 126.29L41.834 125.557C41.5092 125.435 41.4686 125.354 41.7528 125.354H45.3251C45.6093 125.354 46.0964 125.435 46.4212 125.557L48.4915 126.29C48.8163 126.412 48.8569 126.494 48.5727 126.494Z" fill="#2F8EC9"/>
<path d="M54.9461 126.535H51.3738C51.0896 126.535 50.6025 126.453 50.2777 126.331L48.2074 125.598C47.8826 125.476 47.842 125.394 48.1262 125.394H51.6985C51.9827 125.394 52.4698 125.476 52.7946 125.598L54.8649 126.331C55.1897 126.453 55.2303 126.535 54.9461 126.535Z" fill="#2F8EC9"/>
<path d="M45.8529 127.797H42.2806C41.9964 127.797 41.5093 127.716 41.1845 127.593L39.1142 126.86C38.7894 126.738 38.7488 126.657 39.033 126.657H42.6054C42.8895 126.657 43.3767 126.738 43.7014 126.86L45.7718 127.593C46.0965 127.716 46.1371 127.838 45.8529 127.797Z" fill="#2F8EC9"/>
<path d="M52.5511 127.879H48.9788C48.6946 127.879 48.2075 127.797 47.8827 127.675L45.8124 126.942C45.4876 126.82 45.447 126.738 45.7312 126.738H49.3035C49.5877 126.738 50.0748 126.82 50.3996 126.942L52.4699 127.675C52.7947 127.797 52.8353 127.879 52.5511 127.879Z" fill="#2F8EC9"/>
<path d="M58.9244 127.919H55.3521C55.0679 127.919 54.5808 127.838 54.256 127.716L52.1857 126.983C51.8609 126.861 51.8203 126.779 52.1045 126.779H55.6768C55.961 126.779 56.4481 126.861 56.7729 126.983L58.8432 127.716C59.1274 127.838 59.168 127.919 58.9244 127.919Z" fill="#2F8EC9"/>
<path d="M49.8312 129.182H46.2588C45.9747 129.182 45.4875 129.1 45.1628 128.978L43.0924 128.245C42.7677 128.123 42.7271 128.041 43.0112 128.041H46.5836C46.8678 128.041 47.3549 128.123 47.6797 128.245L49.75 128.978C50.0747 129.1 50.1153 129.222 49.8312 129.182Z" fill="#35A0E2"/>
<path d="M56.5294 129.263H52.957C52.6729 129.263 52.1857 129.182 51.861 129.06L49.7906 128.327C49.4659 128.204 49.4253 128.123 49.7094 128.123H53.2818C53.5659 128.123 54.0531 128.204 54.3778 128.327L56.4482 129.06C56.7729 129.182 56.8135 129.263 56.5294 129.263Z" fill="#2F8EC9"/>
<path d="M62.8621 129.304H59.2898C59.0056 129.304 58.5185 129.222 58.1937 129.1L56.1234 128.367C55.7986 128.245 55.758 128.164 56.0422 128.164H59.6145C59.8987 128.164 60.3858 128.245 60.7106 128.367L62.7809 129.1C63.1057 129.222 63.1463 129.304 62.8621 129.304Z" fill="#2F8EC9"/>
<path d="M41.8746 126.413H38.3023C38.0181 126.413 37.531 126.331 37.2062 126.209L35.1359 125.476C34.8111 125.354 34.7705 125.272 35.0547 125.272H38.627C38.9112 125.272 39.3983 125.354 39.7231 125.476L41.7934 126.209C42.1182 126.29 42.1588 126.413 41.8746 126.413Z" fill="#2F8EC9"/>
<path d="M48.5727 126.453H45.0004C44.7162 126.453 44.2291 126.372 43.9043 126.25L41.834 125.517C41.5092 125.395 41.4686 125.313 41.7528 125.313H45.3251C45.6093 125.313 46.0964 125.395 46.4212 125.517L48.4915 126.25C48.8163 126.372 48.8569 126.453 48.5727 126.453Z" fill="#2F8EC9"/>
<path d="M54.9461 126.494H51.3738C51.0896 126.494 50.6025 126.413 50.2777 126.291L48.1668 125.558C47.8421 125.435 47.8015 125.354 48.0856 125.354H51.658C51.9421 125.354 52.4293 125.435 52.754 125.558L54.8244 126.291C55.1897 126.413 55.2303 126.494 54.9461 126.494Z" fill="#2F8EC9"/>
<path d="M45.8529 127.797H42.2806C41.9964 127.797 41.5093 127.716 41.1845 127.593L39.1142 126.86C38.7894 126.738 38.7488 126.657 39.033 126.657H42.6054C42.8895 126.657 43.3767 126.738 43.7014 126.86L45.7718 127.593C46.0965 127.675 46.1371 127.797 45.8529 127.797Z" fill="#2F8EC9"/>
<path d="M52.5511 127.838H48.9788C48.6946 127.838 48.2075 127.756 47.8827 127.634L45.8124 126.901C45.4876 126.779 45.447 126.698 45.7312 126.698H49.3035C49.5877 126.698 50.0748 126.779 50.3996 126.901L52.4699 127.634C52.7947 127.756 52.8353 127.838 52.5511 127.838Z" fill="#2F8EC9"/>
<path d="M58.9244 127.879H55.3521C55.0679 127.879 54.5808 127.797 54.256 127.675L52.1857 126.942C51.8609 126.82 51.8203 126.738 52.1045 126.738H55.6768C55.961 126.738 56.4481 126.82 56.7729 126.942L58.8432 127.675C59.1274 127.797 59.168 127.879 58.9244 127.879Z" fill="#2F8EC9"/>
<path d="M49.8312 129.182H46.2588C45.9747 129.182 45.4875 129.1 45.1628 128.978L43.0924 128.245C42.7677 128.123 42.7271 128.041 43.0112 128.041H46.5836C46.8678 128.041 47.3549 128.123 47.6797 128.245L49.75 128.978C50.0747 129.059 50.1153 129.182 49.8312 129.182Z" fill="#35A0E2"/>
<path d="M56.5294 129.222H52.957C52.6729 129.222 52.1857 129.141 51.861 129.019L49.7906 128.286C49.4659 128.164 49.4253 128.082 49.7094 128.082H53.2818C53.5659 128.082 54.0531 128.164 54.3778 128.286L56.4482 129.019C56.7729 129.141 56.8135 129.222 56.5294 129.222Z" fill="#2F8EC9"/>
<path d="M62.8621 129.263H59.2898C59.0056 129.263 58.5185 129.182 58.1937 129.06L56.1234 128.327C55.7986 128.204 55.758 128.123 56.0422 128.123H59.6145C59.8987 128.123 60.3858 128.204 60.7106 128.327L62.7809 129.06C63.1057 129.182 63.1463 129.263 62.8621 129.263Z" fill="#2F8EC9"/>
<path d="M41.8746 126.372H38.3023C38.0181 126.372 37.531 126.29 37.2062 126.168L35.1359 125.435C34.8111 125.313 34.7705 125.232 35.0547 125.232H38.627C38.9112 125.232 39.3983 125.313 39.7231 125.435L41.7934 126.168C42.1182 126.29 42.1588 126.372 41.8746 126.372Z" fill="#2F8EC9"/>
<path d="M48.5727 126.413H45.0004C44.7162 126.413 44.2291 126.331 43.9043 126.209L41.834 125.476C41.5092 125.354 41.4686 125.272 41.7528 125.272H45.3251C45.6093 125.272 46.0964 125.354 46.4212 125.476L48.4915 126.209C48.8163 126.331 48.8569 126.413 48.5727 126.413Z" fill="#2F8EC9"/>
<path d="M54.9461 126.454H51.3738C51.0896 126.454 50.6025 126.372 50.2777 126.25L48.2074 125.517C47.8826 125.395 47.842 125.313 48.1262 125.313H51.6985C51.9827 125.313 52.4698 125.395 52.7946 125.517L54.8649 126.25C55.1897 126.372 55.2303 126.454 54.9461 126.454Z" fill="#2F8EC9"/>
<path d="M45.8529 127.756H42.2806C41.9964 127.756 41.5093 127.675 41.1845 127.553L39.1142 126.82C38.7894 126.698 38.7488 126.616 39.033 126.616H42.6054C42.8895 126.616 43.3767 126.698 43.7014 126.82L45.7718 127.553C46.0965 127.675 46.1371 127.756 45.8529 127.756Z" fill="#2F8EC9"/>
<path d="M52.5511 127.797H48.9788C48.6946 127.797 48.2075 127.716 47.8827 127.594L45.8124 126.861C45.4876 126.738 45.447 126.657 45.7312 126.657H49.3035C49.5877 126.657 50.0748 126.738 50.3996 126.861L52.4699 127.594C52.7947 127.716 52.8353 127.797 52.5511 127.797Z" fill="#2F8EC9"/>
<path d="M58.9244 127.838H55.3521C55.0679 127.838 54.5808 127.757 54.256 127.634L52.1857 126.901C51.8609 126.779 51.8203 126.698 52.1045 126.698H55.6768C55.961 126.698 56.4481 126.779 56.7729 126.901L58.8432 127.634C59.1274 127.757 59.168 127.838 58.9244 127.838Z" fill="#2F8EC9"/>
<path d="M49.8312 129.141H46.2588C45.9747 129.141 45.4875 129.06 45.1628 128.937L43.0924 128.204C42.7677 128.082 42.7271 128.001 43.0112 128.001H46.5836C46.8678 128.001 47.3549 128.082 47.6797 128.204L49.75 128.937C50.0747 129.06 50.1153 129.141 49.8312 129.141Z" fill="#35A0E2"/>
<path d="M56.5294 129.182H52.957C52.6729 129.182 52.1857 129.1 51.861 128.978L49.7906 128.245C49.4659 128.123 49.4253 128.041 49.7094 128.041H53.2818C53.5659 128.041 54.0531 128.123 54.3778 128.245L56.4482 128.978C56.7729 129.1 56.8135 129.182 56.5294 129.182Z" fill="#2F8EC9"/>
<path d="M62.8621 129.222H59.2898C59.0056 129.222 58.5185 129.141 58.1937 129.019L56.1234 128.286C55.7986 128.164 55.758 128.082 56.0422 128.082H59.6145C59.8987 128.082 60.3858 128.164 60.7106 128.286L62.7809 129.019C63.1057 129.141 63.1463 129.222 62.8621 129.222Z" fill="#2F8EC9"/>
<path d="M41.8746 126.331H38.3023C38.0181 126.331 37.531 126.25 37.2062 126.128L35.1359 125.394C34.8111 125.272 34.7705 125.191 35.0547 125.191H38.627C38.9112 125.191 39.3983 125.272 39.7231 125.394L41.7934 126.128C42.1182 126.25 42.1588 126.331 41.8746 126.331Z" fill="#2F8EC9"/>
<path d="M48.5727 126.372H45.0004C44.7162 126.372 44.2291 126.29 43.9043 126.168L41.834 125.435C41.5092 125.313 41.4686 125.232 41.7528 125.232H45.3251C45.6093 125.232 46.0964 125.313 46.4212 125.435L48.4915 126.168C48.8163 126.29 48.8569 126.372 48.5727 126.372Z" fill="#2F8EC9"/>
<path d="M54.9461 126.413H51.3738C51.0896 126.413 50.6025 126.331 50.2777 126.209L48.2074 125.476C47.8826 125.354 47.842 125.272 48.1262 125.272H51.6985C51.9827 125.272 52.4698 125.354 52.7946 125.476L54.8649 126.209C55.1897 126.331 55.2303 126.413 54.9461 126.413Z" fill="#2F8EC9"/>
<path d="M45.8529 127.716H42.2806C41.9964 127.716 41.5093 127.634 41.1845 127.512L39.1142 126.779C38.7894 126.657 38.7488 126.575 39.033 126.575H42.6054C42.8895 126.575 43.3767 126.657 43.7014 126.779L45.7718 127.512C46.0965 127.634 46.1371 127.716 45.8529 127.716Z" fill="#2F8EC9"/>
<path d="M52.5511 127.756H48.9788C48.6946 127.756 48.2075 127.675 47.8827 127.553L45.8124 126.82C45.4876 126.697 45.447 126.616 45.7312 126.616H49.3035C49.5877 126.616 50.0748 126.697 50.3996 126.82L52.4699 127.553C52.7947 127.675 52.8353 127.756 52.5511 127.756Z" fill="#2F8EC9"/>
<path d="M58.9244 127.797H55.3521C55.0679 127.797 54.5808 127.716 54.256 127.593L52.1857 126.86C51.8609 126.738 51.8203 126.657 52.1045 126.657H55.6768C55.961 126.657 56.4481 126.738 56.7729 126.86L58.8432 127.593C59.1274 127.716 59.168 127.797 58.9244 127.797Z" fill="#2F8EC9"/>
<path d="M49.8312 129.1H46.2588C45.9747 129.1 45.4875 129.019 45.1628 128.897L43.0924 128.164C42.7677 128.041 42.7271 127.96 43.0112 127.96H46.5836C46.8678 127.96 47.3549 128.041 47.6797 128.164L49.75 128.897C50.0747 129.019 50.1153 129.1 49.8312 129.1Z" fill="#35A0E2"/>
<path d="M56.5294 129.141H52.957C52.6729 129.141 52.1857 129.06 51.861 128.937L49.7906 128.204C49.4659 128.082 49.4253 128.001 49.7094 128.001H53.2818C53.5659 128.001 54.0531 128.082 54.3778 128.204L56.4482 128.937C56.7729 129.06 56.8135 129.141 56.5294 129.141Z" fill="#2F8EC9"/>
<path d="M62.8621 129.182H59.2898C59.0056 129.182 58.5185 129.1 58.1937 128.978L56.1234 128.245C55.7986 128.123 55.758 128.041 56.0422 128.041H59.6145C59.8987 128.041 60.3858 128.123 60.7106 128.245L62.7809 128.978C63.1057 129.1 63.1463 129.182 62.8621 129.182Z" fill="#2F8EC9"/>
<path d="M41.8746 126.29H38.3023C38.0181 126.29 37.531 126.209 37.2062 126.087L35.1359 125.354C34.8111 125.231 34.7705 125.15 35.0547 125.15H38.627C38.9112 125.15 39.3983 125.231 39.7231 125.354L41.7934 126.087C42.1182 126.209 42.1588 126.29 41.8746 126.29Z" fill="#2F8EC9"/>
<path d="M48.5727 126.331H45.0004C44.7162 126.331 44.2291 126.25 43.9043 126.128L41.834 125.395C41.5092 125.272 41.4686 125.191 41.7528 125.191H45.3251C45.6093 125.191 46.0964 125.272 46.4212 125.395L48.4915 126.128C48.8163 126.25 48.8569 126.331 48.5727 126.331Z" fill="#2F8EC9"/>
<path d="M54.9461 126.372H51.3738C51.0896 126.372 50.6025 126.29 50.2777 126.168L48.2074 125.435C47.8826 125.313 47.842 125.232 48.1262 125.232H51.6985C51.9827 125.232 52.4698 125.313 52.7946 125.435L54.8649 126.168C55.1897 126.29 55.2303 126.413 54.9461 126.372Z" fill="#2F8EC9"/>
<path d="M45.8529 127.675H42.2806C41.9964 127.675 41.5093 127.594 41.1845 127.471L39.1142 126.738C38.7894 126.616 38.7488 126.535 39.033 126.535H42.6054C42.8895 126.535 43.3767 126.616 43.7014 126.738L45.7718 127.471C46.0965 127.594 46.1371 127.675 45.8529 127.675Z" fill="#2F8EC9"/>
<path d="M52.5511 127.716H48.9788C48.6946 127.716 48.2075 127.634 47.8827 127.512L45.8124 126.779C45.4876 126.657 45.447 126.576 45.7312 126.576H49.3035C49.5877 126.576 50.0748 126.657 50.3996 126.779L52.4699 127.512C52.7947 127.634 52.8353 127.716 52.5511 127.716Z" fill="#2F8EC9"/>
<path d="M58.9244 127.756H55.3521C55.0679 127.756 54.5808 127.675 54.256 127.553L52.1857 126.82C51.8609 126.698 51.8203 126.616 52.1045 126.616H55.6768C55.961 126.616 56.4481 126.698 56.7729 126.82L58.8432 127.553C59.1274 127.675 59.168 127.756 58.9244 127.756Z" fill="#2F8EC9"/>
<path d="M49.8312 129.059H46.2588C45.9747 129.059 45.4875 128.978 45.1628 128.856L43.0924 128.123C42.7677 128.001 42.7271 127.919 43.0112 127.919H46.5836C46.8678 127.919 47.3549 128.001 47.6797 128.123L49.75 128.856C50.0747 128.978 50.1153 129.059 49.8312 129.059Z" fill="#35A0E2"/>
<path d="M56.5294 129.1H52.957C52.6729 129.1 52.1857 129.019 51.861 128.897L49.7906 128.164C49.4659 128.041 49.4253 127.96 49.7094 127.96H53.2818C53.5659 127.96 54.0531 128.041 54.3778 128.164L56.4482 128.897C56.7729 129.019 56.8135 129.1 56.5294 129.1Z" fill="#2F8EC9"/>
<path d="M62.8621 129.141H59.2898C59.0056 129.141 58.5185 129.06 58.1937 128.937L56.1234 128.204C55.7986 128.082 55.758 128.001 56.0422 128.001H59.6145C59.8987 128.001 60.3858 128.082 60.7106 128.204L62.7809 128.937C63.1057 129.06 63.1463 129.141 62.8621 129.141Z" fill="#2F8EC9"/>
<path d="M41.8746 126.25H38.3023C38.0181 126.25 37.531 126.168 37.2062 126.046L35.1359 125.313C34.8111 125.191 34.7705 125.109 35.0547 125.109H38.627C38.9112 125.109 39.3983 125.191 39.7231 125.313L41.7934 126.046C42.1182 126.168 42.1588 126.25 41.8746 126.25Z" fill="#2F8EC9"/>
<path d="M48.5727 126.331H45.0004C44.7162 126.331 44.2291 126.25 43.9043 126.127L41.834 125.394C41.5092 125.272 41.4686 125.191 41.7528 125.191H45.3251C45.6093 125.191 46.0964 125.272 46.4212 125.394L48.4915 126.127C48.8163 126.209 48.8569 126.331 48.5727 126.331Z" fill="#2F8EC9"/>
<path d="M54.9461 126.372H51.3738C51.0896 126.372 50.6025 126.29 50.2777 126.168L48.2074 125.435C47.8826 125.313 47.842 125.231 48.1262 125.231H51.6985C51.9827 125.231 52.4698 125.313 52.7946 125.435L54.8649 126.168C55.1897 126.249 55.2303 126.372 54.9461 126.372Z" fill="#2F8EC9"/>
<path d="M45.8529 127.634H42.2806C41.9964 127.634 41.5093 127.553 41.1845 127.43L39.1142 126.697C38.7894 126.575 38.7488 126.494 39.033 126.494H42.6054C42.8895 126.494 43.3767 126.575 43.7014 126.697L45.7718 127.43C46.0965 127.553 46.1371 127.634 45.8529 127.634Z" fill="#2F8EC9"/>
<path d="M52.5511 127.716H48.9788C48.6946 127.716 48.2075 127.634 47.8827 127.512L45.8124 126.779C45.4876 126.657 45.447 126.575 45.7312 126.575H49.3035C49.5877 126.575 50.0748 126.657 50.3996 126.779L52.4699 127.512C52.7947 127.594 52.8353 127.716 52.5511 127.716Z" fill="#2F8EC9"/>
<path d="M58.9244 127.756H55.3521C55.0679 127.756 54.5808 127.675 54.256 127.553L52.1857 126.82C51.8609 126.697 51.8203 126.616 52.1045 126.616H55.6768C55.961 126.616 56.4481 126.697 56.7729 126.82L58.8432 127.553C59.1274 127.634 59.168 127.756 58.9244 127.756Z" fill="#2F8EC9"/>
<path d="M49.8312 129.019H46.2588C45.9747 129.019 45.4875 128.937 45.1628 128.815L43.0924 128.082C42.7677 127.96 42.7271 127.878 43.0112 127.878H46.5836C46.8678 127.878 47.3549 127.96 47.6797 128.082L49.75 128.815C50.0747 128.937 50.1153 129.019 49.8312 129.019Z" fill="#35A0E2"/>
<path d="M56.5294 129.1H52.957C52.6729 129.1 52.1857 129.019 51.861 128.897L49.7906 128.164C49.4659 128.041 49.4253 127.96 49.7094 127.96H53.2818C53.5659 127.96 54.0531 128.041 54.3778 128.164L56.4482 128.897C56.7729 128.978 56.8135 129.1 56.5294 129.1Z" fill="#2F8EC9"/>
<path d="M62.8621 129.141H59.2898C59.0056 129.141 58.5185 129.06 58.1937 128.937L56.1234 128.204C55.7986 128.082 55.758 128.001 56.0422 128.001H59.6145C59.8987 128.001 60.3858 128.082 60.7106 128.204L62.7809 128.937C63.1057 129.019 63.1463 129.141 62.8621 129.141Z" fill="#2F8EC9"/>
<path d="M41.8746 126.209H38.3023C38.0181 126.209 37.531 126.128 37.2062 126.005L35.1359 125.272C34.8111 125.15 34.7705 125.069 35.0547 125.069H38.627C38.9112 125.069 39.3983 125.15 39.7231 125.272L41.7934 126.005C42.1182 126.128 42.1588 126.209 41.8746 126.209Z" fill="#2F8EC9"/>
<path d="M48.5727 126.291H45.0004C44.7162 126.291 44.2291 126.209 43.9043 126.087L41.834 125.354C41.5092 125.232 41.4686 125.15 41.7528 125.15H45.3251C45.6093 125.15 46.0964 125.232 46.4212 125.354L48.4915 126.087C48.8163 126.168 48.8569 126.291 48.5727 126.291Z" fill="#2F8EC9"/>
<path d="M54.9461 126.331H51.3738C51.0896 126.331 50.6025 126.25 50.2777 126.127L48.2074 125.394C47.8826 125.272 47.842 125.191 48.1262 125.191H51.6985C51.9827 125.191 52.4698 125.272 52.7946 125.394L54.8649 126.127C55.1897 126.25 55.2303 126.331 54.9461 126.331Z" fill="#2F8EC9"/>
<path d="M45.8529 127.593H42.2806C41.9964 127.593 41.5093 127.512 41.1845 127.39L39.1142 126.657C38.7894 126.535 38.7488 126.453 39.033 126.453H42.6054C42.8895 126.453 43.3767 126.535 43.7014 126.657L45.7718 127.39C46.0965 127.512 46.1371 127.593 45.8529 127.593Z" fill="#2F8EC9"/>
<path d="M52.5511 127.675H48.9788C48.6946 127.675 48.2075 127.594 47.8827 127.471L45.8124 126.738C45.4876 126.616 45.447 126.535 45.7312 126.535H49.3035C49.5877 126.535 50.0748 126.616 50.3996 126.738L52.4699 127.471C52.7947 127.553 52.8353 127.675 52.5511 127.675Z" fill="#2F8EC9"/>
<path d="M58.9244 127.716H55.3521C55.0679 127.716 54.5808 127.634 54.256 127.512L52.1857 126.779C51.8609 126.657 51.8203 126.576 52.1045 126.576H55.6768C55.961 126.576 56.4481 126.657 56.7729 126.779L58.8432 127.512C59.1274 127.634 59.168 127.716 58.9244 127.716Z" fill="#2F8EC9"/>
<path d="M49.8312 128.978H46.2588C45.9747 128.978 45.4875 128.897 45.1628 128.774L43.0924 128.041C42.7677 127.919 42.7271 127.838 43.0112 127.838H46.5836C46.8678 127.838 47.3549 127.919 47.6797 128.041L49.75 128.774C50.0747 128.897 50.1153 128.978 49.8312 128.978Z" fill="#35A0E2"/>
<path d="M56.5294 129.06H52.957C52.6729 129.06 52.1857 128.978 51.861 128.856L49.7906 128.123C49.4659 128.001 49.4253 127.919 49.7094 127.919H53.2818C53.5659 127.919 54.0531 128.001 54.3778 128.123L56.4482 128.856C56.7729 128.937 56.8135 129.06 56.5294 129.06Z" fill="#2F8EC9"/>
<path d="M62.8621 129.1H59.2898C59.0056 129.1 58.5185 129.019 58.1937 128.897L56.1234 128.164C55.7986 128.042 55.758 127.96 56.0422 127.96H59.6145C59.8987 127.96 60.3858 128.042 60.7106 128.164L62.7809 128.897C63.1057 129.019 63.1463 129.1 62.8621 129.1Z" fill="#2F8EC9"/>
<path d="M41.8746 126.209H38.3023C38.0181 126.209 37.531 126.128 37.2062 126.005L35.1359 125.272C34.8111 125.15 34.7705 125.069 35.0547 125.069H38.627C38.9112 125.069 39.3983 125.15 39.7231 125.272L41.7934 126.005C42.1182 126.087 42.1588 126.209 41.8746 126.209Z" fill="#2F8EC9"/>
<path d="M48.5727 126.25H45.0004C44.7162 126.25 44.2291 126.168 43.9043 126.046L41.834 125.313C41.5092 125.191 41.4686 125.109 41.7528 125.109H45.3251C45.6093 125.109 46.0964 125.191 46.4212 125.313L48.4915 126.046C48.8163 126.168 48.8569 126.25 48.5727 126.25Z" fill="#2F8EC9"/>
<path d="M54.9461 126.291H51.3738C51.0896 126.291 50.6025 126.209 50.2777 126.087L48.2074 125.354C47.8826 125.232 47.842 125.15 48.1262 125.15H51.6985C51.9827 125.15 52.4698 125.232 52.7946 125.354L54.8649 126.087C55.1897 126.209 55.2303 126.291 54.9461 126.291Z" fill="#2F8EC9"/>
<path d="M45.8529 127.593H42.2806C41.9964 127.593 41.5093 127.512 41.1845 127.39L39.1142 126.657C38.7894 126.535 38.7488 126.453 39.033 126.453H42.6054C42.8895 126.453 43.3767 126.535 43.7014 126.657L45.7718 127.39C46.0965 127.471 46.1371 127.593 45.8529 127.593Z" fill="#2F8EC9"/>
<path d="M52.5511 127.634H48.9788C48.6946 127.634 48.2075 127.553 47.8827 127.431L45.8124 126.698C45.4876 126.575 45.447 126.494 45.7312 126.494H49.3035C49.5877 126.494 50.0748 126.575 50.3996 126.698L52.4699 127.431C52.7947 127.553 52.8353 127.634 52.5511 127.634Z" fill="#2F8EC9"/>
<path d="M58.9244 127.675H55.3521C55.0679 127.675 54.5808 127.594 54.256 127.471L52.1857 126.738C51.8609 126.616 51.8203 126.535 52.1045 126.535H55.6768C55.961 126.535 56.4481 126.616 56.7729 126.738L58.8432 127.471C59.1274 127.594 59.168 127.675 58.9244 127.675Z" fill="#2F8EC9"/>
<path d="M49.8312 128.978H46.2588C45.9747 128.978 45.4875 128.897 45.1628 128.774L43.0924 128.041C42.7677 127.919 42.7271 127.838 43.0112 127.838H46.5836C46.8678 127.838 47.3549 127.919 47.6797 128.041L49.75 128.774C50.0747 128.856 50.1153 128.978 49.8312 128.978Z" fill="#35A0E2"/>
<path d="M56.5294 129.019H52.957C52.6729 129.019 52.1857 128.937 51.861 128.815L49.7906 128.082C49.4659 127.96 49.4253 127.879 49.7094 127.879H53.2818C53.5659 127.879 54.0531 127.96 54.3778 128.082L56.4482 128.815C56.7729 128.937 56.8135 129.019 56.5294 129.019Z" fill="#2F8EC9"/>
<path d="M62.8621 129.06H59.2898C59.0056 129.06 58.5185 128.978 58.1937 128.856L56.1234 128.123C55.7986 128.001 55.758 127.919 56.0422 127.919H59.6145C59.8987 127.919 60.3858 128.001 60.7106 128.123L62.7809 128.856C63.1057 128.978 63.1463 129.06 62.8621 129.06Z" fill="#2F8EC9"/>
<path d="M41.8746 126.168H38.3023C38.0181 126.168 37.531 126.087 37.2062 125.965L35.1359 125.232C34.8111 125.109 34.7705 125.028 35.0547 125.028H38.627C38.9112 125.028 39.3983 125.109 39.7231 125.232L41.7934 125.965C42.1182 126.046 42.1588 126.168 41.8746 126.168Z" fill="#2F8EC9"/>
<path d="M48.5727 126.209H45.0004C44.7162 126.209 44.2291 126.128 43.9043 126.005L41.834 125.272C41.5092 125.15 41.4686 125.069 41.7528 125.069H45.3251C45.6093 125.069 46.0964 125.15 46.4212 125.272L48.4915 126.005C48.8163 126.128 48.8569 126.209 48.5727 126.209Z" fill="#2F8EC9"/>
<path d="M54.9461 126.25H51.3738C51.0896 126.25 50.6025 126.168 50.2777 126.046L48.2074 125.313C47.8826 125.191 47.842 125.109 48.1262 125.109H51.6985C51.9827 125.109 52.4698 125.191 52.7946 125.313L54.8649 126.046C55.1897 126.168 55.2303 126.25 54.9461 126.25Z" fill="#2F8EC9"/>
<path d="M45.8529 127.553H42.2806C41.9964 127.553 41.5093 127.471 41.1845 127.349L39.1142 126.616C38.7894 126.494 38.7488 126.412 39.033 126.412H42.6054C42.8895 126.412 43.3767 126.494 43.7014 126.616L45.7718 127.349C46.0965 127.431 46.1371 127.553 45.8529 127.553Z" fill="#2F8EC9"/>
<path d="M52.5511 127.594H48.9788C48.6946 127.594 48.2075 127.512 47.8827 127.39L45.8124 126.657C45.4876 126.535 45.447 126.453 45.7312 126.453H49.3035C49.5877 126.453 50.0748 126.535 50.3996 126.657L52.4699 127.39C52.7947 127.512 52.8353 127.594 52.5511 127.594Z" fill="#2F8EC9"/>
<path d="M58.9244 127.634H55.3521C55.0679 127.634 54.5808 127.553 54.256 127.431L52.1857 126.698C51.8609 126.575 51.8203 126.494 52.1045 126.494H55.6768C55.961 126.494 56.4481 126.575 56.7729 126.698L58.8432 127.431C59.1274 127.553 59.168 127.634 58.9244 127.634Z" fill="#2F8EC9"/>
<path d="M49.8312 128.937H46.2588C45.9747 128.937 45.4875 128.856 45.1628 128.734L43.0924 128.001C42.7677 127.879 42.7271 127.797 43.0112 127.797H46.5836C46.8678 127.797 47.3549 127.879 47.6797 128.001L49.75 128.734C50.0747 128.815 50.1153 128.937 49.8312 128.937Z" fill="#35A0E2"/>
<path d="M56.5294 128.978H52.957C52.6729 128.978 52.1857 128.897 51.861 128.775L49.7906 128.042C49.4659 127.919 49.4253 127.838 49.7094 127.838H53.2818C53.5659 127.838 54.0531 127.919 54.3778 128.042L56.4482 128.775C56.7729 128.897 56.8135 128.978 56.5294 128.978Z" fill="#2F8EC9"/>
<path d="M62.8621 129.019H59.2898C59.0056 129.019 58.5185 128.937 58.1937 128.815L56.1234 128.082C55.7986 127.96 55.758 127.879 56.0422 127.879H59.6145C59.8987 127.879 60.3858 127.96 60.7106 128.082L62.7809 128.815C63.1057 128.937 63.1463 129.019 62.8621 129.019Z" fill="#2F8EC9"/>
<path d="M41.8746 126.127H38.3023C38.0181 126.127 37.531 126.046 37.2062 125.924L35.1359 125.191C34.8111 125.069 34.7705 124.987 35.0547 124.987H38.627C38.9112 124.987 39.3983 125.069 39.7231 125.191L41.7934 125.924C42.1182 126.046 42.1588 126.127 41.8746 126.127Z" fill="#2F8EC9"/>
<path d="M48.5727 126.168H45.0004C44.7162 126.168 44.2291 126.087 43.9043 125.965L41.834 125.232C41.5092 125.109 41.4686 125.028 41.7528 125.028H45.3251C45.6093 125.028 46.0964 125.109 46.4212 125.232L48.4915 125.965C48.8163 126.087 48.8569 126.168 48.5727 126.168Z" fill="#2F8EC9"/>
<path d="M54.9461 126.209H51.3738C51.0896 126.209 50.6025 126.128 50.2777 126.005L48.2074 125.272C47.8826 125.15 47.842 125.069 48.1262 125.069H51.6985C51.9827 125.069 52.4698 125.15 52.7946 125.272L54.8649 126.005C55.1897 126.128 55.2303 126.209 54.9461 126.209Z" fill="#2F8EC9"/>
<path d="M45.8529 127.512H42.2806C41.9964 127.512 41.5093 127.431 41.1845 127.308L39.1142 126.575C38.7894 126.453 38.7488 126.372 39.033 126.372H42.6054C42.8895 126.372 43.3767 126.453 43.7014 126.575L45.7718 127.308C46.0965 127.431 46.1371 127.512 45.8529 127.512Z" fill="#2F8EC9"/>
<path d="M52.5511 127.553H48.9788C48.6946 127.553 48.2075 127.471 47.8827 127.349L45.8124 126.616C45.4876 126.494 45.447 126.412 45.7312 126.412H49.3035C49.5877 126.412 50.0748 126.494 50.3996 126.616L52.4699 127.349C52.7947 127.471 52.8353 127.553 52.5511 127.553Z" fill="#2F8EC9"/>
<path d="M58.9244 127.593H55.3521C55.0679 127.593 54.5808 127.512 54.256 127.39L52.1857 126.657C51.8609 126.535 51.8203 126.453 52.1045 126.453H55.6768C55.961 126.453 56.4481 126.535 56.7729 126.657L58.8432 127.39C59.1274 127.512 59.168 127.593 58.9244 127.593Z" fill="#2F8EC9"/>
<path d="M49.8312 128.897H46.2588C45.9747 128.897 45.4875 128.815 45.1628 128.693L43.0924 127.96C42.7677 127.838 42.7271 127.756 43.0112 127.756H46.5836C46.8678 127.756 47.3549 127.838 47.6797 127.96L49.75 128.693C50.0747 128.815 50.1153 128.897 49.8312 128.897Z" fill="#35A0E2"/>
<path d="M56.5294 128.937H52.957C52.6729 128.937 52.1857 128.856 51.861 128.734L49.7906 128.001C49.4659 127.878 49.4253 127.797 49.7094 127.797H53.2818C53.5659 127.797 54.0531 127.878 54.3778 128.001L56.4482 128.734C56.7729 128.856 56.8135 128.937 56.5294 128.937Z" fill="#2F8EC9"/>
<path d="M62.8621 128.978H59.2898C59.0056 128.978 58.5185 128.897 58.1937 128.774L56.1234 128.041C55.7986 127.919 55.758 127.838 56.0422 127.838H59.6145C59.8987 127.838 60.3858 127.919 60.7106 128.041L62.7809 128.774C63.1057 128.897 63.1463 128.978 62.8621 128.978Z" fill="#2F8EC9"/>
<path d="M41.8746 126.087H38.3023C38.0181 126.087 37.531 126.005 37.2062 125.883L35.1359 125.15C34.8111 125.028 34.7705 124.947 35.0547 124.947H38.627C38.9112 124.947 39.3983 125.028 39.7231 125.15L41.7934 125.883C42.1182 126.005 42.1588 126.087 41.8746 126.087Z" fill="#2F8EC9"/>
<path d="M48.5727 126.127H45.0004C44.7162 126.127 44.2291 126.046 43.9043 125.924L41.834 125.191C41.5092 125.069 41.4686 124.987 41.7528 124.987H45.3251C45.6093 124.987 46.0964 125.069 46.4212 125.191L48.4915 125.924C48.8163 126.046 48.8569 126.127 48.5727 126.127Z" fill="#2F8EC9"/>
<path d="M54.9461 126.168H51.3738C51.0896 126.168 50.6025 126.087 50.2777 125.965L48.2074 125.232C47.8826 125.109 47.842 125.028 48.1262 125.028H51.6985C51.9827 125.028 52.4698 125.109 52.7946 125.232L54.8649 125.965C55.1897 126.087 55.2303 126.168 54.9461 126.168Z" fill="#2F8EC9"/>
<path d="M45.8529 127.471H42.2806C41.9964 127.471 41.5093 127.39 41.1845 127.268L39.1142 126.535C38.7894 126.413 38.7488 126.331 39.033 126.331H42.6054C42.8895 126.331 43.3767 126.413 43.7014 126.535L45.7718 127.268C46.0965 127.39 46.1371 127.471 45.8529 127.471Z" fill="#2F8EC9"/>
<path d="M52.5511 127.512H48.9788C48.6946 127.512 48.2075 127.431 47.8827 127.308L45.8124 126.575C45.4876 126.453 45.447 126.372 45.7312 126.372H49.3035C49.5877 126.372 50.0748 126.453 50.3996 126.575L52.4699 127.308C52.7947 127.431 52.8353 127.512 52.5511 127.512Z" fill="#2F8EC9"/>
<path d="M58.9244 127.553H55.3521C55.0679 127.553 54.5808 127.471 54.256 127.349L52.1857 126.616C51.8609 126.494 51.8203 126.412 52.1045 126.412H55.6768C55.961 126.412 56.4481 126.494 56.7729 126.616L58.8432 127.349C59.1274 127.471 59.168 127.553 58.9244 127.553Z" fill="#2F8EC9"/>
<path d="M49.8312 128.856H46.2588C45.9747 128.856 45.4875 128.774 45.1628 128.652L43.0924 127.919C42.7677 127.797 42.7271 127.716 43.0112 127.716H46.5836C46.8678 127.716 47.3549 127.797 47.6797 127.919L49.75 128.652C50.0747 128.774 50.1153 128.856 49.8312 128.856Z" fill="#35A0E2"/>
<path d="M56.5294 128.897H52.957C52.6729 128.897 52.1857 128.815 51.861 128.693L49.7906 127.96C49.4659 127.838 49.4253 127.756 49.7094 127.756H53.2818C53.5659 127.756 54.0531 127.838 54.3778 127.96L56.4482 128.693C56.7729 128.815 56.8135 128.897 56.5294 128.897Z" fill="#2F8EC9"/>
<path d="M62.8621 128.937H59.2898C59.0056 128.937 58.5185 128.856 58.1937 128.734L56.1234 128.001C55.7986 127.879 55.758 127.797 56.0422 127.797H59.6145C59.8987 127.797 60.3858 127.879 60.7106 128.001L62.7809 128.734C63.1057 128.856 63.1463 128.937 62.8621 128.937Z" fill="#2F8EC9"/>
<path d="M41.8746 126.046H38.3023C38.0181 126.046 37.531 125.965 37.2062 125.842L35.1359 125.109C34.8111 124.987 34.7705 124.906 35.0547 124.906H38.627C38.9112 124.906 39.3983 124.987 39.7231 125.109L41.7934 125.842C42.1182 125.965 42.1588 126.046 41.8746 126.046Z" fill="#2F8EC9"/>
<path d="M48.5727 126.087H45.0004C44.7162 126.087 44.2291 126.005 43.9043 125.883L41.834 125.15C41.5092 125.028 41.4686 124.947 41.7528 124.947H45.3251C45.6093 124.947 46.0964 125.028 46.4212 125.15L48.4915 125.883C48.8163 126.005 48.8569 126.087 48.5727 126.087Z" fill="#2F8EC9"/>
<path d="M54.9461 126.168H51.3738C51.0896 126.168 50.6025 126.086 50.2777 125.964L48.2074 125.231C47.8826 125.109 47.842 125.028 48.1262 125.028H51.6985C51.9827 125.028 52.4698 125.109 52.7946 125.231L54.8649 125.964C55.1897 126.046 55.2303 126.168 54.9461 126.168Z" fill="#2F8EC9"/>
<path d="M45.8529 127.43H42.2806C41.9964 127.43 41.5093 127.349 41.1845 127.227L39.1142 126.494C38.7894 126.372 38.7488 126.29 39.033 126.29H42.6054C42.8895 126.29 43.3767 126.372 43.7014 126.494L45.7718 127.227C46.0965 127.349 46.1371 127.43 45.8529 127.43Z" fill="#2F8EC9"/>
<path d="M52.5511 127.471H48.9788C48.6946 127.471 48.2075 127.39 47.8827 127.268L45.8124 126.535C45.4876 126.412 45.447 126.331 45.7312 126.331H49.3035C49.5877 126.331 50.0748 126.412 50.3996 126.535L52.4699 127.268C52.7947 127.39 52.8353 127.471 52.5511 127.471Z" fill="#2F8EC9"/>
<path d="M58.9244 127.553H55.3521C55.0679 127.553 54.5808 127.471 54.256 127.349L52.1857 126.616C51.8609 126.494 51.8203 126.412 52.1045 126.412H55.6768C55.961 126.412 56.4481 126.494 56.7729 126.616L58.8432 127.349C59.1274 127.431 59.168 127.553 58.9244 127.553Z" fill="#2F8EC9"/>
<path d="M49.8312 128.815H46.2588C45.9747 128.815 45.4875 128.734 45.1628 128.611L43.0924 127.878C42.7677 127.756 42.7271 127.675 43.0112 127.675H46.5836C46.8678 127.675 47.3549 127.756 47.6797 127.878L49.75 128.611C50.0747 128.734 50.1153 128.815 49.8312 128.815Z" fill="#35A0E2"/>
<path d="M56.5294 128.856H52.957C52.6729 128.856 52.1857 128.774 51.861 128.652L49.7906 127.919C49.4659 127.797 49.4253 127.716 49.7094 127.716H53.2818C53.5659 127.716 54.0531 127.797 54.3778 127.919L56.4482 128.652C56.7729 128.774 56.8135 128.856 56.5294 128.856Z" fill="#2F8EC9"/>
<path d="M62.8621 128.897H59.2898C59.0056 128.897 58.5185 128.815 58.1937 128.693L56.1234 127.96C55.7986 127.838 55.758 127.756 56.0422 127.756H59.6145C59.8987 127.756 60.3858 127.838 60.7106 127.96L62.7809 128.693C63.1057 128.815 63.1463 128.937 62.8621 128.897Z" fill="#2F8EC9"/>
<path d="M41.8746 126.005H38.3023C38.0181 126.005 37.531 125.924 37.2062 125.802L35.1359 125.069C34.8111 124.947 34.7705 124.865 35.0547 124.865H38.627C38.9112 124.865 39.3983 124.947 39.7231 125.069L41.7934 125.802C42.1182 125.924 42.1588 126.005 41.8746 126.005Z" fill="#2F8EC9"/>
<path d="M48.5727 126.087H45.0004C44.7162 126.087 44.2291 126.006 43.9043 125.883L41.834 125.15C41.5092 125.028 41.4686 124.947 41.7528 124.947H45.3251C45.6093 124.947 46.0964 125.028 46.4212 125.15L48.4915 125.883C48.8163 125.965 48.8569 126.087 48.5727 126.087Z" fill="#2F8EC9"/>
<path d="M54.9461 126.128H51.3738C51.0896 126.128 50.6025 126.046 50.2777 125.924L48.1668 125.15C47.8421 125.028 47.8015 124.947 48.0856 124.947H51.658C51.9421 124.947 52.4293 125.028 52.754 125.15L54.8244 125.883C55.1897 126.006 55.2303 126.128 54.9461 126.128Z" fill="#2F8EC9"/>
<path d="M45.8529 127.39H42.2806C41.9964 127.39 41.5093 127.309 41.1845 127.186L39.1142 126.453C38.7894 126.331 38.7488 126.25 39.033 126.25H42.6054C42.8895 126.25 43.3767 126.331 43.7014 126.453L45.7718 127.186C46.0965 127.309 46.1371 127.39 45.8529 127.39Z" fill="#2F8EC9"/>
<path d="M52.5511 127.471H48.9788C48.6946 127.471 48.2075 127.39 47.8827 127.268L45.8124 126.535C45.4876 126.413 45.447 126.331 45.7312 126.331H49.3035C49.5877 126.331 50.0748 126.413 50.3996 126.535L52.4699 127.268C52.7947 127.349 52.8353 127.471 52.5511 127.471Z" fill="#2F8EC9"/>
<path d="M58.9244 127.512H55.3521C55.0679 127.512 54.5808 127.431 54.256 127.309L52.1857 126.576C51.8609 126.454 51.8203 126.372 52.1045 126.372H55.6768C55.961 126.372 56.4481 126.454 56.7729 126.576L58.8432 127.309C59.1274 127.39 59.168 127.512 58.9244 127.512Z" fill="#2F8EC9"/>
<path d="M49.8312 128.774H46.2588C45.9747 128.774 45.4875 128.693 45.1628 128.571L43.0924 127.838C42.7677 127.716 42.7271 127.634 43.0112 127.634H46.5836C46.8678 127.634 47.3549 127.716 47.6797 127.838L49.75 128.571C50.0747 128.693 50.1153 128.774 49.8312 128.774Z" fill="#35A0E2"/>
<path d="M56.5294 128.856H52.957C52.6729 128.856 52.1857 128.775 51.861 128.652L49.7906 127.919C49.4659 127.797 49.4253 127.716 49.7094 127.716H53.2818C53.5659 127.716 54.0531 127.797 54.3778 127.919L56.4482 128.652C56.7729 128.734 56.8135 128.856 56.5294 128.856Z" fill="#2F8EC9"/>
<path d="M62.8621 128.897H59.2898C59.0056 128.897 58.5185 128.815 58.1937 128.693L56.1234 127.96C55.7986 127.838 55.758 127.757 56.0422 127.757H59.6145C59.8987 127.757 60.3858 127.838 60.7106 127.96L62.7809 128.693C63.1057 128.775 63.1463 128.897 62.8621 128.897Z" fill="#2F8EC9"/>
<path d="M41.8746 125.965H38.3023C38.0181 125.965 37.531 125.883 37.2062 125.761L35.1359 125.028C34.8111 124.906 34.7705 124.824 35.0547 124.824H38.627C38.9112 124.824 39.3983 124.906 39.7231 125.028L41.7934 125.761C42.1182 125.883 42.1588 125.965 41.8746 125.965Z" fill="#2F8EC9"/>
<path d="M48.5727 126.046H45.0004C44.7162 126.046 44.2291 125.965 43.9043 125.843L41.834 125.109C41.5092 124.987 41.4686 124.906 41.7528 124.906H45.3251C45.6093 124.906 46.0964 124.987 46.4212 125.109L48.4915 125.843C48.8163 125.924 48.8569 126.046 48.5727 126.046Z" fill="#2F8EC9"/>
<path d="M54.9461 126.087H51.3738C51.0896 126.087 50.6025 126.005 50.2777 125.883L48.1668 125.15C47.8421 125.028 47.8015 124.947 48.0856 124.947H51.658C51.9421 124.947 52.4293 125.028 52.754 125.15L54.8244 125.883C55.1897 126.005 55.2303 126.087 54.9461 126.087Z" fill="#2F8EC9"/>
<path d="M45.8529 127.349H42.2806C41.9964 127.349 41.5093 127.268 41.1845 127.145L39.1142 126.412C38.7894 126.29 38.7488 126.209 39.033 126.209H42.6054C42.8895 126.209 43.3767 126.29 43.7014 126.412L45.7718 127.145C46.0965 127.268 46.1371 127.349 45.8529 127.349Z" fill="#2F8EC9"/>
<path d="M52.5511 127.431H48.9788C48.6946 127.431 48.2075 127.349 47.8827 127.227L45.8124 126.494C45.4876 126.372 45.447 126.29 45.7312 126.29H49.3035C49.5877 126.29 50.0748 126.372 50.3996 126.494L52.4699 127.227C52.7947 127.308 52.8353 127.431 52.5511 127.431Z" fill="#2F8EC9"/>
<path d="M58.9244 127.471H55.3521C55.0679 127.471 54.5808 127.39 54.256 127.268L52.1857 126.535C51.8609 126.413 51.8203 126.331 52.1045 126.331H55.6768C55.961 126.331 56.4481 126.413 56.7729 126.535L58.8432 127.268C59.1274 127.39 59.168 127.471 58.9244 127.471Z" fill="#2F8EC9"/>
<path d="M49.8312 128.734H46.2588C45.9747 128.734 45.4875 128.652 45.1628 128.53L43.0924 127.797C42.7677 127.675 42.7271 127.594 43.0112 127.594H46.5836C46.8678 127.594 47.3549 127.675 47.6797 127.797L49.75 128.53C50.0747 128.652 50.1153 128.734 49.8312 128.734Z" fill="#35A0E2"/>
<path d="M56.5294 128.815H52.957C52.6729 128.815 52.1857 128.734 51.861 128.612L49.7906 127.879C49.4659 127.756 49.4253 127.675 49.7094 127.675H53.2818C53.5659 127.675 54.0531 127.756 54.3778 127.879L56.4482 128.612C56.7729 128.693 56.8135 128.815 56.5294 128.815Z" fill="#2F8EC9"/>
<path d="M62.8621 128.856H59.2898C59.0056 128.856 58.5185 128.775 58.1937 128.652L56.1234 127.919C55.7986 127.797 55.758 127.716 56.0422 127.716H59.6145C59.8987 127.716 60.3858 127.797 60.7106 127.919L62.7809 128.652C63.1057 128.775 63.1463 128.856 62.8621 128.856Z" fill="#2F8EC9"/>
<path d="M41.8746 125.965H38.3023C38.0181 125.965 37.531 125.883 37.2062 125.761L35.1359 125.028C34.8111 124.906 34.7705 124.824 35.0547 124.824H38.627C38.9112 124.824 39.3983 124.906 39.7231 125.028L41.7934 125.761C42.1182 125.842 42.1588 125.965 41.8746 125.965Z" fill="#2F8EC9"/>
<path d="M48.5727 126.005H45.0004C44.7162 126.005 44.2291 125.924 43.9043 125.802L41.834 125.069C41.5092 124.946 41.4686 124.865 41.7528 124.865H45.3251C45.6093 124.865 46.0964 124.946 46.4212 125.069L48.4915 125.802C48.8163 125.924 48.8569 126.005 48.5727 126.005Z" fill="#2F8EC9"/>
<path d="M54.9461 126.046H51.3738C51.0896 126.046 50.6025 125.965 50.2777 125.843L48.2074 125.109C47.8826 124.987 47.842 124.906 48.1262 124.906H51.6985C51.9827 124.906 52.4698 124.987 52.7946 125.109L54.8649 125.843C55.1897 125.965 55.2303 126.046 54.9461 126.046Z" fill="#2F8EC9"/>
<path d="M45.8529 127.349H42.2806C41.9964 127.349 41.5093 127.268 41.1845 127.145L39.1142 126.412C38.7894 126.29 38.7488 126.209 39.033 126.209H42.6054C42.8895 126.209 43.3767 126.29 43.7014 126.412L45.7718 127.145C46.0965 127.227 46.1371 127.349 45.8529 127.349Z" fill="#2F8EC9"/>
<path d="M52.5511 127.39H48.9788C48.6946 127.39 48.2075 127.308 47.8827 127.186L45.8124 126.453C45.4876 126.331 45.447 126.25 45.7312 126.25H49.3035C49.5877 126.25 50.0748 126.331 50.3996 126.453L52.4699 127.186C52.7947 127.308 52.8353 127.39 52.5511 127.39Z" fill="#2F8EC9"/>
<path d="M58.9244 127.431H55.3521C55.0679 127.431 54.5808 127.349 54.256 127.227L52.1857 126.494C51.8609 126.372 51.8203 126.29 52.1045 126.29H55.6768C55.961 126.29 56.4481 126.372 56.7729 126.494L58.8432 127.227C59.1274 127.349 59.168 127.431 58.9244 127.431Z" fill="#2F8EC9"/>
<path d="M49.8312 128.734H46.2588C45.9747 128.734 45.4875 128.652 45.1628 128.53L43.0924 127.797C42.7677 127.675 42.7271 127.594 43.0112 127.594H46.5836C46.8678 127.594 47.3549 127.675 47.6797 127.797L49.75 128.53C50.0747 128.612 50.1153 128.734 49.8312 128.734Z" fill="#35A0E2"/>
<path d="M56.5294 128.774H52.957C52.6729 128.774 52.1857 128.693 51.861 128.571L49.7906 127.838C49.4659 127.716 49.4253 127.634 49.7094 127.634H53.2818C53.5659 127.634 54.0531 127.716 54.3778 127.838L56.4482 128.571C56.7729 128.693 56.8135 128.774 56.5294 128.774Z" fill="#2F8EC9"/>
<path d="M62.8621 128.815H59.2898C59.0056 128.815 58.5185 128.734 58.1937 128.612L56.1234 127.879C55.7986 127.756 55.758 127.675 56.0422 127.675H59.6145C59.8987 127.675 60.3858 127.756 60.7106 127.879L62.7809 128.612C63.1057 128.734 63.1463 128.815 62.8621 128.815Z" fill="#2F8EC9"/>
<path d="M41.8746 125.924H38.3023C38.0181 125.924 37.531 125.842 37.2062 125.72L35.1359 124.987C34.8111 124.865 34.7705 124.784 35.0547 124.784H38.627C38.9112 124.784 39.3983 124.865 39.7231 124.987L41.7934 125.72C42.1182 125.802 42.1588 125.924 41.8746 125.924Z" fill="#2F8EC9"/>
<path d="M48.5727 125.965H45.0004C44.7162 125.965 44.2291 125.883 43.9043 125.761L41.834 125.028C41.5092 124.906 41.4686 124.824 41.7528 124.824H45.3252C45.6093 124.824 46.0965 124.906 46.4212 125.028L48.4916 125.761C48.8163 125.883 48.8569 125.965 48.5727 125.965Z" fill="#2F8EC9"/>
<path d="M54.9461 126.005H51.3738C51.0896 126.005 50.6025 125.924 50.2777 125.802L48.2074 125.069C47.8826 124.947 47.842 124.865 48.1262 124.865H51.6985C51.9827 124.865 52.4698 124.947 52.7946 125.069L54.8649 125.802C55.1897 125.924 55.2303 126.005 54.9461 126.005Z" fill="#2F8EC9"/>
<path d="M45.8529 127.308H42.2806C41.9964 127.308 41.5093 127.227 41.1845 127.105L39.1142 126.372C38.7894 126.25 38.7488 126.168 39.033 126.168H42.6054C42.8895 126.168 43.3767 126.25 43.7014 126.372L45.7718 127.105C46.0965 127.186 46.1371 127.308 45.8529 127.308Z" fill="#2F8EC9"/>
<path d="M52.5511 127.349H48.9788C48.6946 127.349 48.2075 127.268 47.8827 127.145L45.8124 126.412C45.4876 126.29 45.447 126.209 45.7312 126.209H49.3035C49.5877 126.209 50.0748 126.29 50.3996 126.412L52.4699 127.145C52.7947 127.268 52.8353 127.349 52.5511 127.349Z" fill="#2F8EC9"/>
<path d="M58.9244 127.39H55.3521C55.0679 127.39 54.5808 127.308 54.256 127.186L52.1857 126.453C51.8609 126.331 51.8203 126.25 52.1045 126.25H55.6768C55.961 126.25 56.4481 126.331 56.7729 126.453L58.8432 127.186C59.1274 127.308 59.168 127.39 58.9244 127.39Z" fill="#2F8EC9"/>
<path d="M49.8312 128.693H46.2588C45.9747 128.693 45.4875 128.612 45.1628 128.489L43.0924 127.756C42.7677 127.634 42.7271 127.553 43.0113 127.553H46.5836C46.8678 127.553 47.3549 127.634 47.6797 127.756L49.75 128.489C50.0748 128.571 50.1154 128.693 49.8312 128.693Z" fill="#35A0E2"/>
<path d="M56.5294 128.734H52.957C52.6729 128.734 52.1857 128.652 51.861 128.53L49.7906 127.797C49.4659 127.675 49.4253 127.594 49.7094 127.594H53.2818C53.566 127.594 54.0531 127.675 54.3779 127.797L56.4482 128.53C56.7729 128.652 56.8135 128.734 56.5294 128.734Z" fill="#2F8EC9"/>
<path d="M62.8621 128.774H59.2898C59.0056 128.774 58.5185 128.693 58.1937 128.571L56.1234 127.838C55.7986 127.716 55.758 127.634 56.0422 127.634H59.6145C59.8987 127.634 60.3858 127.716 60.7106 127.838L62.7809 128.571C63.1057 128.693 63.1463 128.774 62.8621 128.774Z" fill="#2F8EC9"/>
<path d="M41.8746 125.924H38.3023C38.0181 125.924 37.531 125.842 37.2062 125.72L35.1359 124.987C34.8111 124.865 34.7705 124.784 35.0547 124.784H38.627C38.9112 124.784 39.3983 124.865 39.7231 124.987L41.7934 125.72C42.1182 125.802 42.1588 125.924 41.8746 125.924Z" fill="#C2E7FE"/>
<path d="M48.5727 125.965H45.0004C44.7162 125.965 44.2291 125.883 43.9043 125.761L41.834 125.028C41.5092 124.906 41.4686 124.824 41.7528 124.824H45.3252C45.6093 124.824 46.0965 124.906 46.4212 125.028L48.4916 125.761C48.8163 125.883 48.8569 125.965 48.5727 125.965Z" fill="#C2E7FE"/>
<path d="M54.9461 126.005H51.3738C51.0896 126.005 50.6025 125.924 50.2777 125.802L48.2074 125.069C47.8826 124.947 47.842 124.865 48.1262 124.865H51.6985C51.9827 124.865 52.4698 124.947 52.7946 125.069L54.8649 125.802C55.1897 125.924 55.2303 126.005 54.9461 126.005Z" fill="#C2E7FE"/>
<path d="M45.8529 127.308H42.2806C41.9964 127.308 41.5093 127.227 41.1845 127.105L39.1142 126.372C38.7894 126.25 38.7488 126.168 39.033 126.168H42.6054C42.8895 126.168 43.3767 126.25 43.7014 126.372L45.7718 127.105C46.0965 127.186 46.1371 127.308 45.8529 127.308Z" fill="#C2E7FE"/>
<path d="M52.5511 127.349H48.9788C48.6946 127.349 48.2075 127.268 47.8827 127.145L45.8124 126.412C45.4876 126.29 45.447 126.209 45.7312 126.209H49.3035C49.5877 126.209 50.0748 126.29 50.3996 126.412L52.4699 127.145C52.7947 127.268 52.8353 127.349 52.5511 127.349Z" fill="#C2E7FE"/>
<path d="M58.9244 127.39H55.3521C55.0679 127.39 54.5808 127.308 54.256 127.186L52.1857 126.453C51.8609 126.331 51.8203 126.25 52.1045 126.25H55.6768C55.961 126.25 56.4481 126.331 56.7729 126.453L58.8432 127.186C59.1274 127.308 59.168 127.39 58.9244 127.39Z" fill="#C2E7FE"/>
<path d="M49.8312 128.652H46.2588C45.9747 128.652 45.4875 128.571 45.1628 128.449L43.0924 127.716C42.7677 127.594 42.7271 127.512 43.0113 127.512H46.5836C46.8678 127.512 47.3549 127.594 47.6797 127.716L49.75 128.449C50.0748 128.571 50.1154 128.652 49.8312 128.652Z" fill="#3BB2FB"/>
<path d="M56.5294 128.734H52.957C52.6729 128.734 52.1857 128.652 51.861 128.53L49.7906 127.797C49.4659 127.675 49.4253 127.594 49.7094 127.594H53.2818C53.566 127.594 54.0531 127.675 54.3779 127.797L56.4482 128.53C56.7729 128.652 56.8135 128.734 56.5294 128.734Z" fill="#C2E7FE"/>
<path d="M62.8621 128.774H59.2898C59.0056 128.774 58.5185 128.693 58.1937 128.571L56.1234 127.838C55.7986 127.716 55.758 127.634 56.0422 127.634H59.6145C59.8987 127.634 60.3858 127.716 60.7106 127.838L62.7809 128.571C63.1057 128.693 63.1463 128.774 62.8621 128.774Z" fill="#C2E7FE"/>
<path d="M41.9558 129.589L42.6865 129.63L41.0221 128.937L39.8448 128.774L41.9558 129.589Z" fill="#3BB2FB"/>
<path d="M65.8662 129.914H66.881C66.881 129.914 65.3384 128.693 64.283 128.123H63.1057C63.0651 128.123 65.176 129.344 65.8662 129.914Z" fill="#3BB2FB"/>
<path d="M99.9762 5.69367C101.408 5.69367 102.569 4.52896 102.569 3.09223C102.569 1.65549 101.408 0.490784 99.9762 0.490784C98.544 0.490784 97.383 1.65549 97.383 3.09223C97.383 4.52896 98.544 5.69367 99.9762 5.69367Z" fill="#3BB2FB"/>
<path d="M88.5759 23.5111C88.9272 23.5111 89.212 23.2254 89.212 22.873C89.212 22.5206 88.9272 22.2349 88.5759 22.2349C88.2246 22.2349 87.9398 22.5206 87.9398 22.873C87.9398 23.2254 88.2246 23.5111 88.5759 23.5111Z" fill="#3BB2FB"/>
<path d="M187.313 119.814C187.962 119.814 188.488 119.286 188.488 118.635C188.488 117.985 187.962 117.457 187.313 117.457C186.665 117.457 186.139 117.985 186.139 118.635C186.139 119.286 186.665 119.814 187.313 119.814Z" fill="#3BB2FB"/>
<path d="M73.1634 150C73.812 150 74.3377 149.473 74.3377 148.822C74.3377 148.171 73.812 147.644 73.1634 147.644C72.5149 147.644 71.9892 148.171 71.9892 148.822C71.9892 149.473 72.5149 150 73.1634 150Z" fill="#3BB2FB"/>
<path d="M42.681 16.8358C43.3296 16.8358 43.8553 16.3084 43.8553 15.6578C43.8553 15.0072 43.3296 14.4798 42.681 14.4798C42.0325 14.4798 41.5067 15.0072 41.5067 15.6578C41.5067 16.3084 42.0325 16.8358 42.681 16.8358Z" fill="#3BB2FB"/>
<path d="M180.17 121.924C180.494 121.924 180.757 121.66 180.757 121.335C180.757 121.01 180.494 120.746 180.17 120.746C179.846 120.746 179.583 121.01 179.583 121.335C179.583 121.66 179.846 121.924 180.17 121.924Z" fill="#E2F3FE"/>
<path d="M111.572 8.58969C111.897 8.58969 112.159 8.32599 112.159 8.00069C112.159 7.67539 111.897 7.41168 111.572 7.41168C111.248 7.41168 110.985 7.67539 110.985 8.00069C110.985 8.32599 111.248 8.58969 111.572 8.58969Z" fill="#E2F3FE"/>
<path d="M144.795 5.00649C146.173 5.00649 147.29 3.88573 147.29 2.50321C147.29 1.12069 146.173 -6.10352e-05 144.795 -6.10352e-05C143.417 -6.10352e-05 142.299 1.12069 142.299 2.50321C142.299 3.88573 143.417 5.00649 144.795 5.00649Z" fill="#E2F3FE"/>
<path d="M65.3838 2.35599H62.2523V3.8285H65.3838V2.35599Z" fill="#E1F2FE"/>
<path d="M10.6454 115.749L9.26801 115.24L7.67805 119.57L9.05548 120.079L10.6454 115.749Z" fill="#E1F2FE"/>
<path d="M106.186 20.7888L105.727 20.6191L104.137 24.9488L104.596 25.1184L106.186 20.7888Z" fill="#E1F2FE"/>
<path d="M171.113 128.487L167.119 126.199L166.877 126.625L170.871 128.913L171.113 128.487Z" fill="#E1F2FE"/>
<path d="M202 20.7635L200.841 19.8602L196.309 25.714L197.468 26.6172L202 20.7635Z" fill="#E1F2FE"/>
<path d="M5.89437 81.089L0.265701 77.437L-2.90023e-05 77.8491L5.62864 81.5012L5.89437 81.089Z" fill="#3BB2FB"/>
<path d="M4.81362 76.7858L4.40903 76.5098L0.639828 82.0702L1.04442 82.3462L4.81362 76.7858Z" fill="#3BB2FB"/>
<path d="M179.925 10.1603L177.234 6.03726H182.959L179.925 10.1603ZM178.115 6.5281L179.925 9.32587L181.98 6.5281H178.115Z" fill="#3BB2FB"/>
<path d="M139.789 14.0709H142.194L145.235 24.0267H153.721" stroke="#3BB2FB" stroke-width="0.692718" stroke-miterlimit="10" stroke-linecap="round" stroke-linejoin="round"/>
<path d="M142.948 16.3411H155.607L154.098 21.8984H144.669" stroke="#3BB2FB" stroke-width="0.692718" stroke-miterlimit="10" stroke-linecap="round" stroke-linejoin="round"/>
<path d="M147.238 16.4121L147.781 21.7329" stroke="#3BB2FB" stroke-width="0.692718" stroke-miterlimit="10" stroke-linecap="round" stroke-linejoin="round"/>
<path d="M151.246 16.4121L150.704 21.7329" stroke="#3BB2FB" stroke-width="0.692718" stroke-miterlimit="10" stroke-linecap="round" stroke-linejoin="round"/>
<path d="M153.556 26.628C154.272 26.628 154.852 26.0457 154.852 25.3274C154.852 24.6091 154.272 24.0267 153.556 24.0267C152.84 24.0267 152.259 24.6091 152.259 25.3274C152.259 26.0457 152.84 26.628 153.556 26.628Z" stroke="#3BB2FB" stroke-width="0.692718" stroke-miterlimit="10" stroke-linecap="round" stroke-linejoin="round"/>
<path d="M145.73 26.628C146.446 26.628 147.026 26.0457 147.026 25.3274C147.026 24.6091 146.446 24.0267 145.73 24.0267C145.014 24.0267 144.433 24.6091 144.433 25.3274C144.433 26.0457 145.014 26.628 145.73 26.628Z" stroke="#3BB2FB" stroke-width="0.692718" stroke-miterlimit="10" stroke-linecap="round" stroke-linejoin="round"/>
<path d="M143.82 19.3208H154.829" stroke="#3BB2FB" stroke-width="0.692718" stroke-miterlimit="10" stroke-linecap="round" stroke-linejoin="round"/>
<path d="M157.328 20.4086C159.931 20.4086 162.042 18.2911 162.042 15.679C162.042 13.0669 159.931 10.9494 157.328 10.9494C154.724 10.9494 152.613 13.0669 152.613 15.679C152.613 18.2911 154.724 20.4086 157.328 20.4086Z" fill="#3BB2FB"/>
<path d="M155.984 15.3479L156.856 16.885L159.968 13.7871" stroke="white" stroke-width="1.03908" stroke-miterlimit="10" stroke-linecap="round" stroke-linejoin="round"/>
<path d="M23.2948 37.889L18.8395 34.8621C18.368 34.531 18.2501 33.8925 18.5566 33.4195L22.9176 27.0109C23.2477 26.5379 23.8841 26.4197 24.3556 26.7271L35.4586 34.2945C35.9301 34.6256 36.0479 35.2641 35.7415 35.737L31.3804 42.1693C31.0504 42.6423 30.4139 42.7605 29.9425 42.4531L24.4735 38.693" stroke="#C2E7FE" stroke-width="0.346359" stroke-miterlimit="10" stroke-linecap="round" stroke-linejoin="round"/>
<path d="M20.9543 29.9089L33.7595 38.6483L35.3241 36.3411L22.519 27.6017L20.9543 29.9089Z" fill="#3BB2FB" stroke="#C2E7FE" stroke-width="0.346359" stroke-miterlimit="10" stroke-linecap="round" stroke-linejoin="round"/>
<path d="M39.136 41.1288C39.1125 41.1288 39.0889 41.1052 39.0653 41.1052C38.7117 40.9396 38.6646 40.443 38.9946 40.2065C39.301 39.9937 39.6075 39.7572 39.8668 39.4734C40.3618 38.9532 40.7154 38.362 40.9747 37.6998C41.1162 37.2978 41.234 36.8958 41.2812 36.4701C41.4462 35.1695 41.1633 33.9871 40.4561 32.8756C40.3854 32.781 40.3618 32.6864 40.3383 32.5682C40.3383 32.3317 40.4797 32.1425 40.6919 32.0716C40.904 32.0006 41.1397 32.0716 41.2812 32.2844C41.4698 32.5682 41.6348 32.852 41.7762 33.1594C42.1534 33.9634 42.342 34.8148 42.3656 35.7134C42.3656 36.0681 42.342 36.4228 42.2948 36.8012C42.2948 36.8248 42.2948 36.8248 42.2948 36.8485C42.2713 36.9904 42.2477 37.1323 42.2005 37.2742C42.2005 37.2978 42.2005 37.2978 42.177 37.3215C42.1298 37.5106 42.0827 37.6762 42.012 37.8654C41.8469 38.3383 41.6348 38.7876 41.3755 39.1897C40.904 39.9464 40.2911 40.5849 39.5368 41.0815C39.4425 41.1288 39.3482 41.1761 39.2539 41.1761C39.2303 41.1761 39.2303 41.1761 39.2067 41.1761C39.2067 41.1524 39.1596 41.1288 39.136 41.1288Z" fill="#3BB2FB"/>
<path d="M40.409 36.683C40.1497 37.8654 39.5368 38.8349 38.5231 39.5207C38.3581 39.639 38.1459 39.639 37.9809 39.5207C37.8159 39.4025 37.7452 39.2133 37.7923 39.0005C37.8159 38.8822 37.8866 38.7876 38.0045 38.7167C38.2638 38.5512 38.476 38.3383 38.6881 38.1255C39.0182 37.7471 39.2539 37.3215 39.3953 36.8485C39.7018 35.7843 39.5603 34.7911 38.971 33.8688C38.806 33.6087 38.8767 33.3013 39.1124 33.1594C39.3482 33.0175 39.6311 33.0884 39.7725 33.3013C40.1025 33.8215 40.3383 34.3654 40.4561 34.9803C40.5504 35.4533 40.5504 35.9262 40.4797 36.3992C40.4325 36.4938 40.4325 36.5884 40.409 36.683Z" fill="#3BB2FB"/>
<path d="M38.6881 36.3282C38.5231 37.0613 38.1459 37.6289 37.533 38.0545C37.368 38.1728 37.1794 38.1728 37.0144 38.0782C36.8494 37.9836 36.7551 37.8181 36.7787 37.6289C36.7787 37.4633 36.873 37.3451 36.9909 37.2505C37.203 37.1086 37.368 36.9431 37.5095 36.7302C37.8631 36.0918 37.8631 35.4769 37.4859 34.8621C37.4152 34.7438 37.368 34.6256 37.3916 34.4837C37.4388 34.2945 37.5802 34.1526 37.7688 34.1053C37.9574 34.058 38.1459 34.1526 38.2638 34.3181C38.5467 34.7438 38.6881 35.1931 38.7117 35.6897C38.7589 35.8789 38.7353 36.1154 38.6881 36.3282Z" fill="#3BB2FB"/>
<path d="M133.43 87.5328L121.621 81.0395C121.485 80.9618 121.482 80.8271 121.615 80.7432L138.096 70.6878C138.228 70.6039 138.443 70.5989 138.579 70.6767L150.388 77.1699C150.524 77.2476 150.528 77.3823 150.395 77.4662L133.914 87.5216C133.781 87.6056 133.566 87.6105 133.43 87.5328Z" fill="#E1F2FE"/>
<path d="M119.988 84.7966L107.717 78.0715C107.581 77.9937 107.578 77.859 107.71 77.7751L126.814 66.0961C126.947 66.0122 127.188 66.0066 127.324 66.0843L139.595 72.8095C139.731 72.8872 139.735 73.0219 139.602 73.1058L120.498 84.7849C120.366 84.8688 120.124 84.8744 119.988 84.7966Z" fill="#E1F2FE"/>
<path d="M122.845 41.7414C122.274 41.4311 121.549 41.4747 120.86 41.8949C119.244 42.8754 117.991 45.6534 118.046 48.051L118.176 53.735C118.179 53.8697 118.289 54.0019 118.45 53.9982C118.585 53.9951 118.716 53.8842 118.713 53.7226L118.583 48.0655C118.532 45.8027 119.682 43.2427 121.166 42.346C121.723 42.0098 122.232 41.9711 122.641 42.2043C123.266 42.5403 123.636 43.4481 123.664 44.6604L123.794 50.3444C123.797 50.4791 123.908 50.6113 124.069 50.6076C124.203 50.6045 124.335 50.4936 124.331 50.332L124.201 44.648C124.115 43.2484 123.634 42.1814 122.845 41.7414Z" fill="#1B5071"/>
<path d="M136.294 74.1253L134.083 46.7654L129.458 44.2574L128.567 69.883L136.294 74.1253Z" fill="#3BB2FB"/>
<path opacity="0.4" d="M136.294 74.1253L134.083 46.7654L129.458 44.2574L128.567 69.883L136.294 74.1253Z" fill="white"/>
<path d="M113.666 53.8927L112.774 79.5182L128.567 69.883L129.458 44.2574L113.666 53.8927Z" fill="#3BB2FB"/>
<path opacity="0.3" d="M113.666 53.8927L112.774 79.5182L128.567 69.883L129.458 44.2574L113.666 53.8927Z" fill="white"/>
<path opacity="0.05" d="M113.666 53.8927L112.774 79.5182L128.567 69.883L129.458 44.2574L113.666 53.8927Z" fill="#153E58"/>
<path d="M113.666 53.8927L118.29 56.4007L120.501 83.7606L112.774 79.5183L113.666 53.8927Z" fill="#3BB2FB"/>
<path opacity="0.55" d="M113.666 53.8927L118.29 56.4007L120.501 83.7606L112.774 79.5183L113.666 53.8927Z" fill="white"/>
<path opacity="0.2" d="M120.501 83.7606L117.119 79.2026L116.347 63.0758L116.281 78.9524L112.774 79.5183L120.501 83.7606Z" fill="#3BB2FB"/>
<path opacity="0.05" d="M120.501 83.7606L117.119 79.2026L116.347 63.0758L116.281 78.9524L112.774 79.5183L120.501 83.7606Z" fill="#153E58"/>
<path d="M134.083 46.7654L118.29 56.4007L120.501 83.7606L136.294 74.1253L134.083 46.7654ZM123.058 56.9378C122.74 57.1337 122.495 56.9777 122.487 56.6275C122.478 56.2503 122.737 55.8131 123.028 55.6178C123.346 55.4218 123.591 55.5779 123.599 55.9281C123.635 56.3046 123.376 56.7418 123.058 56.9378ZM128.648 53.4939C128.33 53.6899 128.085 53.5338 128.077 53.1836C128.068 52.8065 128.327 52.3693 128.618 52.1739C128.936 51.9779 129.181 52.134 129.19 52.4842C129.225 52.8607 128.966 53.2979 128.648 53.4939Z" fill="#3BB2FB"/>
<path opacity="0.7" d="M134.083 46.7654L118.29 56.4007L120.501 83.7606L136.294 74.1253L134.083 46.7654ZM123.058 56.9378C122.74 57.1337 122.495 56.9777 122.487 56.6275C122.478 56.2503 122.737 55.8131 123.028 55.6178C123.346 55.4218 123.591 55.5779 123.599 55.9281C123.635 56.3046 123.376 56.7418 123.058 56.9378ZM128.648 53.4939C128.33 53.6899 128.085 53.5338 128.077 53.1836C128.068 52.8065 128.327 52.3693 128.618 52.1739C128.936 51.9779 129.181 52.134 129.19 52.4842C129.225 52.8607 128.966 53.2979 128.648 53.4939Z" fill="white"/>
<path d="M127.47 44.2493C126.898 43.939 126.174 43.9827 125.485 44.4028C123.869 45.3834 122.616 48.1614 122.67 50.5589L122.8 56.2429C122.804 56.3776 122.914 56.5098 123.075 56.5061C123.209 56.503 123.341 56.3922 123.338 56.2306L123.208 50.5735C123.156 48.3106 124.307 45.7506 125.791 44.854C126.321 44.5183 126.857 44.479 127.265 44.7122C127.891 45.0482 128.261 45.9561 128.289 47.1683L128.419 52.8523C128.422 52.987 128.532 53.1192 128.693 53.1155C128.828 53.1124 128.96 53.0016 128.956 52.8399L128.826 47.1559C128.739 45.7294 128.259 44.6893 127.47 44.2493Z" fill="#153E58"/>
<path d="M135.69 50.0705C135.173 49.7859 134.557 49.854 133.947 50.2185C132.543 51.0863 131.442 53.4835 131.491 55.6116L131.605 60.5952C131.608 60.7299 131.717 60.8083 131.825 60.8058C131.959 60.8027 132.037 60.6931 132.035 60.5853L131.921 55.6017C131.876 53.6352 132.872 51.4022 134.171 50.6176C134.648 50.3371 135.103 50.2727 135.457 50.4802C136.002 50.7911 136.342 51.5649 136.367 52.6424L136.48 57.5991C136.483 57.7338 136.592 57.8121 136.7 57.8096C136.834 57.8065 136.912 57.6969 136.91 57.5892L136.796 52.6056C136.795 51.3927 136.37 50.4591 135.69 50.0705Z" fill="#1B5071"/>
<path d="M147.406 78.3436L145.462 54.4544L141.436 52.2562L140.658 74.6178L147.406 78.3436Z" fill="#3BB2FB"/>
<path opacity="0.2" d="M147.406 78.3436L145.462 54.4544L141.436 52.2562L140.658 74.6178L147.406 78.3436Z" fill="#153E58"/>
<path d="M127.657 60.6592L126.88 83.0477L140.658 74.6178L141.436 52.2562L127.657 60.6592Z" fill="#3BB2FB"/>
<path opacity="0.3" d="M127.657 60.6592L126.88 83.0477L140.658 74.6178L141.436 52.2562L127.657 60.6592Z" fill="#153E58"/>
<path d="M127.657 60.6592L131.684 62.8844L133.627 86.7466L126.88 83.0478L127.657 60.6592Z" fill="#3BB2FB"/>
<path opacity="0.15" d="M127.657 60.6592L131.684 62.8844L133.627 86.7466L126.88 83.0478L127.657 60.6592Z" fill="#153E58"/>
<path opacity="0.15" d="M133.627 86.7467L130.662 82.772L129.99 68.6913L129.958 82.5457L126.88 83.0478L133.627 86.7467Z" fill="#153E58"/>
<path d="M145.462 54.4544L131.684 62.8574L133.627 86.7197L147.405 78.3167L145.462 54.4544ZM135.859 63.3273C135.594 63.4951 135.349 63.366 135.342 63.0427C135.334 62.7195 135.541 62.3374 135.832 62.169C136.097 62.0011 136.342 62.1303 136.349 62.4535C136.357 62.7768 136.124 63.1864 135.859 63.3273ZM140.734 60.3312C140.469 60.499 140.224 60.3698 140.217 60.0466C140.21 59.7233 140.416 59.3412 140.707 59.1728C140.972 59.005 141.217 59.1341 141.224 59.4574C141.232 59.7806 141.026 60.1627 140.734 60.3312Z" fill="#3BB2FB"/>
<path d="M139.717 52.2688C139.2 51.9842 138.583 52.0523 137.974 52.4167C136.569 53.2846 135.469 55.6818 135.518 57.8099L135.632 62.7935C135.635 62.9282 135.744 63.0065 135.851 63.0041C135.986 63.001 136.064 62.8914 136.061 62.7836L135.947 57.7731C135.902 55.8066 136.898 53.5735 138.197 52.7889C138.674 52.5084 139.129 52.444 139.484 52.6515C140.028 52.9624 140.368 53.7362 140.393 54.8137L140.506 59.7704C140.509 59.9051 140.618 59.9834 140.726 59.981C140.86 59.9779 140.938 59.8683 140.936 59.7605L140.822 54.8038C140.821 53.564 140.397 52.6305 139.717 52.2688Z" fill="#153E58"/>
<g clip-path="url(#clip0_6_2211)">
<path d="M65.7897 14.995L64.157 17.9198C64.0126 18.1862 63.9652 18.4948 64.023 18.7925L66.3042 28.6784C66.4865 29.6231 67.3962 30.242 68.3359 30.0607L72.3399 29.2885L74.6138 27.7043L65.7897 14.995Z" fill="#2C86BC"/>
<path d="M79.9458 20.757L80.9783 22.2483C81.5531 23.0786 81.3418 24.2559 80.5138 24.8328L74.2635 29.1876C73.4355 29.7645 72.2958 29.5284 71.721 28.6982L65.6435 19.9199C65.4622 19.658 65.3643 19.3582 65.3907 19.0404L65.6885 15.4469C65.7223 15.0385 65.911 14.659 66.2466 14.4252L69.5239 12.1418C69.8595 11.908 70.2798 11.8631 70.6732 11.9739L74.1338 12.9488C74.4398 13.035 74.7196 13.2082 74.9008 13.47L79.9458 20.757L79.9458 20.757Z" fill="#3BB2FB"/>
<path fill-rule="evenodd" clip-rule="evenodd" d="M71.4946 19.5869L71.4944 19.5865L71.4796 19.5838C71.4717 19.5823 71.4638 19.5809 71.4559 19.5796L70.8635 19.4722L70.8825 19.6059C70.7342 19.6458 70.594 19.7112 70.468 19.7991L70.4342 19.8226C69.8287 20.2445 69.6783 21.0818 70.0988 21.6892C70.1859 21.815 70.2909 21.9209 70.4079 22.0065L70.3418 22.1308L70.9557 22.2426L70.9635 22.244L70.9717 22.2455L70.9718 22.2453C71.3052 22.3025 71.6603 22.2341 71.9594 22.0257L71.9932 22.0021C72.5987 21.5803 72.7491 20.7429 72.3286 20.1356C72.124 19.84 71.8212 19.6529 71.4946 19.5869ZM71.6412 21.4938L71.6075 21.5173C71.2815 21.7444 70.832 21.6631 70.6056 21.3361C70.3792 21.0091 70.4602 20.5582 70.7862 20.331L70.82 20.3075C71.146 20.0804 71.5954 20.1616 71.8219 20.4887C72.0483 20.8157 71.9672 21.2666 71.6412 21.4938ZM74.5062 17.1462L73.9337 17.0426L72.5031 25.0032L73.0756 25.1067C73.1595 25.1219 73.2416 25.1015 73.3064 25.0563C73.3712 25.0112 73.4189 24.9412 73.434 24.857L74.7551 17.5056C74.7696 17.4249 74.7515 17.3416 74.7048 17.2742C74.6582 17.2068 74.5867 17.1607 74.5062 17.1462ZM76.5382 19.9388L76.5384 19.9385L76.062 19.8489L76.16 19.9516C75.9705 19.9851 75.7907 20.0596 75.6327 20.1698L75.599 20.1933C74.9935 20.6152 74.843 21.4525 75.2635 22.0599C75.3722 22.2168 75.5087 22.3431 75.6616 22.437L75.525 22.5053L76.0944 22.6079C76.1151 22.6122 76.1359 22.6159 76.1569 22.6191L76.1699 22.6215L76.1698 22.6212C76.4935 22.6684 76.835 22.5979 77.1242 22.3964L77.158 22.3728C77.7635 21.951 77.9139 21.1136 77.4934 20.5062C77.2637 20.1744 76.9103 19.9792 76.5382 19.9388ZM76.806 21.8644L76.7722 21.888C76.4462 22.1151 75.9967 22.0338 75.7703 21.7068C75.5439 21.3797 75.6249 20.9288 75.9509 20.7017L75.9847 20.6782C76.3107 20.451 76.7602 20.5323 76.9866 20.8593C77.213 21.1864 77.132 21.6373 76.806 21.8644Z" fill="#3BB2FB"/>
<path d="M72.7339 24.9528C72.6838 24.9877 72.6245 25.007 72.5635 25.0081C72.5024 25.0092 72.4425 24.9921 72.3911 24.959C72.3398 24.9259 72.2994 24.8783 72.275 24.8222C72.2507 24.7661 72.2434 24.704 72.2543 24.6437L73.5753 17.2923C73.5901 17.2118 73.6361 17.1405 73.7032 17.094C73.7704 17.0474 73.8531 17.0295 73.9334 17.044C74.0137 17.0585 74.085 17.1043 74.1317 17.1714C74.1784 17.2386 74.1967 17.3215 74.1825 17.4021L72.8615 24.7535C72.8544 24.7935 72.8394 24.8317 72.8175 24.8659C72.7956 24.9001 72.7672 24.9297 72.7339 24.9528ZM71.4207 21.8986L71.3869 21.9222C70.7815 22.344 69.9468 22.193 69.5263 21.5857C69.1058 20.9783 69.2562 20.141 69.8617 19.7191L69.8955 19.6956C70.501 19.2737 71.3356 19.4247 71.7561 20.0321C72.1766 20.6394 72.0262 21.4768 71.4207 21.8986ZM70.2137 20.2275C69.8877 20.4546 69.8066 20.9055 70.0331 21.2326C70.2595 21.5596 70.709 21.6409 71.035 21.4138L71.0687 21.3902C71.3947 21.1631 71.4758 20.7122 71.2493 20.3851C71.0229 20.0581 70.5735 19.9768 70.2475 20.204L70.2137 20.2275ZM76.5855 22.2693L76.5517 22.2928C75.9462 22.7147 75.1115 22.5637 74.691 21.9563C74.2705 21.349 74.421 20.5116 75.0264 20.0898L75.0602 20.0662C75.6657 19.6444 76.5004 19.7954 76.9209 20.4027C77.3414 21.0101 77.1909 21.8474 76.5855 22.2693ZM75.3784 20.5982C75.0524 20.8253 74.9714 21.2762 75.1978 21.6032C75.4242 21.9303 75.8737 22.0116 76.1997 21.7844L76.2335 21.7609C76.5595 21.5338 76.6405 21.0828 76.4141 20.7558C76.1877 20.4288 75.7382 20.3475 75.4122 20.5746L75.3784 20.5982Z" fill="#F5F5F5"/>
<path d="M69.7676 15.9662C69.3298 16.2713 68.7263 16.1621 68.4222 15.7229C68.1182 15.2838 68.227 14.6783 68.6648 14.3733C69.1026 14.0682 69.7061 14.1774 70.0102 14.6166C70.3142 15.0558 70.2054 15.6612 69.7676 15.9662Z" fill="#F5F5F5"/>
</g>
<defs>
<clipPath id="clip0_6_2211">
<rect width="20.7741" height="20.7971" fill="white" transform="matrix(0.820489 -0.571662 0.569222 0.822184 55.1613 17.1496)"/>
</clipPath>
</defs>
</svg>
