<svg width="236" height="56" viewBox="0 0 236 56" fill="none" xmlns="http://www.w3.org/2000/svg">
<path d="M108.575 28.2912L104.811 21.4602H103.755V28.2912H99.3457V10.2021H106.74C108.164 10.2021 109.384 10.4484 110.387 10.9468C111.389 11.4452 112.146 12.1254 112.644 12.9932C113.143 13.861 113.389 14.8285 113.389 15.8898C113.389 17.0918 113.049 18.1649 112.369 19.1089C111.688 20.0529 110.692 20.7272 109.367 21.1201L113.541 28.2854H108.569L108.575 28.2912ZM103.755 18.3408H106.488C107.297 18.3408 107.901 18.1414 108.305 17.7485C108.71 17.3557 108.909 16.7928 108.909 16.0716C108.909 15.3504 108.71 14.8461 108.305 14.4474C107.901 14.0545 107.297 13.8551 106.488 13.8551H103.755V18.3408Z" fill="#1A1A1A"/>
<path d="M128.905 22.1486H118.931C119.001 23.0399 119.289 23.7259 119.793 24.195C120.297 24.6699 120.924 24.9045 121.663 24.9045C122.76 24.9045 123.528 24.4413 123.956 23.5148H128.647C128.406 24.4589 127.972 25.3091 127.345 26.0655C126.718 26.8219 125.932 27.4141 124.988 27.8421C124.044 28.2702 122.988 28.4871 121.816 28.4871C120.408 28.4871 119.154 28.1881 118.051 27.5841C116.949 26.9802 116.093 26.1241 115.471 25.0042C114.856 23.8901 114.545 22.5825 114.545 21.0873C114.545 19.5921 114.85 18.2845 115.46 17.1705C116.069 16.0564 116.926 15.1944 118.022 14.5905C119.119 13.9865 120.385 13.6875 121.81 13.6875C123.235 13.6875 124.437 13.9807 125.522 14.5612C126.606 15.1475 127.451 15.9801 128.06 17.059C128.67 18.1438 128.975 19.4045 128.975 20.8469C128.975 21.2574 128.952 21.6913 128.899 22.1369L128.905 22.1486ZM124.472 19.6976C124.472 18.9412 124.214 18.3432 123.698 17.8917C123.182 17.446 122.537 17.2232 121.763 17.2232C120.989 17.2232 120.403 17.4402 119.892 17.8682C119.388 18.2963 119.072 18.9061 118.954 19.6976H124.472Z" fill="#1A1A1A"/>
<path d="M130.934 17.1783C131.491 16.0642 132.253 15.2022 133.215 14.5983C134.177 13.9944 135.25 13.6953 136.434 13.6953C137.449 13.6953 138.334 13.9005 139.102 14.311C139.864 14.7214 140.457 15.2667 140.867 15.9352V13.9005H145.276V28.2838H140.867V26.2492C140.439 26.9176 139.841 27.4629 139.079 27.8734C138.316 28.2838 137.425 28.4891 136.411 28.4891C135.244 28.4891 134.177 28.1842 133.215 27.5744C132.253 26.9645 131.491 26.0967 130.934 24.9709C130.377 23.8451 130.096 22.5434 130.096 21.0658C130.096 19.5882 130.377 18.2923 130.934 17.1724V17.1783ZM139.952 18.4917C139.343 17.8584 138.598 17.5359 137.724 17.5359C136.851 17.5359 136.106 17.8467 135.496 18.4741C134.886 19.1015 134.581 19.9635 134.581 21.0658C134.581 22.1682 134.886 23.036 135.496 23.681C136.106 24.3259 136.851 24.6484 137.724 24.6484C138.598 24.6484 139.343 24.3318 139.952 23.6927C140.562 23.0594 140.867 22.1916 140.867 21.0893C140.867 19.9869 140.562 19.125 139.952 18.4858V18.4917Z" fill="#1A1A1A"/>
<path d="M148.085 17.1776C148.642 16.0635 149.404 15.2015 150.366 14.5976C151.327 13.9936 152.4 13.6946 153.585 13.6946C154.529 13.6946 155.391 13.894 156.176 14.2868C156.956 14.6797 157.572 15.2133 158.017 15.8876V9.21484H162.427V28.289H158.017V26.225C157.607 26.9111 157.015 27.4622 156.253 27.8727C155.49 28.2831 154.599 28.4884 153.585 28.4884C152.4 28.4884 151.327 28.1835 150.366 27.5736C149.404 26.9638 148.642 26.096 148.085 24.9702C147.528 23.8444 147.246 22.5427 147.246 21.0651C147.246 19.5875 147.528 18.2916 148.085 17.1717V17.1776ZM157.103 18.491C156.493 17.8577 155.748 17.5352 154.875 17.5352C154.001 17.5352 153.256 17.846 152.646 18.4734C152.037 19.1008 151.732 19.9627 151.732 21.0651C151.732 22.1674 152.037 23.0352 152.646 23.6802C153.256 24.3252 154.001 24.6477 154.875 24.6477C155.748 24.6477 156.493 24.3311 157.103 23.692C157.713 23.0587 158.017 22.1909 158.017 21.0885C158.017 19.9862 157.713 19.1243 157.103 18.4851V18.491Z" fill="#1A1A1A"/>
<path d="M179.851 13.9062L170.833 35.1147H166.09L169.391 27.797L163.539 13.9062H168.464L171.789 22.9009L175.09 13.9062H179.857H179.851Z" fill="#1A1A1A"/>
<path d="M199.982 18.89C199.501 19.7578 198.762 20.4556 197.766 20.9891C196.769 21.5227 195.532 21.7866 194.054 21.7866H191.322V28.2834H186.912V10.1943H194.048C195.491 10.1943 196.71 10.4406 197.707 10.939C198.704 11.4374 199.448 12.1234 199.947 13.003C200.445 13.8767 200.691 14.8852 200.691 16.0168C200.691 17.0664 200.451 18.0222 199.97 18.89H199.982ZM195.602 17.6938C196.012 17.301 196.218 16.7381 196.218 16.0168C196.218 15.2956 196.012 14.7386 195.602 14.3399C195.191 13.947 194.564 13.7477 193.72 13.7477H191.322V18.286H193.72C194.564 18.286 195.191 18.0867 195.602 17.6938Z" fill="#1A1A1A"/>
<path d="M206.431 27.2819C205.012 26.4903 203.886 25.388 203.054 23.969C202.221 22.55 201.805 20.961 201.805 19.1902C201.805 17.4194 202.221 15.8304 203.054 14.4231C203.886 13.0159 205.012 11.9135 206.431 11.1219C207.85 10.3304 209.41 9.9375 211.11 9.9375C212.811 9.9375 214.37 10.3304 215.789 11.1219C217.208 11.9135 218.322 13.01 219.137 14.4231C219.952 15.8304 220.363 17.4194 220.363 19.1902C220.363 20.961 219.952 22.5559 219.126 23.969C218.299 25.388 217.185 26.4903 215.778 27.2819C214.37 28.0735 212.816 28.4663 211.11 28.4663C209.404 28.4663 207.85 28.0735 206.431 27.2819ZM214.576 23.0015C215.443 22.0399 215.877 20.7675 215.877 19.1902C215.877 17.6129 215.443 16.3171 214.576 15.3613C213.708 14.4055 212.553 13.9306 211.11 13.9306C209.668 13.9306 208.483 14.4055 207.615 15.3496C206.748 16.2936 206.314 17.5719 206.314 19.1902C206.314 20.8085 206.748 22.0633 207.615 23.0191C208.483 23.9749 209.644 24.4498 211.11 24.4498C212.576 24.4498 213.708 23.969 214.576 23.0074V23.0015Z" fill="#1A1A1A"/>
<path d="M225.241 27.8194C224.191 27.3914 223.353 26.7522 222.725 25.9137C222.098 25.0694 221.77 24.0609 221.734 22.8706H226.425C226.496 23.539 226.724 24.0491 227.123 24.4068C227.516 24.7586 228.032 24.9345 228.671 24.9345C229.31 24.9345 229.838 24.7821 230.219 24.483C230.594 24.184 230.788 23.7677 230.788 23.2341C230.788 22.7885 230.635 22.4191 230.336 22.1259C230.037 21.8327 229.668 21.5923 229.228 21.4047C228.788 21.217 228.167 21.0001 227.358 20.7597C226.191 20.3961 225.235 20.0385 224.496 19.6749C223.757 19.3114 223.124 18.7837 222.59 18.0742C222.057 17.3705 221.793 16.45 221.793 15.3183C221.793 13.6355 222.403 12.3162 223.622 11.3604C224.842 10.4046 226.431 9.92969 228.39 9.92969C230.348 9.92969 231.99 10.4046 233.209 11.3604C234.429 12.3162 235.08 13.6413 235.168 15.3418H230.401C230.366 14.7554 230.149 14.298 229.756 13.9638C229.363 13.6296 228.853 13.4595 228.237 13.4595C227.703 13.4595 227.275 13.6003 226.947 13.8876C226.619 14.169 226.46 14.5795 226.46 15.1131C226.46 15.6994 226.736 16.1509 227.287 16.4793C227.838 16.8076 228.694 17.1595 229.867 17.5347C231.034 17.9276 231.984 18.3087 232.717 18.6664C233.444 19.0299 234.077 19.5518 234.611 20.2378C235.144 20.9239 235.408 21.8093 235.408 22.894C235.408 23.9788 235.144 24.8642 234.622 25.7027C234.101 26.547 233.338 27.2155 232.342 27.7139C231.345 28.2123 230.166 28.4585 228.812 28.4585C227.457 28.4585 226.302 28.2416 225.253 27.8135L225.241 27.8194Z" fill="#1A1A1A"/>
<path d="M104.13 43.793C103.661 44.2445 102.952 44.4673 101.996 44.4673H100.419V47.8916H99.3457V39.6885H101.996C102.922 39.6885 103.626 39.9113 104.107 40.3569C104.588 40.8026 104.828 41.383 104.828 42.0867C104.828 42.7903 104.594 43.3356 104.13 43.7871V43.793ZM103.315 43.2007C103.597 42.9427 103.738 42.5733 103.738 42.0925C103.738 41.0781 103.157 40.5739 101.996 40.5739H100.419V43.5877H101.996C102.594 43.5877 103.034 43.4587 103.315 43.2007Z" fill="#1A1A1A"/>
<path d="M107.331 47.5865C106.839 47.3109 106.458 46.9239 106.176 46.4138C105.895 45.9095 105.76 45.3232 105.76 44.6547C105.76 43.9863 105.9 43.4116 106.188 42.9074C106.475 42.4031 106.862 42.0102 107.361 41.7405C107.859 41.4708 108.41 41.3359 109.02 41.3359C109.63 41.3359 110.187 41.4708 110.679 41.7405C111.172 42.0102 111.565 42.3972 111.852 42.9015C112.139 43.4058 112.28 43.9863 112.28 44.6547C112.28 45.3232 112.133 45.9095 111.84 46.4138C111.547 46.918 111.148 47.3109 110.644 47.5865C110.14 47.8621 109.583 47.9969 108.973 47.9969C108.363 47.9969 107.824 47.8621 107.331 47.5865ZM110.058 46.789C110.392 46.6073 110.668 46.3376 110.873 45.9799C111.078 45.6163 111.184 45.1824 111.184 44.6606C111.184 44.1387 111.084 43.7048 110.879 43.3413C110.673 42.9777 110.41 42.7139 110.081 42.538C109.753 42.3621 109.395 42.2741 109.008 42.2741C108.621 42.2741 108.258 42.3621 107.929 42.538C107.607 42.7139 107.343 42.9836 107.149 43.3413C106.956 43.7048 106.856 44.1387 106.856 44.6606C106.856 45.1824 106.95 45.6281 107.144 45.9916C107.337 46.3551 107.595 46.619 107.912 46.7949C108.234 46.9708 108.586 47.0588 108.973 47.0588C109.36 47.0588 109.718 46.9708 110.058 46.789Z" fill="#1A1A1A"/>
<path d="M122.284 41.4404L120.273 47.8903H119.165L117.611 42.7715L116.057 47.8903H114.949L112.926 41.4404H114.022L115.506 46.8525L117.106 41.4404H118.203L119.769 46.8642L121.229 41.4404H122.29H122.284Z" fill="#1A1A1A"/>
<path d="M129.19 45.071H124.036C124.077 45.7043 124.294 46.2027 124.687 46.5604C125.086 46.918 125.56 47.094 126.129 47.094C126.592 47.094 126.979 46.9884 127.29 46.7715C127.601 46.5545 127.818 46.2672 127.941 45.9036H129.096C128.926 46.5252 128.58 47.0295 128.058 47.4164C127.536 47.8034 126.897 47.9969 126.129 47.9969C125.519 47.9969 124.968 47.8621 124.487 47.5865C124.007 47.3109 123.625 46.9239 123.35 46.4138C123.074 45.9095 122.939 45.3232 122.939 44.6547C122.939 43.9863 123.074 43.4058 123.338 42.9015C123.602 42.3972 123.977 42.0102 124.464 41.7405C124.945 41.4708 125.502 41.3359 126.129 41.3359C126.757 41.3359 127.284 41.4708 127.753 41.7347C128.223 42.0044 128.586 42.3679 128.844 42.837C129.096 43.3061 129.225 43.8338 129.225 44.4202C129.225 44.6254 129.213 44.8423 129.19 45.0652V45.071ZM127.847 43.1478C127.665 42.8546 127.419 42.6318 127.114 42.4793C126.804 42.3269 126.463 42.2507 126.082 42.2507C125.543 42.2507 125.08 42.4207 124.699 42.7666C124.317 43.1126 124.1 43.5875 124.048 44.2032H128.117C128.117 43.7928 128.029 43.4468 127.847 43.1478Z" fill="#1A1A1A"/>
<path d="M132.515 41.634C132.867 41.4288 133.289 41.3291 133.793 41.3291V42.4373H133.512C132.31 42.4373 131.712 43.0882 131.712 44.3899V47.8963H130.639V41.4464H131.712V42.4959C131.899 42.1265 132.169 41.8392 132.515 41.6399V41.634Z" fill="#1A1A1A"/>
<path d="M135.061 40.1874C134.92 40.0467 134.85 39.8766 134.85 39.6714C134.85 39.4662 134.92 39.2961 135.061 39.1554C135.201 39.0147 135.377 38.9443 135.577 38.9443C135.776 38.9443 135.94 39.0147 136.075 39.1554C136.21 39.2961 136.28 39.4721 136.28 39.6714C136.28 39.8708 136.21 40.0467 136.075 40.1874C135.94 40.3281 135.77 40.3985 135.577 40.3985C135.383 40.3985 135.201 40.3281 135.061 40.1874ZM136.099 41.4481V47.898H135.026V41.4481H136.099Z" fill="#1A1A1A"/>
<path d="M142.968 42.0386C143.455 42.5135 143.696 43.1996 143.696 44.0908V47.8904H142.634V44.2433C142.634 43.5983 142.476 43.1058 142.153 42.7657C141.831 42.4256 141.391 42.2555 140.834 42.2555C140.277 42.2555 139.82 42.4314 139.485 42.7833C139.151 43.1351 138.987 43.6511 138.987 44.3254V47.8904H137.914V41.4405H138.987V42.3611C139.198 42.0327 139.486 41.7747 139.849 41.5988C140.213 41.4171 140.617 41.3291 141.057 41.3291C141.843 41.3291 142.476 41.5636 142.963 42.0386H142.968Z" fill="#1A1A1A"/>
<path d="M149.577 41.7044C150 41.9448 150.31 42.2555 150.516 42.6249V41.4464H151.6V48.037C151.6 48.6234 151.477 49.1511 151.225 49.6084C150.973 50.0658 150.615 50.4235 150.146 50.6873C149.677 50.9453 149.138 51.0743 148.516 51.0743C147.666 51.0743 146.962 50.875 146.399 50.4762C145.836 50.0775 145.502 49.5322 145.397 48.8403H146.458C146.575 49.2332 146.822 49.5498 147.185 49.7902C147.555 50.0306 147.994 50.1479 148.516 50.1479C149.103 50.1479 149.583 49.9661 149.959 49.5967C150.334 49.2273 150.516 48.7113 150.516 48.0429V46.6884C150.305 47.0636 149.988 47.3803 149.572 47.6324C149.155 47.8845 148.669 48.0077 148.112 48.0077C147.555 48.0077 147.021 47.867 146.552 47.5855C146.083 47.3041 145.719 46.9053 145.449 46.3952C145.18 45.8851 145.051 45.3046 145.051 44.6537C145.051 44.0029 145.186 43.4165 145.449 42.9181C145.713 42.4197 146.083 42.0327 146.552 41.7571C147.021 41.4815 147.537 41.3467 148.112 41.3467C148.686 41.3467 149.155 41.4698 149.577 41.7102V41.7044ZM150.217 43.3872C150.023 43.0237 149.753 42.7481 149.425 42.5604C149.091 42.3669 148.727 42.2731 148.323 42.2731C147.918 42.2731 147.56 42.3669 147.226 42.5546C146.892 42.7422 146.634 43.0178 146.44 43.3755C146.247 43.739 146.147 44.1612 146.147 44.6479C146.147 45.1345 146.247 45.5743 146.44 45.9378C146.634 46.3014 146.898 46.5828 147.226 46.7705C147.555 46.9581 147.918 47.0578 148.323 47.0578C148.727 47.0578 149.091 46.964 149.425 46.7705C149.759 46.577 150.023 46.3014 150.217 45.9378C150.41 45.5743 150.51 45.1463 150.51 44.6596C150.51 44.1729 150.41 43.7507 150.217 43.3872Z" fill="#1A1A1A"/>
<path d="M162.29 39.6885L159.622 44.7956V47.8916H158.549V44.7956L155.863 39.6885H157.054L159.076 43.8399L161.099 39.6885H162.29Z" fill="#1A1A1A"/>
<path d="M164.589 47.5865C164.096 47.3109 163.715 46.9239 163.434 46.4138C163.152 45.9095 163.018 45.3232 163.018 44.6547C163.018 43.9863 163.158 43.4116 163.446 42.9074C163.733 42.4031 164.12 42.0102 164.618 41.7405C165.117 41.4708 165.668 41.3359 166.278 41.3359C166.888 41.3359 167.445 41.4708 167.937 41.7405C168.43 42.0102 168.823 42.3972 169.11 42.9015C169.397 43.4058 169.538 43.9863 169.538 44.6547C169.538 45.3232 169.391 45.9095 169.098 46.4138C168.805 46.918 168.406 47.3109 167.902 47.5865C167.398 47.8621 166.841 47.9969 166.231 47.9969C165.621 47.9969 165.082 47.8621 164.589 47.5865ZM167.316 46.789C167.65 46.6073 167.925 46.3376 168.131 45.9799C168.336 45.6163 168.441 45.1824 168.441 44.6606C168.441 44.1387 168.342 43.7048 168.136 43.3413C167.931 42.9777 167.667 42.7139 167.339 42.538C167.011 42.3621 166.653 42.2741 166.266 42.2741C165.879 42.2741 165.515 42.3621 165.187 42.538C164.865 42.7139 164.601 42.9836 164.407 43.3413C164.214 43.7048 164.114 44.1387 164.114 44.6606C164.114 45.1824 164.208 45.6281 164.401 45.9916C164.595 46.3551 164.853 46.619 165.17 46.7949C165.492 46.9708 165.844 47.0588 166.231 47.0588C166.618 47.0588 166.975 46.9708 167.316 46.789Z" fill="#1A1A1A"/>
<path d="M176.668 41.4424V47.8923H175.595V46.9365C175.39 47.2649 175.108 47.5229 174.739 47.7047C174.376 47.8864 173.971 47.9803 173.531 47.9803C173.027 47.9803 172.575 47.8747 172.177 47.6695C171.778 47.4643 171.461 47.1476 171.227 46.7313C170.998 46.315 170.881 45.8107 170.881 45.2127V41.4365H171.942V45.0719C171.942 45.7052 172.1 46.1977 172.423 46.5378C172.745 46.8779 173.185 47.0479 173.742 47.0479C174.299 47.0479 174.768 46.872 175.097 46.5202C175.425 46.1684 175.589 45.6524 175.589 44.9781V41.4365H176.662L176.668 41.4424Z" fill="#1A1A1A"/>
<path d="M180.355 41.634C180.707 41.4288 181.129 41.3291 181.633 41.3291V42.4373H181.352C180.15 42.4373 179.552 43.0882 179.552 44.3899V47.8963H178.479V41.4464H179.552V42.4959C179.739 42.1265 180.009 41.8392 180.355 41.6399V41.634Z" fill="#1A1A1A"/>
<path d="M190.935 44.0334C191.181 44.2269 191.381 44.4731 191.522 44.7605C191.668 45.0536 191.738 45.3585 191.738 45.6928C191.738 46.1091 191.633 46.4843 191.422 46.8186C191.211 47.1528 190.9 47.4166 190.495 47.6043C190.091 47.7978 189.616 47.8916 189.065 47.8916H186.004V39.6885H188.947C189.504 39.6885 189.979 39.7823 190.372 39.9641C190.765 40.1458 191.058 40.398 191.258 40.7087C191.451 41.0254 191.551 41.3772 191.551 41.77C191.551 42.2567 191.422 42.6613 191.158 42.9779C190.894 43.2946 190.548 43.5232 190.114 43.664C190.413 43.7109 190.683 43.834 190.929 44.0275L190.935 44.0334ZM187.083 43.2359H188.883C189.387 43.2359 189.774 43.1187 190.05 42.8841C190.325 42.6496 190.46 42.3212 190.46 41.9049C190.46 41.4886 190.325 41.1661 190.05 40.9257C189.774 40.6911 189.381 40.5739 188.859 40.5739H187.083V43.2359ZM190.226 46.6368C190.525 46.3847 190.671 46.0387 190.671 45.5872C190.671 45.1357 190.513 44.7722 190.202 44.5083C189.886 44.2445 189.469 44.1155 188.942 44.1155H187.083V47.0121H188.977C189.51 47.0121 189.927 46.8889 190.226 46.6368Z" fill="#1A1A1A"/>
<path d="M198.944 41.4424V47.8923H197.871V46.9365C197.665 47.2649 197.384 47.5229 197.014 47.7047C196.651 47.8864 196.246 47.9803 195.807 47.9803C195.302 47.9803 194.851 47.8747 194.452 47.6695C194.053 47.4643 193.737 47.1476 193.502 46.7313C193.274 46.315 193.156 45.8107 193.156 45.2127V41.4365H194.218V45.0719C194.218 45.7052 194.376 46.1977 194.698 46.5378C195.021 46.8779 195.461 47.0479 196.018 47.0479C196.575 47.0479 197.044 46.872 197.372 46.5202C197.701 46.1684 197.865 45.6524 197.865 44.9781V41.4365H198.938L198.944 41.4424Z" fill="#1A1A1A"/>
<path d="M201.71 47.7468C201.317 47.5767 201.006 47.3422 200.778 47.0431C200.549 46.7441 200.426 46.3923 200.402 45.9994H201.511C201.54 46.3219 201.692 46.5858 201.962 46.7851C202.232 46.9904 202.589 47.09 203.029 47.09C203.44 47.09 203.756 47.0021 203.997 46.8203C204.231 46.6385 204.349 46.4099 204.349 46.1401C204.349 45.8704 204.225 45.6476 203.973 45.5127C203.721 45.3779 203.334 45.243 202.806 45.1082C202.326 44.985 201.939 44.856 201.634 44.727C201.329 44.598 201.071 44.4045 200.86 44.1524C200.643 43.9003 200.537 43.5602 200.537 43.1439C200.537 42.8155 200.637 42.5106 200.83 42.235C201.024 41.9594 201.305 41.7425 201.663 41.5842C202.021 41.4258 202.437 41.3438 202.9 41.3438C203.616 41.3438 204.19 41.5255 204.63 41.8832C205.07 42.2467 205.304 42.7393 205.334 43.3667H204.261C204.237 43.0325 204.102 42.7569 203.856 42.5575C203.61 42.3523 203.275 42.2526 202.859 42.2526C202.472 42.2526 202.167 42.3347 201.939 42.4989C201.71 42.6631 201.599 42.88 201.599 43.1439C201.599 43.355 201.669 43.5309 201.804 43.6657C201.939 43.8006 202.114 43.912 202.32 43.9941C202.525 44.0762 202.818 44.17 203.182 44.2697C203.645 44.3928 204.02 44.5159 204.313 44.6391C204.601 44.7622 204.853 44.944 205.058 45.1844C205.263 45.4248 205.375 45.7473 205.38 46.1401C205.38 46.492 205.281 46.8086 205.087 47.0959C204.894 47.3773 204.612 47.6002 204.261 47.7585C203.903 47.9168 203.492 47.9989 203.029 47.9989C202.537 47.9989 202.091 47.9168 201.698 47.7468H201.71Z" fill="#1A1A1A"/>
<path d="M206.936 40.1874C206.795 40.0467 206.725 39.8766 206.725 39.6714C206.725 39.4662 206.795 39.2961 206.936 39.1554C207.076 39.0147 207.252 38.9443 207.452 38.9443C207.651 38.9443 207.815 39.0147 207.95 39.1554C208.085 39.2961 208.155 39.4721 208.155 39.6714C208.155 39.8708 208.085 40.0467 207.95 40.1874C207.815 40.3281 207.645 40.3985 207.452 40.3985C207.258 40.3985 207.076 40.3281 206.936 40.1874ZM207.974 41.4481V47.898H206.901V41.4481H207.974Z" fill="#1A1A1A"/>
<path d="M214.84 42.0386C215.326 42.5135 215.567 43.1996 215.567 44.0908V47.8904H214.505V44.2433C214.505 43.5983 214.347 43.1058 214.025 42.7657C213.702 42.4256 213.262 42.2555 212.705 42.2555C212.148 42.2555 211.691 42.4314 211.357 42.7833C211.022 43.1351 210.858 43.6511 210.858 44.3254V47.8904H209.785V41.4405H210.858V42.3611C211.069 42.0327 211.357 41.7747 211.72 41.5988C212.084 41.4171 212.488 41.3291 212.928 41.3291C213.714 41.3291 214.347 41.5636 214.834 42.0386H214.84Z" fill="#1A1A1A"/>
<path d="M223.172 45.071H218.018C218.059 45.7043 218.276 46.2027 218.669 46.5604C219.068 46.918 219.543 47.094 220.112 47.094C220.575 47.094 220.962 46.9884 221.273 46.7715C221.583 46.5545 221.8 46.2672 221.923 45.9036H223.079C222.909 46.5252 222.563 47.0295 222.041 47.4164C221.519 47.8034 220.88 47.9969 220.112 47.9969C219.502 47.9969 218.951 47.8621 218.47 47.5865C217.989 47.3109 217.608 46.9239 217.332 46.4138C217.057 45.9095 216.922 45.3232 216.922 44.6547C216.922 43.9863 217.057 43.4058 217.321 42.9015C217.584 42.3972 217.96 42.0102 218.446 41.7405C218.927 41.4708 219.484 41.3359 220.112 41.3359C220.739 41.3359 221.267 41.4708 221.736 41.7347C222.205 42.0044 222.568 42.3679 222.826 42.837C223.079 43.3061 223.208 43.8338 223.208 44.4202C223.208 44.6254 223.196 44.8423 223.172 45.0652V45.071ZM221.83 43.1478C221.648 42.8546 221.402 42.6318 221.097 42.4793C220.786 42.3269 220.446 42.2507 220.065 42.2507C219.525 42.2507 219.062 42.4207 218.681 42.7666C218.3 43.1126 218.083 43.5875 218.03 44.2032H222.099C222.099 43.7928 222.011 43.4468 221.83 43.1478Z" fill="#1A1A1A"/>
<path d="M225.569 47.7468C225.176 47.5767 224.866 47.3422 224.637 47.0431C224.408 46.7441 224.285 46.3923 224.262 45.9994H225.37C225.399 46.3219 225.552 46.5858 225.821 46.7851C226.091 46.9904 226.449 47.09 226.889 47.09C227.299 47.09 227.616 47.0021 227.856 46.8203C228.091 46.6385 228.208 46.4099 228.208 46.1401C228.208 45.8704 228.085 45.6476 227.833 45.5127C227.58 45.3779 227.194 45.243 226.666 45.1082C226.185 44.985 225.798 44.856 225.493 44.727C225.188 44.598 224.93 44.4045 224.719 44.1524C224.502 43.9003 224.397 43.5602 224.397 43.1439C224.397 42.8155 224.496 42.5106 224.69 42.235C224.883 41.9594 225.165 41.7425 225.522 41.5842C225.88 41.4258 226.296 41.3438 226.76 41.3438C227.475 41.3438 228.05 41.5255 228.489 41.8832C228.929 42.2467 229.164 42.7393 229.193 43.3667H228.12C228.096 43.0325 227.962 42.7569 227.715 42.5575C227.469 42.3523 227.135 42.2526 226.719 42.2526C226.332 42.2526 226.027 42.3347 225.798 42.4989C225.569 42.6631 225.458 42.88 225.458 43.1439C225.458 43.355 225.528 43.5309 225.663 43.6657C225.798 43.8006 225.974 43.912 226.179 43.9941C226.384 44.0762 226.677 44.17 227.041 44.2697C227.504 44.3928 227.88 44.5159 228.173 44.6391C228.46 44.7622 228.712 44.944 228.917 45.1844C229.123 45.4248 229.234 45.7473 229.24 46.1401C229.24 46.492 229.14 46.8086 228.947 47.0959C228.753 47.3773 228.472 47.6002 228.12 47.7585C227.762 47.9168 227.352 47.9989 226.889 47.9989C226.396 47.9989 225.95 47.9168 225.558 47.7468H225.569Z" fill="#1A1A1A"/>
<path d="M231.716 47.7468C231.323 47.5767 231.012 47.3422 230.783 47.0431C230.555 46.7441 230.432 46.3923 230.408 45.9994H231.516C231.546 46.3219 231.698 46.5858 231.968 46.7851C232.238 46.9904 232.595 47.09 233.035 47.09C233.446 47.09 233.762 47.0021 234.003 46.8203C234.237 46.6385 234.354 46.4099 234.354 46.1401C234.354 45.8704 234.231 45.6476 233.979 45.5127C233.727 45.3779 233.34 45.243 232.812 45.1082C232.331 44.985 231.944 44.856 231.64 44.727C231.335 44.598 231.077 44.4045 230.866 44.1524C230.649 43.9003 230.543 43.5602 230.543 43.1439C230.543 42.8155 230.643 42.5106 230.836 42.235C231.03 41.9594 231.311 41.7425 231.669 41.5842C232.027 41.4258 232.443 41.3438 232.906 41.3438C233.621 41.3438 234.196 41.5255 234.636 41.8832C235.076 42.2467 235.31 42.7393 235.339 43.3667H234.266C234.243 43.0325 234.108 42.7569 233.862 42.5575C233.616 42.3523 233.281 42.2526 232.865 42.2526C232.478 42.2526 232.173 42.3347 231.944 42.4989C231.716 42.6631 231.604 42.88 231.604 43.1439C231.604 43.355 231.675 43.5309 231.81 43.6657C231.944 43.8006 232.12 43.912 232.326 43.9941C232.531 44.0762 232.824 44.17 233.188 44.2697C233.651 44.3928 234.026 44.5159 234.319 44.6391C234.607 44.7622 234.859 44.944 235.064 45.1844C235.269 45.4248 235.38 45.7473 235.386 46.1401C235.386 46.492 235.287 46.8086 235.093 47.0959C234.9 47.3773 234.618 47.6002 234.266 47.7585C233.909 47.9168 233.498 47.9989 233.035 47.9989C232.543 47.9989 232.097 47.9168 231.704 47.7468H231.716Z" fill="#1A1A1A"/>
<path d="M73.6263 41.1585H60.2164L53.9919 32.5686H36.4021V41.1585H28.9445L24.9567 24.7902H58.6042C60.3339 24.7902 61.7325 23.5322 61.7325 21.9765V19.4845C61.7325 17.9336 60.3339 16.6708 58.6042 16.6708H11.0397L8.25307 5.24805H2.91473C1.30789 5.24805 0 4.07168 0 2.62162C0 1.8966 0.325638 1.24359 0.854134 0.768242C1.38263 0.292892 2.11398 0 2.91473 0H12.9455L15.1929 9.2285H63.2219C68.8805 9.2285 73.4769 13.3578 73.4769 18.4522V23.3497C73.4769 27.263 70.765 30.6048 66.9374 31.9444L73.6263 41.1585Z" fill="#38BDF8"/>
<path d="M82.382 35.1959V47.8239C82.382 49.6292 80.7538 51.0937 78.7466 51.0937H65.8224C64.8562 49.5284 63.0091 48.4721 60.8845 48.4721C58.7598 48.4721 56.9074 49.5284 55.9465 51.0937H44.5118C43.5509 49.5284 41.6985 48.4721 39.5738 48.4721C37.4492 48.4721 35.5968 49.5284 34.6359 51.0937H22.3524C20.6441 51.0937 19.1654 50.0229 18.8024 48.5201L13.0156 24.791H18.9892L23.9112 45.0054C24.034 45.4999 24.5197 45.8504 25.0803 45.8504H75.3514C76.0133 45.8504 76.5472 45.3703 76.5472 44.7749V35.1959C76.5472 33.7458 77.8551 32.5695 79.4619 32.5695C80.268 32.5695 80.9993 32.8624 81.5278 33.3377C82.0563 33.8131 82.382 34.4709 82.382 35.1959Z" fill="#38BDF8"/>
<path d="M39.5716 55.9999C41.0782 55.9999 42.2995 54.9014 42.2995 53.5463C42.2995 52.1913 41.0782 51.0928 39.5716 51.0928C38.0651 51.0928 36.8438 52.1913 36.8438 53.5463C36.8438 54.9014 38.0651 55.9999 39.5716 55.9999Z" fill="#38BDF8"/>
<path d="M60.8841 55.9999C62.3907 55.9999 63.612 54.9014 63.612 53.5463C63.612 52.1913 62.3907 51.0928 60.8841 51.0928C59.3776 51.0928 58.1562 52.1913 58.1562 53.5463C58.1562 54.9014 59.3776 55.9999 60.8841 55.9999Z" fill="#38BDF8"/>
</svg>
