<svg width="238" height="56" viewBox="0 0 238 56" fill="none" xmlns="http://www.w3.org/2000/svg">
<path d="M108.741 28.6256L104.911 21.6742H103.837V28.6256H99.3496V10.2178H106.874C108.324 10.2178 109.565 10.4684 110.585 10.9756C111.606 11.4828 112.375 12.1749 112.882 13.058C113.39 13.9411 113.64 14.9256 113.64 16.0056C113.64 17.2289 113.294 18.3208 112.602 19.2815C111.91 20.2421 110.896 20.9283 109.547 21.3281L113.795 28.6196H108.736L108.741 28.6256ZM103.837 18.4998H106.617C107.441 18.4998 108.055 18.2969 108.467 17.8971C108.879 17.4974 109.082 16.9245 109.082 16.1906C109.082 15.4567 108.879 14.9435 108.467 14.5378C108.055 14.138 107.441 13.9351 106.617 13.9351H103.837V18.4998Z" fill="white"/>
<path d="M129.429 22.3778H119.28C119.351 23.2847 119.644 23.9829 120.157 24.4602C120.67 24.9435 121.308 25.1822 122.06 25.1822C123.176 25.1822 123.958 24.7108 124.393 23.7681H129.167C128.922 24.7287 128.481 25.5939 127.842 26.3637C127.204 27.1334 126.404 27.736 125.443 28.1716C124.483 28.6072 123.409 28.828 122.215 28.828C120.783 28.828 119.506 28.5237 118.385 27.9091C117.263 27.2945 116.392 26.4233 115.759 25.2837C115.133 24.1499 114.816 22.8193 114.816 21.2978C114.816 19.7762 115.127 18.4456 115.747 17.3119C116.368 16.1782 117.239 15.3011 118.355 14.6865C119.471 14.0719 120.759 13.7676 122.209 13.7676C123.659 13.7676 124.883 14.0659 125.986 14.6566C127.09 15.2533 127.95 16.1006 128.57 17.1985C129.191 18.3024 129.501 19.5853 129.501 21.0531C129.501 21.4708 129.477 21.9124 129.423 22.3659L129.429 22.3778ZM124.918 19.8836C124.918 19.1139 124.656 18.5053 124.131 18.0458C123.606 17.5923 122.949 17.3656 122.162 17.3656C121.374 17.3656 120.777 17.5864 120.258 18.022C119.745 18.4575 119.423 19.0781 119.304 19.8836H124.918Z" fill="white"/>
<path d="M131.494 17.3178C132.061 16.1841 132.836 15.3069 133.815 14.6923C134.794 14.0777 135.886 13.7734 137.091 13.7734C138.123 13.7734 139.024 13.9823 139.806 14.4C140.581 14.8176 141.184 15.3726 141.602 16.0528V13.9823H146.089V28.619H141.602V26.5485C141.166 27.2288 140.558 27.7837 139.782 28.2014C139.006 28.619 138.099 28.8279 137.067 28.8279C135.88 28.8279 134.794 28.5176 133.815 27.897C132.836 27.2765 132.061 26.3934 131.494 25.2477C130.927 24.1021 130.641 22.7775 130.641 21.2738C130.641 19.7702 130.927 18.4515 131.494 17.3118V17.3178ZM140.671 18.6543C140.05 18.0099 139.293 17.6817 138.404 17.6817C137.514 17.6817 136.757 17.998 136.136 18.6364C135.516 19.2749 135.205 20.152 135.205 21.2738C135.205 22.3956 135.516 23.2787 136.136 23.935C136.757 24.5914 137.514 24.9196 138.404 24.9196C139.293 24.9196 140.05 24.5974 140.671 23.947C141.292 23.3025 141.602 22.4194 141.602 21.2977C141.602 20.1759 141.292 19.2988 140.671 18.6484V18.6543Z" fill="white"/>
<path d="M148.947 17.3179C149.514 16.1842 150.29 15.307 151.268 14.6924C152.247 14.0779 153.339 13.7735 154.544 13.7735C155.505 13.7735 156.382 13.9764 157.181 14.3762C157.975 14.776 158.601 15.319 159.055 16.0052V9.21484H163.542V28.6251H159.055V26.5248C158.637 27.2229 158.035 27.7838 157.259 28.2015C156.483 28.6191 155.576 28.828 154.544 28.828C153.339 28.828 152.247 28.5177 151.268 27.8971C150.29 27.2766 149.514 26.3935 148.947 25.2479C148.38 24.1022 148.094 22.7776 148.094 21.2739C148.094 19.7703 148.38 18.4516 148.947 17.3119V17.3179ZM158.124 18.6544C157.504 18.01 156.746 17.6818 155.857 17.6818C154.968 17.6818 154.21 17.9981 153.589 18.6365C152.969 19.275 152.658 20.1521 152.658 21.2739C152.658 22.3957 152.969 23.2788 153.589 23.9351C154.21 24.5915 154.968 24.9197 155.857 24.9197C156.746 24.9197 157.504 24.5975 158.124 23.9471C158.745 23.3026 159.055 22.4196 159.055 21.2978C159.055 20.176 158.745 19.2989 158.124 18.6485V18.6544Z" fill="white"/>
<path d="M181.274 13.9883L172.097 35.5705H167.269L170.629 28.1238L164.674 13.9883H169.686L173.069 23.1415L176.429 13.9883H181.28H181.274Z" fill="white"/>
<path d="M201.759 19.0608C201.27 19.9439 200.518 20.654 199.504 21.1969C198.489 21.7399 197.23 22.0084 195.727 22.0084H192.946V28.6197H188.459V10.2119H195.721C197.189 10.2119 198.43 10.4625 199.444 10.9697C200.458 11.4769 201.216 12.175 201.723 13.0701C202.231 13.9591 202.481 14.9854 202.481 16.137C202.481 17.2051 202.237 18.1777 201.747 19.0608H201.759ZM197.302 17.8436C197.72 17.4438 197.928 16.871 197.928 16.137C197.928 15.4031 197.72 14.8362 197.302 14.4305C196.884 14.0307 196.246 13.8278 195.387 13.8278H192.946V18.4462H195.387C196.246 18.4462 196.884 18.2433 197.302 17.8436Z" fill="white"/>
<path d="M208.323 27.5983C206.879 26.7927 205.733 25.671 204.886 24.227C204.039 22.783 203.615 21.166 203.615 19.364C203.615 17.562 204.039 15.945 204.886 14.5129C205.733 13.0809 206.879 11.9591 208.323 11.1536C209.767 10.348 211.354 9.94824 213.085 9.94824C214.815 9.94824 216.402 10.348 217.846 11.1536C219.29 11.9591 220.424 13.0749 221.253 14.5129C222.083 15.945 222.5 17.562 222.5 19.364C222.5 21.166 222.083 22.789 221.241 24.227C220.4 25.671 219.266 26.7927 217.834 27.5983C216.402 28.4038 214.821 28.8036 213.085 28.8036C211.348 28.8036 209.767 28.4038 208.323 27.5983ZM216.611 23.2425C217.494 22.2639 217.936 20.9691 217.936 19.364C217.936 17.7589 217.494 16.4402 216.611 15.4676C215.728 14.495 214.553 14.0117 213.085 14.0117C211.617 14.0117 210.412 14.495 209.528 15.4557C208.645 16.4163 208.204 17.7171 208.204 19.364C208.204 21.0108 208.645 22.2877 209.528 23.2604C210.412 24.233 211.593 24.7163 213.085 24.7163C214.576 24.7163 215.728 24.227 216.611 23.2484V23.2425Z" fill="white"/>
<path d="M227.465 28.1473C226.397 27.7118 225.543 27.0614 224.905 26.2081C224.266 25.3489 223.932 24.3226 223.896 23.1113H228.67C228.742 23.7915 228.974 24.3106 229.38 24.6746C229.78 25.0326 230.305 25.2116 230.955 25.2116C231.606 25.2116 232.143 25.0565 232.531 24.7522C232.912 24.4479 233.109 24.0242 233.109 23.4812C233.109 23.0278 232.954 22.6518 232.65 22.3535C232.346 22.0551 231.97 21.8105 231.522 21.6196C231.075 21.4286 230.442 21.2079 229.619 20.9632C228.431 20.5933 227.459 20.2293 226.707 19.8593C225.955 19.4894 225.311 18.9524 224.768 18.2304C224.225 17.5144 223.956 16.5776 223.956 15.4259C223.956 13.7134 224.577 12.3709 225.818 11.3983C227.059 10.4257 228.676 9.94238 230.669 9.94238C232.662 9.94238 234.333 10.4257 235.574 11.3983C236.815 12.3709 237.477 13.7194 237.567 15.4498H232.716C232.68 14.8531 232.459 14.3877 232.059 14.0476C231.659 13.7075 231.14 13.5344 230.514 13.5344C229.971 13.5344 229.535 13.6776 229.201 13.97C228.867 14.2564 228.706 14.6741 228.706 15.2171C228.706 15.8138 228.986 16.2732 229.547 16.6074C230.108 16.9415 230.979 17.2995 232.173 17.6814C233.36 18.0812 234.327 18.4691 235.072 18.833C235.812 19.203 236.457 19.734 237 20.4322C237.543 21.1303 237.811 22.0313 237.811 23.1352C237.811 24.239 237.543 25.14 237.012 25.9933C236.481 26.8525 235.705 27.5327 234.691 28.0399C233.676 28.5471 232.477 28.7977 231.099 28.7977C229.72 28.7977 228.545 28.5769 227.477 28.1414L227.465 28.1473Z" fill="white"/>
<path d="M104.219 43.6631C103.741 44.1226 103.019 44.3493 102.047 44.3493H100.442V47.834H99.3496V39.4863H102.047C102.989 39.4863 103.705 39.7131 104.195 40.1666C104.684 40.62 104.929 41.2108 104.929 41.9268C104.929 42.6428 104.69 43.1977 104.219 43.6572V43.6631ZM103.389 43.0605C103.676 42.7979 103.819 42.422 103.819 41.9327C103.819 40.9005 103.228 40.3873 102.047 40.3873H100.442V43.4543H102.047C102.655 43.4543 103.103 43.323 103.389 43.0605Z" fill="white"/>
<path d="M107.476 47.5248C106.975 47.2443 106.587 46.8505 106.301 46.3314C106.014 45.8182 105.877 45.2215 105.877 44.5413C105.877 43.8611 106.02 43.2763 106.313 42.7632C106.605 42.25 106.999 41.8503 107.506 41.5758C108.013 41.3013 108.574 41.1641 109.195 41.1641C109.815 41.1641 110.382 41.3013 110.883 41.5758C111.384 41.8503 111.784 42.2441 112.077 42.7572C112.369 43.2704 112.512 43.8611 112.512 44.5413C112.512 45.2215 112.363 45.8182 112.065 46.3314C111.766 46.8445 111.361 47.2443 110.847 47.5248C110.334 47.8052 109.767 47.9424 109.147 47.9424C108.526 47.9424 107.977 47.8052 107.476 47.5248ZM110.251 46.7133C110.591 46.5283 110.871 46.2538 111.08 45.8898C111.289 45.5199 111.396 45.0783 111.396 44.5473C111.396 44.0162 111.295 43.5747 111.086 43.2047C110.877 42.8348 110.609 42.5663 110.275 42.3873C109.94 42.2083 109.576 42.1188 109.183 42.1188C108.789 42.1188 108.419 42.2083 108.085 42.3873C107.757 42.5663 107.488 42.8408 107.291 43.2047C107.094 43.5747 106.993 44.0162 106.993 44.5473C106.993 45.0783 107.088 45.5318 107.285 45.9018C107.482 46.2717 107.745 46.5402 108.067 46.7192C108.395 46.8982 108.753 46.9877 109.147 46.9877C109.541 46.9877 109.905 46.8982 110.251 46.7133Z" fill="white"/>
<path d="M122.693 41.2705L120.646 47.8341H119.519L117.937 42.625L116.356 47.8341H115.228L113.17 41.2705H114.286L115.795 46.7779L117.424 41.2705H118.54L120.133 46.7899L121.619 41.2705H122.699H122.693Z" fill="white"/>
<path d="M129.72 44.965H124.475C124.517 45.6094 124.738 46.1166 125.138 46.4806C125.543 46.8445 126.027 47.0235 126.605 47.0235C127.077 47.0235 127.471 46.9161 127.787 46.6954C128.103 46.4746 128.324 46.1822 128.449 45.8123H129.625C129.452 46.4448 129.1 46.9579 128.568 47.3517C128.037 47.7455 127.387 47.9424 126.605 47.9424C125.985 47.9424 125.424 47.8052 124.935 47.5248C124.445 47.2443 124.057 46.8505 123.777 46.3314C123.497 45.8182 123.359 45.2215 123.359 44.5413C123.359 43.8611 123.497 43.2704 123.765 42.7572C124.034 42.2441 124.416 41.8503 124.911 41.5758C125.4 41.3013 125.967 41.1641 126.605 41.1641C127.244 41.1641 127.781 41.3013 128.258 41.5698C128.736 41.8443 129.105 42.2142 129.368 42.6916C129.625 43.1689 129.756 43.706 129.756 44.3026C129.756 44.5115 129.744 44.7323 129.72 44.959V44.965ZM128.354 43.0078C128.169 42.7095 127.918 42.4827 127.608 42.3276C127.292 42.1725 126.945 42.0949 126.558 42.0949C126.009 42.0949 125.537 42.2679 125.149 42.62C124.762 42.972 124.541 43.4553 124.487 44.0819H128.628C128.628 43.6642 128.539 43.3121 128.354 43.0078Z" fill="white"/>
<path d="M133.105 41.4675C133.463 41.2587 133.892 41.1572 134.405 41.1572V42.285H134.119C132.896 42.285 132.287 42.9473 132.287 44.2719V47.8401H131.195V41.2766H132.287V42.3446C132.478 41.9687 132.753 41.6763 133.105 41.4735V41.4675Z" fill="white"/>
<path d="M135.693 39.9945C135.55 39.8513 135.479 39.6782 135.479 39.4694C135.479 39.2605 135.55 39.0875 135.693 38.9443C135.837 38.8011 136.016 38.7295 136.218 38.7295C136.421 38.7295 136.588 38.8011 136.726 38.9443C136.863 39.0875 136.934 39.2665 136.934 39.4694C136.934 39.6723 136.863 39.8513 136.726 39.9945C136.588 40.1377 136.415 40.2093 136.218 40.2093C136.021 40.2093 135.837 40.1377 135.693 39.9945ZM136.749 41.2773V47.8409H135.658V41.2773H136.749Z" fill="white"/>
<path d="M143.743 41.8792C144.238 42.3625 144.483 43.0607 144.483 43.9676V47.8342H143.403V44.1228C143.403 43.4664 143.242 42.9652 142.914 42.6191C142.585 42.273 142.138 42.1 141.571 42.1C141.004 42.1 140.539 42.279 140.199 42.637C139.859 42.995 139.692 43.5201 139.692 44.2063V47.8342H138.6V41.2706H139.692V42.2074C139.906 41.8732 140.199 41.6107 140.569 41.4317C140.939 41.2467 141.35 41.1572 141.798 41.1572C142.597 41.1572 143.242 41.3959 143.737 41.8792H143.743Z" fill="white"/>
<path d="M150.468 41.5398C150.897 41.7844 151.214 42.1006 151.422 42.4766V41.2772H152.526V47.984C152.526 48.5807 152.401 49.1177 152.144 49.5831C151.888 50.0485 151.524 50.4125 151.047 50.681C150.569 50.9436 150.02 51.0748 149.388 51.0748C148.523 51.0748 147.807 50.872 147.234 50.4662C146.661 50.0605 146.321 49.5055 146.213 48.8015H147.293C147.413 49.2012 147.663 49.5234 148.033 49.7681C148.409 50.0127 148.857 50.1321 149.388 50.1321C149.984 50.1321 150.474 49.9471 150.856 49.5712C151.237 49.1953 151.422 48.6702 151.422 47.99V46.6116C151.208 46.9935 150.885 47.3157 150.462 47.5723C150.038 47.8289 149.543 47.9542 148.976 47.9542C148.409 47.9542 147.866 47.811 147.389 47.5245C146.911 47.2381 146.542 46.8324 146.267 46.3133C145.993 45.7941 145.861 45.2034 145.861 44.5411C145.861 43.8788 145.999 43.2821 146.267 42.7749C146.536 42.2677 146.911 41.8739 147.389 41.5935C147.866 41.313 148.391 41.1758 148.976 41.1758C149.561 41.1758 150.038 41.3011 150.468 41.5457V41.5398ZM151.118 43.2523C150.921 42.8823 150.647 42.6019 150.313 42.4109C149.973 42.214 149.603 42.1185 149.191 42.1185C148.779 42.1185 148.415 42.214 148.075 42.405C147.735 42.5959 147.472 42.8763 147.275 43.2403C147.079 43.6103 146.977 44.0399 146.977 44.5351C146.977 45.0304 147.079 45.4779 147.275 45.8478C147.472 46.2178 147.741 46.5042 148.075 46.6951C148.409 46.8861 148.779 46.9875 149.191 46.9875C149.603 46.9875 149.973 46.8921 150.313 46.6951C150.653 46.4982 150.921 46.2178 151.118 45.8478C151.315 45.4779 151.416 45.0423 151.416 44.5471C151.416 44.0518 151.315 43.6222 151.118 43.2523Z" fill="white"/>
<path d="M163.405 39.4863L160.69 44.6835V47.834H159.598V44.6835L156.865 39.4863H158.077L160.135 43.7109L162.194 39.4863H163.405Z" fill="white"/>
<path d="M165.742 47.5248C165.24 47.2443 164.853 46.8505 164.566 46.3314C164.28 45.8182 164.143 45.2215 164.143 44.5413C164.143 43.8611 164.286 43.2763 164.578 42.7632C164.871 42.25 165.264 41.8503 165.772 41.5758C166.279 41.3013 166.84 41.1641 167.46 41.1641C168.081 41.1641 168.648 41.3013 169.149 41.5758C169.65 41.8503 170.05 42.2441 170.342 42.7572C170.635 43.2704 170.778 43.8611 170.778 44.5413C170.778 45.2215 170.629 45.8182 170.33 46.3314C170.032 46.8445 169.626 47.2443 169.113 47.5248C168.6 47.8052 168.033 47.9424 167.412 47.9424C166.792 47.9424 166.243 47.8052 165.742 47.5248ZM168.516 46.7133C168.856 46.5283 169.137 46.2538 169.346 45.8898C169.555 45.5199 169.662 45.0783 169.662 44.5473C169.662 44.0162 169.561 43.5747 169.352 43.2047C169.143 42.8348 168.874 42.5663 168.54 42.3873C168.206 42.2083 167.842 42.1188 167.448 42.1188C167.054 42.1188 166.684 42.2083 166.35 42.3873C166.022 42.5663 165.754 42.8408 165.557 43.2047C165.36 43.5747 165.258 44.0162 165.258 44.5473C165.258 45.0783 165.354 45.5318 165.551 45.9018C165.748 46.2717 166.01 46.5402 166.332 46.7192C166.661 46.8982 167.019 46.9877 167.412 46.9877C167.806 46.9877 168.17 46.8982 168.516 46.7133Z" fill="white"/>
<path d="M178.034 41.2706V47.8342H176.942V46.8616C176.733 47.1957 176.447 47.4583 176.071 47.6432C175.701 47.8282 175.289 47.9237 174.842 47.9237C174.328 47.9237 173.869 47.8163 173.463 47.6074C173.057 47.3986 172.735 47.0764 172.497 46.6527C172.264 46.2291 172.145 45.7159 172.145 45.1073V41.2646H173.225V44.9641C173.225 45.6085 173.386 46.1098 173.714 46.4558C174.042 46.8019 174.49 46.975 175.056 46.975C175.623 46.975 176.101 46.7959 176.435 46.4379C176.769 46.0799 176.936 45.5548 176.936 44.8686V41.2646H178.028L178.034 41.2706Z" fill="white"/>
<path d="M181.786 41.4675C182.144 41.2587 182.574 41.1572 183.087 41.1572V42.285H182.801C181.578 42.285 180.969 42.9473 180.969 44.2719V47.8401H179.877V41.2766H180.969V42.3446C181.16 41.9687 181.434 41.6763 181.786 41.4735V41.4675Z" fill="white"/>
<path d="M192.553 43.9078C192.804 44.1047 193.007 44.3553 193.15 44.6477C193.299 44.946 193.371 45.2563 193.371 45.5964C193.371 46.0201 193.263 46.4019 193.049 46.7421C192.834 47.0822 192.518 47.3507 192.106 47.5416C191.694 47.7385 191.211 47.834 190.65 47.834H187.535V39.4863H190.531C191.097 39.4863 191.581 39.5818 191.98 39.7668C192.38 39.9517 192.679 40.2083 192.881 40.5246C193.078 40.8468 193.18 41.2048 193.18 41.6046C193.18 42.0998 193.049 42.5115 192.78 42.8337C192.512 43.156 192.159 43.3887 191.718 43.5319C192.022 43.5796 192.297 43.7049 192.547 43.9018L192.553 43.9078ZM188.633 43.0963H190.465C190.978 43.0963 191.372 42.977 191.652 42.7383C191.933 42.4996 192.07 42.1655 192.07 41.7418C192.07 41.3182 191.933 40.99 191.652 40.7453C191.372 40.5067 190.972 40.3873 190.441 40.3873H188.633V43.0963ZM191.831 46.5571C192.136 46.3005 192.285 45.9485 192.285 45.489C192.285 45.0296 192.124 44.6596 191.807 44.3911C191.485 44.1226 191.062 43.9913 190.525 43.9913H188.633V46.939H190.56C191.103 46.939 191.527 46.8137 191.831 46.5571Z" fill="white"/>
<path d="M200.704 41.2706V47.8342H199.612V46.8616C199.403 47.1957 199.117 47.4583 198.741 47.6432C198.371 47.8282 197.959 47.9237 197.511 47.9237C196.998 47.9237 196.539 47.8163 196.133 47.6074C195.727 47.3986 195.405 47.0764 195.167 46.6527C194.934 46.2291 194.814 45.7159 194.814 45.1073V41.2646H195.894V44.9641C195.894 45.6085 196.056 46.1098 196.384 46.4558C196.712 46.8019 197.159 46.975 197.726 46.975C198.293 46.975 198.77 46.7959 199.105 46.4379C199.439 46.0799 199.606 45.5548 199.606 44.8686V41.2646H200.698L200.704 41.2706Z" fill="white"/>
<path d="M203.52 47.6858C203.12 47.5127 202.804 47.274 202.571 46.9697C202.339 46.6654 202.213 46.3074 202.189 45.9076H203.317C203.347 46.2358 203.502 46.5043 203.777 46.7072C204.051 46.916 204.415 47.0175 204.863 47.0175C205.28 47.0175 205.603 46.928 205.847 46.743C206.086 46.558 206.205 46.3253 206.205 46.0508C206.205 45.7764 206.08 45.5496 205.823 45.4124C205.567 45.2751 205.173 45.1379 204.636 45.0007C204.147 44.8754 203.753 44.7441 203.443 44.6128C203.132 44.4815 202.87 44.2846 202.655 44.0281C202.434 43.7715 202.327 43.4254 202.327 43.0018C202.327 42.6676 202.428 42.3573 202.625 42.0769C202.822 41.7964 203.108 41.5757 203.472 41.4146C203.836 41.2535 204.26 41.1699 204.731 41.1699C205.459 41.1699 206.044 41.3549 206.492 41.7189C206.939 42.0888 207.178 42.59 207.208 43.2285H206.116C206.092 42.8884 205.955 42.6079 205.704 42.4051C205.453 42.1962 205.113 42.0948 204.69 42.0948C204.296 42.0948 203.985 42.1783 203.753 42.3454C203.52 42.5125 203.407 42.7332 203.407 43.0018C203.407 43.2166 203.478 43.3956 203.616 43.5328C203.753 43.67 203.932 43.7834 204.141 43.867C204.349 43.9505 204.648 44.046 205.018 44.1474C205.489 44.2727 205.871 44.398 206.169 44.5233C206.462 44.6486 206.718 44.8336 206.927 45.0782C207.136 45.3229 207.249 45.651 207.255 46.0508C207.255 46.4088 207.154 46.7311 206.957 47.0234C206.76 47.3098 206.474 47.5366 206.116 47.6977C205.752 47.8588 205.334 47.9423 204.863 47.9423C204.361 47.9423 203.908 47.8588 203.508 47.6858H203.52Z" fill="white"/>
<path d="M208.836 39.9945C208.693 39.8513 208.621 39.6782 208.621 39.4694C208.621 39.2605 208.693 39.0875 208.836 38.9443C208.979 38.8011 209.158 38.7295 209.361 38.7295C209.564 38.7295 209.731 38.8011 209.868 38.9443C210.005 39.0875 210.077 39.2665 210.077 39.4694C210.077 39.6723 210.005 39.8513 209.868 39.9945C209.731 40.1377 209.558 40.2093 209.361 40.2093C209.164 40.2093 208.979 40.1377 208.836 39.9945ZM209.892 41.2773V47.8409H208.8V41.2773H209.892Z" fill="white"/>
<path d="M216.88 41.8792C217.375 42.3625 217.62 43.0607 217.62 43.9676V47.8342H216.54V44.1228C216.54 43.4664 216.379 42.9652 216.05 42.6191C215.722 42.273 215.275 42.1 214.708 42.1C214.141 42.1 213.676 42.279 213.335 42.637C212.995 42.995 212.828 43.5201 212.828 44.2063V47.8342H211.736V41.2706H212.828V42.2074C213.043 41.8732 213.335 41.6107 213.705 41.4317C214.075 41.2467 214.487 41.1572 214.935 41.1572C215.734 41.1572 216.379 41.3959 216.874 41.8792H216.88Z" fill="white"/>
<path d="M225.359 44.965H220.114C220.156 45.6094 220.376 46.1166 220.776 46.4806C221.182 46.8445 221.665 47.0235 222.244 47.0235C222.715 47.0235 223.109 46.9161 223.425 46.6954C223.742 46.4746 223.962 46.1822 224.088 45.8123H225.263C225.09 46.4448 224.738 46.9579 224.207 47.3517C223.676 47.7455 223.026 47.9424 222.244 47.9424C221.623 47.9424 221.063 47.8052 220.573 47.5248C220.084 47.2443 219.696 46.8505 219.416 46.3314C219.135 45.8182 218.998 45.2215 218.998 44.5413C218.998 43.8611 219.135 43.2704 219.404 42.7572C219.672 42.2441 220.054 41.8503 220.549 41.5758C221.039 41.3013 221.606 41.1641 222.244 41.1641C222.882 41.1641 223.419 41.3013 223.897 41.5698C224.374 41.8443 224.744 42.2142 225.007 42.6916C225.263 43.1689 225.395 43.706 225.395 44.3026C225.395 44.5115 225.383 44.7323 225.359 44.959V44.965ZM223.992 43.0078C223.807 42.7095 223.557 42.4827 223.246 42.3276C222.93 42.1725 222.584 42.0949 222.196 42.0949C221.647 42.0949 221.176 42.2679 220.788 42.62C220.4 42.972 220.179 43.4553 220.126 44.0819H224.267C224.267 43.6642 224.177 43.3121 223.992 43.0078Z" fill="white"/>
<path d="M227.797 47.6858C227.398 47.5127 227.081 47.274 226.849 46.9697C226.616 46.6654 226.491 46.3074 226.467 45.9076H227.595C227.624 46.2358 227.78 46.5043 228.054 46.7072C228.328 46.916 228.692 47.0175 229.14 47.0175C229.558 47.0175 229.88 46.928 230.124 46.743C230.363 46.558 230.483 46.3253 230.483 46.0508C230.483 45.7764 230.357 45.5496 230.101 45.4124C229.844 45.2751 229.45 45.1379 228.913 45.0007C228.424 44.8754 228.03 44.7441 227.72 44.6128C227.41 44.4815 227.147 44.2846 226.932 44.0281C226.711 43.7715 226.604 43.4254 226.604 43.0018C226.604 42.6676 226.705 42.3573 226.902 42.0769C227.099 41.7964 227.386 41.5757 227.75 41.4146C228.114 41.2535 228.537 41.1699 229.009 41.1699C229.737 41.1699 230.321 41.3549 230.769 41.7189C231.216 42.0888 231.455 42.59 231.485 43.2285H230.393C230.369 42.8884 230.232 42.6079 229.981 42.4051C229.731 42.1962 229.391 42.0948 228.967 42.0948C228.573 42.0948 228.263 42.1783 228.03 42.3454C227.797 42.5125 227.684 42.7332 227.684 43.0018C227.684 43.2166 227.756 43.3956 227.893 43.5328C228.03 43.67 228.209 43.7834 228.418 43.867C228.627 43.9505 228.925 44.046 229.295 44.1474C229.766 44.2727 230.148 44.398 230.447 44.5233C230.739 44.6486 230.996 44.8336 231.205 45.0782C231.413 45.3229 231.527 45.651 231.533 46.0508C231.533 46.4088 231.431 46.7311 231.234 47.0234C231.037 47.3098 230.751 47.5366 230.393 47.6977C230.029 47.8588 229.611 47.9423 229.14 47.9423C228.639 47.9423 228.185 47.8588 227.785 47.6858H227.797Z" fill="white"/>
<path d="M234.051 47.6858C233.652 47.5127 233.335 47.274 233.103 46.9697C232.87 46.6654 232.745 46.3074 232.721 45.9076H233.848C233.878 46.2358 234.033 46.5043 234.308 46.7072C234.582 46.916 234.946 47.0175 235.394 47.0175C235.812 47.0175 236.134 46.928 236.378 46.743C236.617 46.558 236.736 46.3253 236.736 46.0508C236.736 45.7764 236.611 45.5496 236.355 45.4124C236.098 45.2751 235.704 45.1379 235.167 45.0007C234.678 44.8754 234.284 44.7441 233.974 44.6128C233.663 44.4815 233.401 44.2846 233.186 44.0281C232.965 43.7715 232.858 43.4254 232.858 43.0018C232.858 42.6676 232.959 42.3573 233.156 42.0769C233.353 41.7964 233.64 41.5757 234.004 41.4146C234.368 41.2535 234.791 41.1699 235.263 41.1699C235.991 41.1699 236.575 41.3549 237.023 41.7189C237.47 42.0888 237.709 42.59 237.739 43.2285H236.647C236.623 42.8884 236.486 42.6079 236.235 42.4051C235.985 42.1962 235.644 42.0948 235.221 42.0948C234.827 42.0948 234.517 42.1783 234.284 42.3454C234.051 42.5125 233.938 42.7332 233.938 43.0018C233.938 43.2166 234.01 43.3956 234.147 43.5328C234.284 43.67 234.463 43.7834 234.672 43.867C234.881 43.9505 235.179 44.046 235.549 44.1474C236.02 44.2727 236.402 44.398 236.701 44.5233C236.993 44.6486 237.25 44.8336 237.458 45.0782C237.667 45.3229 237.781 45.651 237.787 46.0508C237.787 46.4088 237.685 46.7311 237.488 47.0234C237.291 47.3098 237.005 47.5366 236.647 47.6977C236.283 47.8588 235.865 47.9423 235.394 47.9423C234.893 47.9423 234.439 47.8588 234.039 47.6858H234.051Z" fill="white"/>
<path d="M73.6261 41.1585H60.2163L53.9918 32.5686H36.402V41.1585H28.9444L24.9567 24.7902H58.6041C60.3337 24.7902 61.7324 23.5322 61.7324 21.9765V19.4845C61.7324 17.9336 60.3337 16.6708 58.6041 16.6708H11.0397L8.25305 5.24805H2.91472C1.30789 5.24805 0 4.07168 0 2.62162C0 1.8966 0.325638 1.24359 0.854132 0.768242C1.38263 0.292892 2.11398 0 2.91472 0H12.9454L15.1929 9.2285H63.2218C68.8804 9.2285 73.4767 13.3578 73.4767 18.4522V23.3497C73.4767 27.263 70.7648 30.6048 66.9372 31.9444L73.6261 41.1585Z" fill="white"/>
<path d="M82.3818 35.1959V47.8239C82.3818 49.6292 80.7536 51.0937 78.7464 51.0937H65.8223C64.8561 49.5284 63.009 48.4721 60.8844 48.4721C58.7597 48.4721 56.9073 49.5284 55.9464 51.0937H44.5117C43.5508 49.5284 41.6984 48.4721 39.5738 48.4721C37.4491 48.4721 35.5967 49.5284 34.6358 51.0937H22.3524C20.6441 51.0937 19.1654 50.0229 18.8024 48.5201L13.0156 24.791H18.9892L23.9111 45.0054C24.0339 45.4999 24.5197 45.8504 25.0802 45.8504H75.3512C76.0132 45.8504 76.547 45.3703 76.547 44.7749V35.1959C76.547 33.7458 77.8549 32.5695 79.4617 32.5695C80.2678 32.5695 80.9992 32.8624 81.5276 33.3377C82.0561 33.8131 82.3818 34.4709 82.3818 35.1959Z" fill="white"/>
<path d="M39.5736 55.9989C41.0802 55.9989 42.3015 54.9004 42.3015 53.5454C42.3015 52.1903 41.0802 51.0918 39.5736 51.0918C38.067 51.0918 36.8457 52.1903 36.8457 53.5454C36.8457 54.9004 38.067 55.9989 39.5736 55.9989Z" fill="white"/>
<path d="M60.8841 55.9989C62.3907 55.9989 63.612 54.9004 63.612 53.5454C63.612 52.1903 62.3907 51.0918 60.8841 51.0918C59.3776 51.0918 58.1562 52.1903 58.1562 53.5454C58.1562 54.9004 59.3776 55.9989 60.8841 55.9989Z" fill="white"/>
</svg>
