<svg width="14" height="14" viewBox="0 0 14 14" fill="none" xmlns="http://www.w3.org/2000/svg">
<path d="M9.4735 1.16675H4.52683C2.91683 1.16675 2.3335 1.75008 2.3335 3.38925V10.6109C2.3335 12.2501 2.91683 12.8334 4.52683 12.8334H9.46766C11.0835 12.8334 11.6668 12.2501 11.6668 10.6109V3.38925C11.6668 1.75008 11.0835 1.16675 9.4735 1.16675ZM7.00016 11.2584C6.44016 11.2584 5.97933 10.7976 5.97933 10.2376C5.97933 9.67758 6.44016 9.21675 7.00016 9.21675C7.56016 9.21675 8.021 9.67758 8.021 10.2376C8.021 10.7976 7.56016 11.2584 7.00016 11.2584ZM8.16683 3.64591H5.8335C5.59433 3.64591 5.396 3.44758 5.396 3.20841C5.396 2.96925 5.59433 2.77091 5.8335 2.77091H8.16683C8.406 2.77091 8.60433 2.96925 8.60433 3.20841C8.60433 3.44758 8.406 3.64591 8.16683 3.64591Z" fill="#6B7280"/>
</svg>
