<svg width="24" height="24" viewBox="0 0 24 24" fill="none" xmlns="http://www.w3.org/2000/svg">
<path d="M7 4H17C18.4234 4 19.5331 4.35591 20.2848 5.0539C21.0297 5.74565 21.5 6.8453 21.5 8.5V15.5C21.5 17.1547 21.0297 18.2543 20.2848 18.9461C19.5331 19.6441 18.4234 20 17 20H7C5.57665 20 4.4669 19.6441 3.71523 18.9461C2.97026 18.2543 2.5 17.1547 2.5 15.5V8.5C2.5 6.8453 2.97026 5.74565 3.71523 5.0539C4.4669 4.35591 5.57665 4 7 4ZM5.5 15.75C6.18614 15.75 6.75 15.1861 6.75 14.5V9.5C6.75 8.81386 6.18614 8.25 5.5 8.25C4.81386 8.25 4.25 8.81386 4.25 9.5V14.5C4.25 15.1861 4.81386 15.75 5.5 15.75ZM8.5 12C8.5 13.9361 10.0639 15.5 12 15.5C13.9361 15.5 15.5 13.9361 15.5 12C15.5 10.0639 13.9361 8.5 12 8.5C10.0639 8.5 8.5 10.0639 8.5 12ZM18.5 15.75C19.1861 15.75 19.75 15.1861 19.75 14.5V9.5C19.75 8.81386 19.1861 8.25 18.5 8.25C17.8139 8.25 17.25 8.81386 17.25 9.5V14.5C17.25 15.1861 17.8139 15.75 18.5 15.75Z" fill="#9CA3AF" stroke="#9CA3AF"/>
</svg>
