<svg width="25" height="24" viewBox="0 0 25 24" fill="none" xmlns="http://www.w3.org/2000/svg">
<g id="vuesax/linear/menu">
<g id="Group">
<g id="Group_2">
<path id="Vector" d="M17.79 8.30989C19.1486 8.30989 20.25 7.20851 20.25 5.84989C20.25 4.49127 19.1486 3.38989 17.79 3.38989C16.4314 3.38989 15.33 4.49127 15.33 5.84989C15.33 7.20851 16.4314 8.30989 17.79 8.30989Z" stroke="#9CA3AF" stroke-width="1.5" stroke-miterlimit="10" stroke-linecap="round" stroke-linejoin="round"/>
<path id="Vector_2" d="M6.71001 8.30989C8.06863 8.30989 9.17 7.20851 9.17 5.84989C9.17 4.49127 8.06863 3.38989 6.71001 3.38989C5.35139 3.38989 4.25 4.49127 4.25 5.84989C4.25 7.20851 5.35139 8.30989 6.71001 8.30989Z" stroke="#9CA3AF" stroke-width="1.5" stroke-miterlimit="10" stroke-linecap="round" stroke-linejoin="round"/>
<path id="Vector_3" d="M17.79 20.6099C19.1486 20.6099 20.25 19.5086 20.25 18.1499C20.25 16.7913 19.1486 15.6899 17.79 15.6899C16.4314 15.6899 15.33 16.7913 15.33 18.1499C15.33 19.5086 16.4314 20.6099 17.79 20.6099Z" stroke="#9CA3AF" stroke-width="1.5" stroke-miterlimit="10" stroke-linecap="round" stroke-linejoin="round"/>
<path id="Vector_4" d="M6.71001 20.6099C8.06863 20.6099 9.17 19.5086 9.17 18.1499C9.17 16.7913 8.06863 15.6899 6.71001 15.6899C5.35139 15.6899 4.25 16.7913 4.25 18.1499C4.25 19.5086 5.35139 20.6099 6.71001 20.6099Z" stroke="#9CA3AF" stroke-width="1.5" stroke-miterlimit="10" stroke-linecap="round" stroke-linejoin="round"/>
</g>
</g>
</g>
</svg>
