<svg width="40" height="40" viewBox="0 0 40 40" fill="none" xmlns="http://www.w3.org/2000/svg">
<rect width="40" height="40" rx="20" fill="#EDFFE5"/>
<path d="M19.94 10.21L17.53 15.82H15.12C14.72 15.82 14.33 15.85 13.95 15.93L14.95 13.53L14.99 13.44L15.05 13.28C15.08 13.21 15.1 13.15 15.13 13.1C16.29 10.41 17.59 9.56995 19.94 10.21Z" fill="#2BE506"/>
<path d="M26.7301 16.09L26.7101 16.08C26.1101 15.91 25.5001 15.82 24.8801 15.82H18.6201L20.8701 10.59L20.9001 10.52C21.0401 10.57 21.1901 10.64 21.3401 10.69L23.5501 11.62C24.7801 12.13 25.6401 12.66 26.1701 13.3C26.2601 13.42 26.3401 13.53 26.4201 13.66C26.5101 13.8 26.5801 13.94 26.6201 14.09C26.6601 14.18 26.6901 14.26 26.7101 14.35C26.8601 14.86 26.8701 15.44 26.7301 16.09Z" fill="#2BE506"/>
<path d="M20.52 25.66H20.77C21.07 25.66 21.32 25.39 21.32 25.06C21.32 24.64 21.2 24.58 20.94 24.48L20.52 24.33V25.66Z" fill="#2BE506"/>
<path d="M26.29 17.5199C25.84 17.3899 25.37 17.3199 24.88 17.3199H15.12C14.44 17.3199 13.8 17.4499 13.2 17.7099C11.46 18.4599 10.24 20.1899 10.24 22.1999V24.1499C10.24 24.3899 10.26 24.6199 10.29 24.8599C10.51 28.0399 12.21 29.7399 15.39 29.9499C15.62 29.9799 15.85 29.9999 16.1 29.9999H23.9C27.6 29.9999 29.55 28.2399 29.74 24.7399C29.75 24.5499 29.76 24.3499 29.76 24.1499V22.1999C29.76 19.9899 28.29 18.1299 26.29 17.5199ZM21.28 23.4999C21.74 23.6599 22.36 23.9999 22.36 25.0599C22.36 25.9699 21.65 26.6999 20.77 26.6999H20.52V26.9199C20.52 27.2099 20.29 27.4399 20 27.4399C19.71 27.4399 19.48 27.2099 19.48 26.9199V26.6999H19.39C18.43 26.6999 17.64 25.8899 17.64 24.8899C17.64 24.5999 17.87 24.3699 18.16 24.3699C18.45 24.3699 18.68 24.5999 18.68 24.8899C18.68 25.3099 19 25.6599 19.39 25.6599H19.48V23.9699L18.72 23.6999C18.26 23.5399 17.64 23.1999 17.64 22.1399C17.64 21.2299 18.35 20.4999 19.23 20.4999H19.48V20.2799C19.48 19.9899 19.71 19.7599 20 19.7599C20.29 19.7599 20.52 19.9899 20.52 20.2799V20.4999H20.61C21.57 20.4999 22.36 21.3099 22.36 22.3099C22.36 22.5999 22.13 22.8299 21.84 22.8299C21.55 22.8299 21.32 22.5999 21.32 22.3099C21.32 21.8899 21 21.5399 20.61 21.5399H20.52V23.2299L21.28 23.4999Z" fill="#2BE506"/>
<path d="M18.6799 22.14C18.6799 22.56 18.7999 22.62 19.0599 22.72L19.4799 22.87V21.54H19.2299C18.9199 21.54 18.6799 21.81 18.6799 22.14Z" fill="#2BE506"/>
</svg>
