<svg width="8" height="8" viewBox="0 0 8 8" fill="none" xmlns="http://www.w3.org/2000/svg">
<path d="M7.95809 2.01292C7.95851 1.73459 7.84978 1.4725 7.65312 1.275L6.72477 0.34671C6.52769 0.150044 6.266 0.041687 5.98767 0.041687C5.98725 0.041687 5.98687 0.041687 5.98645 0.041687C5.7077 0.0421037 5.44602 0.150838 5.24935 0.348338L0.101847 5.51959C0.0630973 5.55834 0.0410156 5.61127 0.0410156 5.66669V7.75002C0.0410156 7.86502 0.134349 7.95835 0.249349 7.95835H2.33268C2.38768 7.95835 2.44061 7.93669 2.47978 7.89752L7.65098 2.75002C7.8489 2.55335 7.95767 2.29167 7.95809 2.01292ZM2.24723 7.54169H0.458089V5.75295L4.3089 1.88419L6.11554 3.69088L2.24723 7.54169ZM7.35771 2.45461L6.41146 3.39669L4.60309 1.58878L5.54517 0.642527C5.66308 0.524194 5.81976 0.458761 5.98726 0.458761C5.98768 0.458761 5.98808 0.458761 5.98808 0.458761C6.15516 0.458761 6.31225 0.523746 6.43058 0.641663L7.35893 1.57001C7.47726 1.68834 7.54183 1.84543 7.54183 2.01251C7.54183 2.1796 7.47604 2.33669 7.35771 2.45461ZM7.95809 7.75002C7.95809 7.86502 7.86476 7.95835 7.74976 7.95835H4.83309C4.71809 7.95835 4.62476 7.86502 4.62476 7.75002C4.62476 7.63502 4.71809 7.54169 4.83309 7.54169H7.74976C7.86476 7.54169 7.95809 7.63502 7.95809 7.75002Z" fill="#9CA3AF"/>
</svg>
