<svg width="152" height="115" viewBox="0 0 152 115" fill="none" xmlns="http://www.w3.org/2000/svg">
<path d="M135.592 83.997H110.977L99.5518 66.4666H67.2641V83.997H53.5749L46.255 50.5922H108.018C111.193 50.5922 113.76 48.0249 113.76 44.85V39.7643C113.76 36.5993 111.193 34.0221 108.018 34.0221H20.709L15.594 10.7103H5.79496C2.84546 10.7103 0.444702 8.30955 0.444702 5.35025C0.444702 3.8706 1.04244 2.53794 2.01254 1.56784C2.98264 0.597739 4.32511 0 5.79496 0H24.2073L28.3327 18.8337H116.494C126.881 18.8337 135.318 27.2608 135.318 37.6576V47.6525C135.318 55.6387 130.34 62.4588 123.314 65.1927L135.592 83.997Z" fill="white"/>
<path d="M151.663 71.8267V97.598C151.663 101.282 148.674 104.271 144.99 104.271H121.266C119.493 101.077 116.102 98.9209 112.202 98.9209C108.302 98.9209 104.902 101.077 103.138 104.271H82.1488C80.385 101.077 76.9847 98.9209 73.0847 98.9209C69.1847 98.9209 65.7845 101.077 64.0207 104.271H41.4732C38.3375 104.271 35.6232 102.086 34.9568 99.0189L24.3347 50.5922H35.2998L44.3345 91.846C44.5599 92.8553 45.4516 93.5706 46.4805 93.5706H138.758C139.973 93.5706 140.953 92.5907 140.953 91.3757V71.8267C140.953 68.8674 143.353 66.4666 146.303 66.4666C147.783 66.4666 149.125 67.0643 150.095 68.0344C151.065 69.0045 151.663 70.347 151.663 71.8267Z" fill="white"/>
<path d="M73.0847 114.286C75.8501 114.286 78.092 112.044 78.092 109.278C78.092 106.513 75.8501 104.271 73.0847 104.271C70.3192 104.271 68.0774 106.513 68.0774 109.278C68.0774 112.044 70.3192 114.286 73.0847 114.286Z" fill="white"/>
<path d="M112.202 114.286C114.968 114.286 117.21 112.044 117.21 109.278C117.21 106.513 114.968 104.271 112.202 104.271C109.437 104.271 107.195 106.513 107.195 109.278C107.195 112.044 109.437 114.286 112.202 114.286Z" fill="white"/>
</svg>
