<svg width="25" height="24" viewBox="0 0 25 24" fill="none" xmlns="http://www.w3.org/2000/svg">
<g id="vuesax/linear/box-search">
<g id="Group">
<g id="Group_2">
<g id="Group_3">
<path id="Vector" d="M3.42001 7.43994L12.25 12.5499L21.02 7.46991" stroke="#9CA3AF" stroke-width="1.5" stroke-linecap="round" stroke-linejoin="round"/>
<path id="Line" d="M12.25 21.61V12.54" stroke="#9CA3AF" stroke-width="1.5" stroke-linecap="round" stroke-linejoin="round"/>
</g>
<path id="Vector_2" d="M21.86 12.83V9.17C21.86 7.79 20.87 6.11002 19.66 5.44002L14.32 2.48C13.18 1.84 11.32 1.84 10.18 2.48L4.84 5.44002C3.63 6.11002 2.64001 7.79 2.64001 9.17V14.83C2.64001 16.21 3.63 17.89 4.84 18.56L10.18 21.52C10.75 21.84 11.5 22 12.25 22C13 22 13.75 21.84 14.32 21.52" stroke="#9CA3AF" stroke-width="1.5" stroke-linecap="round" stroke-linejoin="round"/>
</g>
<g id="Group_4">
<path id="Vector_3" d="M19.45 21.4C21.2173 21.4 22.65 19.9673 22.65 18.2C22.65 16.4327 21.2173 15 19.45 15C17.6827 15 16.25 16.4327 16.25 18.2C16.25 19.9673 17.6827 21.4 19.45 21.4Z" stroke="#9CA3AF" stroke-width="1.5" stroke-linecap="round" stroke-linejoin="round"/>
<path id="Line_2" d="M23.25 22L22.25 21" stroke="#9CA3AF" stroke-width="1.5" stroke-linecap="round" stroke-linejoin="round"/>
</g>
</g>
</g>
</svg>
