<svg width="24" height="24" viewBox="0 0 24 24" fill="none" xmlns="http://www.w3.org/2000/svg">
<g id="vuesax/bulk/receipt-2">
<g id="Group">
<path id="Vector" opacity="0.4" d="M18.7136 20.1993C18.4115 20.069 18.0417 19.803 17.6252 19.3585L9.92 19.55C9.4776 18.9601 8.85248 18.6218 8.18969 18.5857C7.52667 18.5496 6.8682 18.8183 6.3642 19.3591L6.73 19.7L6.36505 19.3582C5.95115 19.8002 5.58265 20.065 5.28103 20.1947C4.9842 20.3224 4.78305 20.3085 4.64904 20.2508C4.51158 20.1916 4.3505 20.0457 4.21886 19.7224C4.08652 19.3974 4 18.9274 4 18.3V7.04C4 5.01737 4.24812 3.9484 4.80763 3.35034C5.35604 2.76414 6.331 2.5 8.22 2.5H15.78C17.6692 2.5 18.6438 2.76423 19.1908 3.35002C19.7489 3.94758 19.995 5.01607 19.99 7.03876V7.04V18.31C19.99 18.9351 19.9041 19.404 19.7723 19.7285C19.6413 20.0515 19.4809 20.197 19.3444 20.2559C19.2114 20.3133 19.011 20.3275 18.7136 20.1993Z" fill="#334155" stroke="#334155"/>
<path id="Vector_2" d="M16.23 11.75H10.73C10.32 11.75 9.98 11.41 9.98 11C9.98 10.59 10.32 10.25 10.73 10.25H16.23C16.64 10.25 16.98 10.59 16.98 11C16.98 11.41 16.64 11.75 16.23 11.75Z" fill="#334155"/>
<path id="Vector_3" d="M16.23 7.75H10.73C10.32 7.75 9.98 7.41 9.98 7C9.98 6.59 10.32 6.25 10.73 6.25H16.23C16.64 6.25 16.98 6.59 16.98 7C16.98 7.41 16.64 7.75 16.23 7.75Z" fill="#334155"/>
<path id="Vector_4" d="M7.78 8C7.23 8 6.78 7.55 6.78 7C6.78 6.45 7.23 6 7.78 6C8.33 6 8.78 6.45 8.78 7C8.78 7.55 8.33 8 7.78 8Z" fill="#334155"/>
<path id="Vector_5" d="M7.78 12C7.23 12 6.78 11.55 6.78 11C6.78 10.45 7.23 10 7.78 10C8.33 10 8.78 10.45 8.78 11C8.78 11.55 8.33 12 7.78 12Z" fill="#334155"/>
</g>
</g>
</svg>
