<svg width="40" height="40" viewBox="0 0 40 40" fill="none" xmlns="http://www.w3.org/2000/svg">
<rect width="40" height="40" rx="20" fill="#EFF0FE"/>
<path d="M15.81 10H24.19C27.83 10 30 12.17 30 15.81V24.18C30 27.83 27.83 30 24.19 30H15.82C12.18 30 10.01 27.83 10.01 24.19V15.81C10 12.17 12.17 10 15.81 10ZM14.75 20.33C14.75 20.74 15.09 21.08 15.5 21.08C15.91 21.08 16.25 20.74 16.25 20.33V17.31L23.97 25.03C24.12 25.18 24.31 25.25 24.5 25.25C24.69 25.25 24.88 25.18 25.03 25.03C25.32 24.74 25.32 24.26 25.03 23.97L17.31 16.25H20.33C20.74 16.25 21.08 15.91 21.08 15.5C21.08 15.09 20.74 14.75 20.33 14.75H15.5C15.09 14.75 14.75 15.09 14.75 15.5V20.33Z" fill="#6A4CDF"/>
</svg>
