<svg width="40" height="40" viewBox="0 0 40 40" fill="none" xmlns="http://www.w3.org/2000/svg">
<rect width="40" height="40" rx="20" fill="#F0F8FF"/>
<path d="M15.81 10H24.19C27.83 10 30 12.17 30 15.81V24.18C30 27.83 27.83 30 24.19 30H15.82C12.18 30 10.01 27.83 10.01 24.19V15.81C10 12.17 12.17 10 15.81 10ZM14.47 15.53L22.19 23.25H19.17C18.76 23.25 18.42 23.59 18.42 24C18.42 24.41 18.76 24.75 19.17 24.75H24C24.41 24.75 24.75 24.41 24.75 24V19.17C24.75 18.76 24.41 18.42 24 18.42C23.59 18.42 23.25 18.76 23.25 19.17V22.19L15.53 14.47C15.38 14.32 15.19 14.25 15 14.25C14.81 14.25 14.62 14.32 14.47 14.47C14.18 14.76 14.18 15.24 14.47 15.53Z" fill="#18A1F7"/>
</svg>
