<svg width="40" height="42" viewBox="0 0 40 42" fill="none" xmlns="http://www.w3.org/2000/svg">
<path id="Vector" fill-rule="evenodd" clip-rule="evenodd" d="M11.0001 9V10.5H7.02606C5.10606 10.5 3.49806 11.948 3.29606 13.858L0.770057 37.858C0.715117 38.3807 0.770662 38.9091 0.933088 39.4089C1.09551 39.9088 1.36119 40.3689 1.7129 40.7594C2.0646 41.15 2.49446 41.4622 2.97462 41.676C3.45477 41.8897 3.97449 42.0001 4.50006 42H35.5001C36.0256 42.0001 36.5453 41.8897 37.0255 41.676C37.5056 41.4622 37.9355 41.15 38.2872 40.7594C38.6389 40.3689 38.9046 39.9088 39.067 39.4089C39.2295 38.9091 39.285 38.3807 39.2301 37.858L36.7041 13.858C36.6072 12.9363 36.1724 12.0831 35.4836 11.463C34.7948 10.8429 33.9008 10.4999 32.9741 10.5H29.0001V9C29.0001 6.61305 28.0518 4.32387 26.364 2.63604C24.6762 0.948211 22.387 0 20.0001 0C17.6131 0 15.3239 0.948211 13.6361 2.63604C11.9483 4.32387 11.0001 6.61305 11.0001 9ZM20.0001 3C18.4088 3 16.8826 3.63214 15.7574 4.75736C14.6322 5.88258 14.0001 7.4087 14.0001 9V10.5H26.0001V9C26.0001 7.4087 25.3679 5.88258 24.2427 4.75736C23.1175 3.63214 21.5914 3 20.0001 3ZM14.0001 19.5C14.0001 21.0913 14.6322 22.6174 15.7574 23.7426C16.8826 24.8679 18.4088 25.5 20.0001 25.5C21.5914 25.5 23.1175 24.8679 24.2427 23.7426C25.3679 22.6174 26.0001 21.0913 26.0001 19.5V18C26.0001 17.6022 26.1581 17.2206 26.4394 16.9393C26.7207 16.658 27.1022 16.5 27.5001 16.5C27.8979 16.5 28.2794 16.658 28.5607 16.9393C28.842 17.2206 29.0001 17.6022 29.0001 18V19.5C29.0001 21.8869 28.0518 24.1761 26.364 25.864C24.6762 27.5518 22.387 28.5 20.0001 28.5C17.6131 28.5 15.3239 27.5518 13.6361 25.864C11.9483 24.1761 11.0001 21.8869 11.0001 19.5V18C11.0001 17.6022 11.1581 17.2206 11.4394 16.9393C11.7207 16.658 12.1022 16.5 12.5001 16.5C12.8979 16.5 13.2794 16.658 13.5607 16.9393C13.842 17.2206 14.0001 17.6022 14.0001 18V19.5Z" fill="#1AB000"/>
</svg>
