<svg width="44" height="44" viewBox="0 0 44 44" fill="none" xmlns="http://www.w3.org/2000/svg">
<g id="vuesax/bulk/shop">
<g id="Group">
<path id="Vector" opacity="0.4" d="M39.1783 20.8817V31.8634C39.1783 36.9234 35.0717 41.0301 30.0117 41.0301H13.9883C8.92834 41.0301 4.82167 36.9234 4.82167 31.8634V21.0101C6.215 22.5134 8.195 23.3751 10.34 23.3751C12.65 23.3751 14.8683 22.2201 16.2617 20.3684C17.5083 22.2201 19.635 23.3751 22 23.3751C24.3467 23.3751 26.4367 22.2751 27.7017 20.4417C29.1133 22.2567 31.295 23.3751 33.5683 23.3751C35.7867 23.3751 37.8033 22.4767 39.1783 20.8817Z" fill="#33B0FD"/>
<path id="Vector_2" d="M27.4817 2.29175H16.4817L15.125 15.7851C15.015 17.0317 15.1983 18.2051 15.6567 19.2684C16.72 21.7617 19.2133 23.3751 22 23.3751C24.8233 23.3751 27.2617 21.7984 28.3617 19.2867C28.6917 18.4984 28.8933 17.5817 28.9117 16.6467V16.2984L27.4817 2.29175Z" fill="#33B0FD"/>
<path id="Vector_3" opacity="0.6" d="M40.9933 15.1617L40.4617 10.0834C39.6917 4.54675 37.18 2.29175 31.8083 2.29175H24.7683L26.125 16.0417C26.1433 16.2251 26.1617 16.4267 26.1617 16.7751C26.2717 17.7284 26.565 18.6084 27.005 19.3967C28.325 21.8167 30.8917 23.3751 33.5683 23.3751C36.0067 23.3751 38.2067 22.2934 39.5817 20.3867C40.6817 18.9201 41.1767 17.0684 40.9933 15.1617Z" fill="#33B0FD"/>
<path id="Vector_4" opacity="0.6" d="M12.0817 2.29175C6.69167 2.29175 4.19833 4.54675 3.41 10.1384L2.915 15.1801C2.73167 17.1417 3.26333 19.0484 4.41833 20.5334C5.81167 22.3484 7.95667 23.3751 10.34 23.3751C13.0167 23.3751 15.5833 21.8167 16.885 19.4334C17.3617 18.6084 17.6733 17.6551 17.765 16.6651L19.195 2.31008H12.0817V2.29175Z" fill="#33B0FD"/>
<path id="Vector_5" d="M20.8083 30.5434C18.48 30.7817 16.72 32.7617 16.72 35.1084V41.03H27.2617V35.75C27.28 31.9184 25.025 30.1034 20.8083 30.5434Z" fill="#33B0FD"/>
</g>
</g>
</svg>
