<svg width="14" height="14" viewBox="0 0 14 14" fill="none" xmlns="http://www.w3.org/2000/svg">
<path d="M9.9165 2.04175H4.08317C2.33317 2.04175 1.1665 2.91675 1.1665 4.95841V9.04175C1.1665 11.0834 2.33317 11.9584 4.08317 11.9584H9.9165C11.6665 11.9584 12.8332 11.0834 12.8332 9.04175V4.95841C12.8332 2.91675 11.6665 2.04175 9.9165 2.04175ZM10.1907 5.59425L8.36484 7.05258C7.97984 7.36175 7.48984 7.51341 6.99984 7.51341C6.50984 7.51341 6.014 7.36175 5.63484 7.05258L3.809 5.59425C3.62234 5.44258 3.59317 5.16258 3.739 4.97591C3.89067 4.78925 4.16484 4.75425 4.3515 4.90591L6.17734 6.36425C6.62067 6.72008 7.37317 6.72008 7.8165 6.36425L9.64234 4.90591C9.829 4.75425 10.109 4.78341 10.2548 4.97591C10.4065 5.16258 10.3773 5.44258 10.1907 5.59425Z" fill="#6B7280"/>
</svg>
